<?xml version="1.0" encoding="UTF-8" standalone="no"?>
<!-- Created with Inkscape (http://www.inkscape.org/) -->

<svg
   width="146.76685mm"
   height="128.76093mm"
   viewBox="0 0 146.76685 128.76093"
   version="1.1"
   id="svg1"
   inkscape:version="1.3.2 (091e20e, 2023-11-25)"
   sodipodi:docname="bevy-crow.svg"
   xmlns:inkscape="http://www.inkscape.org/namespaces/inkscape"
   xmlns:sodipodi="http://sodipodi.sourceforge.net/DTD/sodipodi-0.dtd"
   xmlns="http://www.w3.org/2000/svg"
   xmlns:svg="http://www.w3.org/2000/svg">
  <sodipodi:namedview
     id="namedview1"
     pagecolor="#ffffff"
     bordercolor="#666666"
     borderopacity="1.0"
     inkscape:showpageshadow="2"
     inkscape:pageopacity="0.0"
     inkscape:pagecheckerboard="0"
     inkscape:deskcolor="#d1d1d1"
     inkscape:document-units="mm"
     inkscape:zoom="0.2102413"
     inkscape:cx="278.2517"
     inkscape:cy="242.57841"
     inkscape:window-width="1312"
     inkscape:window-height="449"
     inkscape:window-x="0"
     inkscape:window-y="44"
     inkscape:window-maximized="0"
     inkscape:current-layer="layer1" />
  <defs
     id="defs1" />
  <g
     inkscape:label="Layer 1"
     inkscape:groupmode="layer"
     id="layer1"
     transform="translate(-31.749994,-84.137501)">
    <g
       id="g1511"
       transform="matrix(1.1656229,0,0,1.1656229,-177.06844,-72.674442)">
      <path
         style="fill:#2f2f2f;fill-opacity:1;stroke:#000000;stroke-width:1.44558;stroke-linecap:round;stroke-linejoin:miter;stroke-miterlimit:4;stroke-dasharray:none;stroke-opacity:1;paint-order:normal"
         d="m 245.37471,230.86175 c -0.35388,3.43509 -30.66197,7.77683 -35.67252,5.51814 -4.1255,-1.8597 -6.26329,-2.80547 -5.89288,-3.72482 2.32908,-0.37054 13.17024,0.12022 15.34123,-0.53406 5.70608,-1.71932 13.1,-4.00729 16.50528,-4.00729"
         id="path42698-7-5-4"
         sodipodi:nodetypes="cscsc" />
      <path
         style="fill:#2f2f2f;fill-opacity:1;stroke:#000000;stroke-width:1.56424;stroke-linecap:round;stroke-linejoin:miter;stroke-miterlimit:4;stroke-dasharray:none;stroke-opacity:1;paint-order:normal"
         d="m 257.23811,138.55644 c -1.603,-2.4528 -5.07941,-2.96012 -5.99116,-3.10588 -1.29495,-0.20765 -4.7471,-0.26277 -4.84676,0.45179 1.26954,1.00906 1.60974,2.60138 2.61073,3.80638 0.94303,1.13516 3.45122,2.23681 4.80514,2.99202"
         id="path42698-7-5-5-7-4-1-9"
         sodipodi:nodetypes="cscsc" />
      <path
         style="fill:#2f2f2f;fill-opacity:1;stroke:#000000;stroke-width:1.56424;stroke-linecap:round;stroke-linejoin:miter;stroke-miterlimit:4;stroke-dasharray:none;stroke-opacity:1;paint-order:normal"
         d="m 291.67758,177.58662 c 1.90332,0.2372 6.4004,8.57268 6.66159,11.11552 0.39373,3.83037 -1.53724,5.34483 -2.38054,5.33058 -1.00431,-1.73728 -2.32968,-2.66544 -3.51087,-4.19093 -3.10423,-4.00967 -4.25431,-5.41834 -5.16849,-8.82411"
         id="path42698-6-1"
         sodipodi:nodetypes="cscsc" />
      <path
         id="path3031-2-8-3"
         style="color:#000000;font-style:normal;font-variant:normal;font-weight:normal;font-stretch:normal;font-size:medium;line-height:normal;font-family:sans-serif;font-variant-ligatures:normal;font-variant-position:normal;font-variant-caps:normal;font-variant-numeric:normal;font-variant-alternates:normal;font-variant-east-asian:normal;font-feature-settings:normal;font-variation-settings:normal;text-indent:0;text-align:start;text-decoration:none;text-decoration-line:none;text-decoration-style:solid;text-decoration-color:#000000;letter-spacing:normal;word-spacing:normal;text-transform:none;writing-mode:lr-tb;direction:ltr;text-orientation:mixed;dominant-baseline:auto;baseline-shift:baseline;text-anchor:start;white-space:normal;shape-padding:0;shape-margin:0;inline-size:0;clip-rule:nonzero;display:inline;overflow:visible;visibility:visible;isolation:auto;mix-blend-mode:normal;color-interpolation:sRGB;color-interpolation-filters:linearRGB;solid-color:#000000;solid-opacity:1;fill:#2f2f2f;fill-opacity:1;fill-rule:nonzero;stroke:#000000;stroke-width:1.56424;stroke-linecap:butt;stroke-linejoin:miter;stroke-miterlimit:4;stroke-dasharray:none;stroke-dashoffset:0;stroke-opacity:1;color-rendering:auto;image-rendering:auto;shape-rendering:auto;text-rendering:auto;enable-background:accumulate;stop-color:#000000"
         d="m 264.93443,135.91818 c -4.67305,-0.0275 -8.12246,0.54602 -13.58301,2.31503 -4.54586,1.87197 -9.80303,4.96371 -6.32357,17.84879 l 0.44345,3.16826 -1.61667,-0.26277 c -11.88239,-1.92531 -26.58863,-0.95267 -43.32073,5.81583 4.9186,2.10841 13.94648,5.6273 23.96474,10.43823 l 3.17683,1.52658 -3.45341,0.69982 c -13.22889,2.68149 -28.92653,10.42703 -43.26425,27.33108 6.41396,-0.49858 19.52258,-2.04116 33.1943,-2.0201 7.5998,0.0126 15.08949,0.53749 21.19118,2.11943 6.10181,1.58196 11.98466,7.1123 12.80522,8.82913 0.82061,1.71682 1.07942,3.63897 -0.15203,6.1135 -1.23141,2.47453 -3.79332,4.26521 -7.06794,6.34639 -3.27461,2.08118 -7.42946,3.90001 -11.74626,5.44602 -8.63361,3.09198 -17.82226,5.06763 -21.87883,5.44447 -0.86228,0.0801 -1.20651,0.38988 -1.5388,0.99333 -0.33224,0.60335 -0.51559,1.55096 -0.54249,2.5427 -0.0361,1.32425 0.14155,2.42886 0.28741,3.17836 26.40466,2.16445 46.0406,-4.42139 60.21051,-10.04399 15.92192,-7.30037 25.98527,-21.71682 28.1699,-34.69633 1.36908,-8.13276 1.07549,-12.11845 -0.24449,-15.51295 -1.32007,-3.39448 -3.85106,-6.40871 -7.06119,-12.16493 -2.06295,-3.69911 -3.21375,-7.32843 -3.92719,-10.70873 l -0.15101,-0.71207 0.56842,-0.45535 c 5.89927,-4.72913 19.30961,-9.89261 21.05375,-13.65174 -3.57874,-3.80598 -18.36907,-4.61048 -25.28804,-3.87053 l -0.5684,0.0593 -0.4004,-0.40798 c -3.68695,-3.75584 -8.26307,-5.68114 -12.93661,-5.70891 z m 2.07202,8.78792 c 2.02866,-0.0319 3.81858,1.37425 4.30459,3.38163 0.57166,2.36403 -0.84592,4.73525 -3.16616,5.29624 -2.32024,0.56146 -4.66488,-0.89989 -5.23675,-3.26395 -0.57166,-2.36403 0.84596,-4.73528 3.1662,-5.29628 0.30529,-0.0737 0.61785,-0.11294 0.93212,-0.11783 z"
         inkscape:connector-curvature="0"
         sodipodi:nodetypes="cccccccccccszzcscsccccccsccccccccssccccs" />
      <path
         d="m 282.50588,159.95316 0.56842,-0.45534 c 5.8993,-4.72913 19.30961,-9.89262 21.0538,-13.65173 -3.5788,-3.806 -18.36913,-4.61049 -25.28808,-3.87054 l -0.5684,0.0594 c 0,0 -1.07334,10.2918 -2.29583,12.19885 -1.22242,1.90701 0.24452,4.25416 0.24452,4.25416 z"
         style="color:#000000;font-style:normal;font-variant:normal;font-weight:normal;font-stretch:normal;font-size:medium;line-height:normal;font-family:sans-serif;font-variant-ligatures:normal;font-variant-position:normal;font-variant-caps:normal;font-variant-numeric:normal;font-variant-alternates:normal;font-variant-east-asian:normal;font-feature-settings:normal;font-variation-settings:normal;text-indent:0;text-align:start;text-decoration:none;text-decoration-line:none;text-decoration-style:solid;text-decoration-color:#000000;letter-spacing:normal;word-spacing:normal;text-transform:none;writing-mode:lr-tb;direction:ltr;text-orientation:mixed;dominant-baseline:auto;baseline-shift:baseline;text-anchor:start;white-space:normal;shape-padding:0;shape-margin:0;inline-size:0;clip-rule:nonzero;display:inline;overflow:visible;visibility:visible;isolation:auto;mix-blend-mode:normal;color-interpolation:sRGB;color-interpolation-filters:linearRGB;solid-color:#000000;solid-opacity:1;fill:#565656;fill-opacity:1;fill-rule:nonzero;stroke:#000000;stroke-width:1.56424;stroke-linecap:butt;stroke-linejoin:miter;stroke-miterlimit:4;stroke-dasharray:none;stroke-dashoffset:0;stroke-opacity:1;color-rendering:auto;image-rendering:auto;shape-rendering:auto;text-rendering:auto;enable-background:accumulate;stop-color:#000000"
         id="path260955" />
      <path
         style="fill:none;stroke:#000000;stroke-width:1.56424;stroke-linecap:butt;stroke-linejoin:miter;stroke-miterlimit:4;stroke-dasharray:none;stroke-opacity:1"
         d="m 276.22034,158.48794 c 8.41292,-3.76267 17.44819,-7.74871 25.86109,-10.44859"
         id="path275254"
         sodipodi:nodetypes="cc" />
      <path
         style="fill:#2f2f2f;fill-opacity:1;stroke:#000000;stroke-width:1.56424;stroke-linecap:round;stroke-linejoin:miter;stroke-miterlimit:4;stroke-dasharray:none;stroke-opacity:1;paint-order:normal"
         d="m 285.63976,182.13496 c 1.37485,1.33743 -0.0666,10.69819 -1.39263,12.88378 -1.99696,3.29225 -4.45042,3.33537 -5.11434,2.81529 0.24695,-1.99143 -0.25029,-3.53122 -0.2716,-5.46039 -0.057,-5.07059 -0.12424,-6.88788 1.20113,-10.15558"
         id="path42698-6"
         sodipodi:nodetypes="cscsc" />
      <path
         style="fill:#2f2f2f;fill-opacity:1;stroke:#000000;stroke-width:1.56424;stroke-linecap:round;stroke-linejoin:miter;stroke-miterlimit:4;stroke-dasharray:none;stroke-opacity:1;paint-order:normal"
         d="m 290.80368,184.51671 c 1.37487,1.33746 -0.067,10.69823 -1.39267,12.88383 -1.99692,3.29225 -4.45037,3.33535 -5.1143,2.81531 0.24725,-1.99145 -0.2503,-3.53125 -0.27162,-5.46043 -0.057,-5.07059 -0.12424,-6.88787 1.20111,-10.15559"
         id="path42698-6-7"
         sodipodi:nodetypes="cscsc" />
      <path
         style="fill:#2f2f2f;fill-opacity:1;stroke:#000000;stroke-width:1.56424;stroke-linecap:round;stroke-linejoin:miter;stroke-miterlimit:4;stroke-dasharray:none;stroke-opacity:1;paint-order:normal"
         d="m 283.06944,179.66941 c 1.37488,1.33747 -1.15718,7.07328 -2.48284,9.25887 -1.99695,3.29228 -4.45044,3.33533 -5.11431,2.81529 0.24693,-1.99145 -0.0783,-3.54082 -0.27192,-5.46043 -0.17113,-1.70407 -0.39837,-3.879 0.39695,-6.84771"
         id="path42698"
         sodipodi:nodetypes="cscsc" />
      <path
         style="fill:#2f2f2f;fill-opacity:1;stroke:#000000;stroke-width:1.56424;stroke-linecap:round;stroke-linejoin:miter;stroke-miterlimit:4;stroke-dasharray:none;stroke-opacity:1;paint-order:normal"
         d="m 248.62177,142.4391 c -2.30346,-1.81108 -5.7595,-1.17958 -6.66992,-1.02602 -1.29318,0.21832 -4.58178,1.26946 -4.44751,1.97853 1.52556,0.54998 2.35728,1.94974 3.69123,2.77117 1.25658,0.77392 3.98539,1.01522 5.50975,1.29761"
         id="path42698-7-5-5-7-4"
         sodipodi:nodetypes="cscsc" />
      <path
         style="fill:#2f2f2f;fill-opacity:1;stroke:#000000;stroke-width:1.56424;stroke-linecap:round;stroke-linejoin:miter;stroke-miterlimit:4;stroke-dasharray:none;stroke-opacity:1;paint-order:normal"
         d="m 246.99422,146.67945 c -2.85417,0.66297 -4.52476,3.7536 -4.97482,4.55977 -0.6392,1.14513 -1.87766,4.3679 -1.24057,4.70701 1.91957,-0.87946 2.25521,0.56907 5.30134,-1.5235"
         id="path42698-7-5-5-7-4-1"
         sodipodi:nodetypes="cscc" />
      <path
         style="fill:#2f2f2f;fill-opacity:1;stroke:#000000;stroke-width:1.56424;stroke-linecap:round;stroke-linejoin:miter;stroke-miterlimit:4;stroke-dasharray:none;stroke-opacity:1;paint-order:normal"
         d="m 247.69371,143.69127 c -2.74743,-0.1078 -5.02578,2.27479 -5.63311,2.89254 -0.86259,0.87764 -2.78248,3.48725 -2.29004,3.95211 1.46196,-0.42205 2.86468,0.18361 4.3305,0.0734 1.38089,-0.10379 3.58723,-1.42299 4.90092,-2.04773"
         id="path42698-7-5-5"
         sodipodi:nodetypes="cscsc" />
      <path
         style="fill:#2f2f2f;fill-opacity:1;stroke:#000000;stroke-width:1.56424;stroke-linecap:round;stroke-linejoin:miter;stroke-miterlimit:4;stroke-dasharray:none;stroke-opacity:1;paint-order:normal"
         d="m 251.43892,138.67065 c -2.30346,-1.81107 -6.51988,-0.78188 -7.43029,-0.62832 -1.29318,0.21831 -4.58179,1.26944 -4.4475,1.97855 1.52552,0.54994 2.35727,1.9497 3.69119,2.77113 1.25657,0.77393 3.98546,1.0152 5.50976,1.2976"
         id="path42698-7-5-5-7"
         sodipodi:nodetypes="cscsc" />
      <path
         style="fill:#2f2f2f;fill-opacity:1;stroke:#000000;stroke-width:1.56424;stroke-linecap:round;stroke-linejoin:miter;stroke-miterlimit:4;stroke-dasharray:none;stroke-opacity:1;paint-order:normal"
         d="m 245.37471,230.86175 c -0.3829,3.71708 -36.25021,10.85316 -41.67208,8.40902 -4.46421,-2.01233 -6.77749,-3.0357 -6.37666,-4.03055 2.52029,-0.40096 14.25138,0.13036 16.6006,-0.5779 6.17451,-1.86048 25.19889,-9.23561 28.88372,-9.23557"
         id="path42698-7-5"
         sodipodi:nodetypes="cscsc" />
      <path
         style="fill:#2f2f2f;fill-opacity:1;stroke:#000000;stroke-width:1.56424;stroke-linecap:round;stroke-linejoin:miter;stroke-miterlimit:4;stroke-dasharray:none;stroke-opacity:1;paint-order:normal"
         d="m 292.60953,182.86289 c 1.78534,0.70106 4.07913,9.89026 3.70257,12.41865 -0.56704,3.80862 -2.8126,4.79791 -3.62608,4.57543 -0.54279,-1.93195 -1.59737,-3.15924 -2.36399,-4.9297 -2.01489,-4.65337 -2.78046,-6.30293 -2.82321,-9.82891"
         id="path42698-6-7-9"
         sodipodi:nodetypes="cscsc" />
      <path
         style="fill:#2f2f2f;fill-opacity:1;stroke:#000000;stroke-width:1.56424;stroke-linecap:round;stroke-linejoin:miter;stroke-miterlimit:4;stroke-dasharray:none;stroke-opacity:1;paint-order:normal"
         d="m 290.80635,180.03165 c 1.76675,0.74673 3.82323,9.99189 3.38193,12.50976 -0.66481,3.79273 -2.93505,4.72402 -3.7425,4.4806 -0.49315,-1.94517 -1.5156,-3.19927 -2.23654,-4.98881 -1.8947,-4.70361 -2.61752,-6.37232 -2.56948,-9.89824"
         id="path42698-6-2"
         sodipodi:nodetypes="cscsc" />
      <path
         style="fill:#2f2f2f;fill-opacity:1;stroke:#000000;stroke-width:1.56424;stroke-linecap:round;stroke-linejoin:miter;stroke-miterlimit:4;stroke-dasharray:none;stroke-opacity:1;paint-order:normal"
         d="m 287.40278,171.83832 c 1.89435,-0.30084 8.53042,6.45661 9.48794,8.82669 1.4423,3.57027 0.009,5.56156 -0.8056,5.78218 -1.44749,-1.38982 -2.97856,-1.91315 -4.53714,-3.05033 -4.09614,-2.9892 -5.59237,-4.02285 -7.41687,-7.04044"
         id="path42698-9"
         sodipodi:nodetypes="cscsc" />
      <path
         style="fill:#2f2f2f;fill-opacity:1;stroke:#000000;stroke-width:1.56424;stroke-linecap:round;stroke-linejoin:miter;stroke-miterlimit:4;stroke-dasharray:none;stroke-opacity:1;paint-order:normal"
         d="m 285.12937,173.9058 c 2.31402,0.77153 4.09446,9.17159 3.78464,12.40762 -0.46672,4.87455 -3.50012,7.2083 -4.548,6.97981 -0.81816,-2.41725 -3.20261,-4.5225 -3.02108,-6.96934 0.4102,-5.52809 -0.35489,-4.48188 -0.89104,-9.39004"
         id="path42698-7"
         sodipodi:nodetypes="cscsc" />
    </g>
  </g>
</svg>
