<?xml version="1.0" encoding="UTF-8" standalone="no"?>
<!-- Created with Inkscape (http://www.inkscape.org/) -->

<svg
   width="139.45599mm"
   height="140.02878mm"
   viewBox="0 0 139.45599 140.02878"
   version="1.1"
   id="svg1"
   inkscape:version="1.3.2 (091e20e, 2023-11-25)"
   sodipodi:docname="drawing.svg"
   inkscape:export-filename="drawing2.svg"
   inkscape:export-xdpi="64.8"
   inkscape:export-ydpi="64.8"
   xmlns:inkscape="http://www.inkscape.org/namespaces/inkscape"
   xmlns:sodipodi="http://sodipodi.sourceforge.net/DTD/sodipodi-0.dtd"
   xmlns="http://www.w3.org/2000/svg"
   xmlns:svg="http://www.w3.org/2000/svg">
  <sodipodi:namedview
     id="namedview1"
     pagecolor="#ffffff"
     bordercolor="#666666"
     borderopacity="1.0"
     inkscape:showpageshadow="2"
     inkscape:pageopacity="0.0"
     inkscape:pagecheckerboard="0"
     inkscape:deskcolor="#d1d1d1"
     inkscape:document-units="mm"
     inkscape:zoom="0.84144378"
     inkscape:cx="8.9132514"
     inkscape:cy="319.0944"
     inkscape:window-width="1336"
     inkscape:window-height="734"
     inkscape:window-x="0"
     inkscape:window-y="44"
     inkscape:window-maximized="0"
     inkscape:current-layer="layer1" />
  <defs
     id="defs1" />
  <g
     inkscape:label="Layer 1"
     inkscape:groupmode="layer"
     id="layer1">
    <path
       d="M 135.15441,93.490689 82.111262,110.95774 c -1.15382,2.34699 -3.70453,5.45891 -7.10236,7.59593 -3.81647,2.40033 -8.65884,4.49635 -13.69,6.27939 -10.06225,3.56616 -20.77147,5.84651 -25.49932,6.28117 -1.00494,0.0924 -1.40613,0.44957 -1.79339,1.14553 -0.38726,0.6959 -0.60087,1.78881 -0.63222,2.93264 -0.042,1.52729 0.19644,2.32274 0.63222,2.92734 0.43575,0.60457 1.11702,0.84651 1.81834,0.89354 29.70954,1.98982 51.92433,-5.40404 68.058138,-11.7393 16.00889,-7.26389 26.91825,-20.63651 31.25174,-33.783291 z"
       style="baseline-shift:baseline;display:inline;overflow:visible;fill:#000000;fill-opacity:1;stroke:#000000;stroke-width:1.37133;stroke-dasharray:none;enable-background:accumulate;stop-color:#000000"
       id="path45" />
    <path
       d="m 136.9959,70.984949 -68.695748,22.96925 c 0.0651,0.0172 0.13476,0.0306 0.19954,0.0457 2.59346,0.665366 5.09192,1.646076 7.27509,2.768686 L 137.76712,76.354809 c -0.052,-2.09967 -0.32395,-3.8189 -0.77115,-5.37 z"
       style="baseline-shift:baseline;display:inline;overflow:visible;fill:#ffffff;stroke:#000000;stroke-width:1.37133;enable-background:accumulate;stop-color:#000000"
       id="path86" />
    <path
       d="m 50.286072,57.245359 29.93383,-10.00864 v -2.96786 l -33.71474,11.27227 c 1.22554,0.53671 2.50447,1.128 3.78091,1.70423 z"
       style="stroke:#000000;stroke-width:1.37133;stroke-dasharray:none;stroke-opacity:0.974093"
       id="path81" />
    <path
       d="M 129.4964,57.476209 25.547212,92.232339 c 5.7218,-0.37682 11.85922,-0.68648 18.25449,-0.67673 6.59889,0.0103 13.12275,0.35274 18.96334,1.27949 l 73.235328,-24.48669 c -1.41033,-3.06199 -3.69882,-6.17602 -6.50397,-10.8722 z"
       style="baseline-shift:baseline;display:inline;overflow:visible;fill:#ffffff;stroke:#000000;stroke-width:1.37133;enable-background:accumulate;stop-color:#000000"
       id="path84" />
    <path
       d="m 102.98729,14.440398 v 0.0017 c -5.446288,-0.03062 -11.031338,2.118697 -15.830668,6.730595 -6.03203,5.796306 -8.05167,11.052336 -7.24838,17.454716 0.0634,-0.2169 0.0951,-0.40649 0.16577,-0.62919 0,0 0.81147,1.16555 4.57163,5.56918 3.7602,4.40362 32.958658,5.46887 36.582068,5.22195 3.30929,-0.22542 -2.64504,-4.51149 -1.40695,-6.26528 0.70125,-0.99333 2.89248,-0.93821 4.21724,-0.81424 l 0.091,-0.0723 c 6.87548,-5.45431 12.47469,-11.40962 14.50743,-15.7452 -4.1709,-4.38971 -11.3785,-5.317485 -19.44237,-4.46413 l -0.66252,0.0668 -0.4666,-0.470537 c -4.29702,-4.3318 -9.63043,-6.552264 -15.07736,-6.584287 z m 2.41495,10.137251 c 2.36437,-0.0368 4.45046,1.58503 5.01689,3.90017 0.66627,2.72654 -0.98589,5.46147 -3.6901,6.10847 -2.70415,0.6475 -5.4368,-1.03964 -6.10324,-3.76625 -0.666278,-2.72651 0.98585,-5.4597 3.69005,-6.10669 0.3558,-0.0849 0.72013,-0.13028 1.0864,-0.13575 z"
       style="baseline-shift:baseline;display:inline;overflow:visible;fill:#cfa894;fill-opacity:1;stroke:#000000;stroke-width:1.37133;enable-background:accumulate;stop-color:#000000"
       id="path98" />
    <path
       d="m 125.51605,55.837189 -0.0676,-0.0863 -7.3873,-2.08842 -15.00613,-1.08035 -84.955608,28.40623 c -4.38171,3.66973 -8.7346701,7.93854 -12.9847602,12.89718 2.0561301,-0.15825 5.8077602,-0.48711 8.8957502,-0.7649 z"
       style="baseline-shift:baseline;display:inline;overflow:visible;fill:#ffffff;stroke:#000000;stroke-width:1.37133;enable-background:accumulate;stop-color:#000000"
       id="path96" />
    <path
       d="m 96.000702,51.972279 -16.27945,-1.79058 c 0,0 -0.42086,-0.90073 -0.6732,-2.55373 l -28.76198,9.61739 c 1.83947,0.83041 3.65642,1.63875 5.5743,2.55019 l 3.70253,1.7606 -4.02487,0.80719 c -9.43726,1.89303 -19.95339,5.9906 -30.52335,13.34305 z"
       style="baseline-shift:baseline;display:inline;overflow:visible;fill:#ffffff;stroke:#000000;stroke-width:1.37133;enable-background:accumulate;stop-color:#000000"
       id="path95" />
    <path
       d="m 78.891352,44.712999 c 0.0275,-1.03773 0.13612,-2.20618 0.38643,-3.52657 l -0.85841,-0.13743 c -13.84863,-2.22056 -30.98849,-1.09887 -50.48928,6.70769 4.13746,1.75504 10.8145,4.38578 18.57507,7.78449 z"
       style="baseline-shift:baseline;display:inline;overflow:visible;fill:#ffffff;stroke:#000000;stroke-width:1.37133;enable-background:accumulate;stop-color:#000000"
       id="path94" />
    <path
       id="rect1"
       style="fill:#767676;fill-opacity:1;stroke:#000000;stroke-width:1.37133;stroke-dasharray:none;stroke-opacity:1"
       d="m 7.7966219,49.956889 c -0.0744,2.51591 0.49272,4.32439 2.3390101,5.74003 0.25124,0.19268 1.87986,2.06076 2.15901,2.21883 0.29121,-1.86162 -2.7337501,-4.34987 -2.6775301,-6.29382 0.12854,-4.00208 3.1726301,-7.34189 6.7992201,-7.45965 2.3724,-0.0692 3.65391,0.38569 4.73718,2.63429 0.33981,1.22517 0.35714,2.47178 2.1119,2.60646 l 1.40085,-0.0494 -7.6e-4,0.007 3.31563,-0.10744 c 0.33256,1.96094 1.8822,3.31751 3.72825,3.26386 0.3835,-0.0138 0.76687,-0.0873 1.13796,-0.2203 l 6.32178,-0.2053 0.26571,-8.26107 -6.32178,0.20531 c -0.36327,-0.10912 -0.74271,-0.15859 -1.12618,-0.147 -1.87965,0.0665 -3.54118,1.57552 -3.96918,3.60579 l -3.06677,0.13643 -1.15727,0.0576 c -0.94918,-0.17768 -1.0254,-0.75238 -1.20085,-1.24055 -1.39156,-3.8721 -3.8291,-4.75711 -6.99942,-4.65494 -4.16527,0.13506 -7.6560001,3.78982 -7.7968501,8.16316 z"
       sodipodi:nodetypes="cscccccccccccccccccsccc" />
    <rect
       style="fill:#edd010;fill-opacity:0.974093;stroke:#000000;stroke-width:1.37134;stroke-dasharray:none;stroke-opacity:1"
       id="rect2"
       width="14.025257"
       height="4.716877"
       x="-19.371613"
       y="104.11639"
       transform="matrix(0.96300617,-0.26947934,0.2747518,0.96151518,0,0)" />
    <ellipse
       style="fill:#3aafc3;fill-opacity:1;stroke:#000000;stroke-width:1.37134;stroke-dasharray:none;stroke-opacity:1"
       id="path4"
       cx="-12.360749"
       cy="70.371918"
       rx="6.9364638"
       ry="3.1475754"
       transform="matrix(0.96300617,-0.26947934,0.2747518,0.96151518,0,0)" />
    <rect
       style="fill:#edd010;fill-opacity:0.974093;stroke:#000000;stroke-width:1.37134;stroke-dasharray:none;stroke-opacity:1"
       id="rect3-2-8"
       width="13.618155"
       height="10.711236"
       x="-19.243874"
       y="70.538803"
       transform="matrix(0.96300617,-0.26947934,0.2747518,0.96151518,0,0)" />
    <path
       style="fill:#000000;fill-opacity:1;stroke:#000000;stroke-width:1.37133;stroke-linecap:butt;stroke-linejoin:miter;stroke-dasharray:none;stroke-opacity:0.974093"
       d="m 79.731002,30.101529 c -22.60581,2.44276 -13.67173,1.74781 -22.70706,2.45961 29.81431,-28.5398261 0.42535,-0.24112 29.88665,-28.5028561 -4.21911,19.8837561 22.261628,1.9339909 6.35423,-2.505923 C 132.35601,0.80493088 93.584982,1.4077749 132.34325,0.71472588 116.24762,17.742963 115.80856,17.736857 115.80856,17.736857 c 0,0 -14.81581,-3.668163 -20.948238,-1.258861 -6.1318,2.41084 -11.44743,4.982683 -15.12932,13.623393 z"
       id="path37"
       sodipodi:nodetypes="cccccczc" />
    <path
       d="M 137.76706,76.354959 75.774712,96.768725 c 3.80327,1.95575 6.63066,4.346155 7.20919,6.290005 0.91065,3.05963 0.39495,4.67202 -0.50223,7.0654 -0.0986,0.26261 -0.22815,0.54444 -0.37041,0.83361 L 135.15441,93.490689 c 0.68967,-2.0922 1.23012,-4.17833 1.57968,-6.23356 0.78952,-4.64113 1.10244,-8.1062 1.03297,-10.90217 z"
       style="fill:#f60000;stroke:#000000;stroke-width:1.37133;stroke-opacity:0.974093"
       id="path44" />
    <path
       d="m 136.00037,68.348409 -73.235328,24.48669 c 1.92759,0.30593 3.77936,0.67592 5.53511,1.1191 L 136.9959,70.984949 c -0.16094,-0.55778 -0.34118,-1.09649 -0.54675,-1.61962 -0.13441,-0.34235 -0.29293,-0.67891 -0.44878,-1.01692 z"
       style="stroke:#000000;stroke-width:1.37133;stroke-dasharray:none;stroke-opacity:0.974093"
       id="path85" />
    <path
       d="M 128.04495,54.991269 14.010352,93.120589 c 3.63282,-0.3267 6.92381,-0.58441 11.53686,-0.88825 L 129.4964,57.476209 c -0.42676,-0.71445 -0.82609,-1.34128 -1.27693,-2.1413 -0.0648,-0.11528 -0.11097,-0.22849 -0.17438,-0.34363 z"
       style="stroke:#000000;stroke-width:1.37133;stroke-dasharray:none;stroke-opacity:0.974093"
       id="path83" />
    <path
       d="m 18.099362,80.988309 87.085588,-29.11824 h -8.879698 l -71.29057,23.83632 c -2.30643,1.60438 -4.61432,3.35478 -6.91532,5.28192 z"
       style="stroke:#000000;stroke-width:1.37133;stroke-dasharray:none;stroke-opacity:0.974093"
       id="path82" />
    <rect
       style="fill:#edd010;fill-opacity:0.974093;stroke:#000000;stroke-width:1.37134;stroke-dasharray:none;stroke-opacity:1"
       id="rect3"
       width="5.1000938"
       height="11.497388"
       x="-14.915436"
       y="92.645538"
       transform="matrix(0.96300617,-0.26947934,0.2747518,0.96151518,0,0)" />
    <rect
       style="fill:#edd010;fill-opacity:0.974093;stroke:#000000;stroke-width:1.37134;stroke-dasharray:none;stroke-opacity:1"
       id="rect3-2"
       width="8.5173883"
       height="11.095253"
       x="-16.689651"
       y="81.532974"
       transform="matrix(0.96300617,-0.26947934,0.2747518,0.96151518,0,0)" />
    <path
       style="fill:none;stroke:#000000;stroke-width:0.514249;stroke-linecap:butt;stroke-linejoin:miter;stroke-dasharray:none;stroke-opacity:1"
       d="m 95.106252,26.099519 c -2.62112,4.86345 -2.62112,10.08712 -2.62112,10.08712"
       id="path88" />
    <path
       style="fill:none;stroke:#000000;stroke-width:0.342832;stroke-linecap:butt;stroke-linejoin:miter;stroke-dasharray:none;stroke-opacity:1"
       d="m 92.266702,27.036199 c 1.71102,-0.32433 3.53123,1.62115 3.53123,1.62115"
       id="path89"
       sodipodi:nodetypes="cc" />
    <path
       style="fill:none;stroke:#000000;stroke-width:0.342832;stroke-linecap:butt;stroke-linejoin:miter;stroke-dasharray:none;stroke-opacity:1"
       d="m 91.629142,29.017349 c 1.71101,-0.32433 3.53122,1.62116 3.53122,1.62116"
       id="path89-5"
       sodipodi:nodetypes="cc" />
    <path
       style="fill:none;stroke:#000000;stroke-width:0.342832;stroke-linecap:butt;stroke-linejoin:miter;stroke-dasharray:none;stroke-opacity:1"
       d="m 91.048402,31.146209 c 1.71102,-0.32432 3.53121,1.62115 3.53121,1.62115"
       id="path89-56"
       sodipodi:nodetypes="cc" />
    <path
       style="fill:none;stroke:#000000;stroke-width:0.342832;stroke-linecap:butt;stroke-linejoin:miter;stroke-dasharray:none;stroke-opacity:1"
       d="m 90.720762,33.275149 c 1.71102,-0.32433 3.53122,1.62115 3.53122,1.62115"
       id="path89-1"
       sodipodi:nodetypes="cc" />
    <path
       id="path99"
       style="fill:#ffc444;fill-opacity:1;stroke:#000000;stroke-width:1.37133;stroke-dasharray:none"
       d="m 80.073872,37.998259 c -0.0707,0.22271 -0.10235,0.41229 -0.16576,0.62919 0.0362,0.28817 0.0451,0.56542 0.0927,0.85827 l -0.72308,1.70065 c -0.25054,1.32039 -0.36058,2.48883 -0.38646,3.52656 l 0.1568,2.91497 c 0.25227,1.65301 0.6732,2.55373 0.6732,2.55373 l 16.27946,1.79059 7.054278,0.60978 15.00609,1.08036 7.38729,2.08841 0.0676,0.0863 5.9109,7.57123 -0.70346,-6.96144 1.75955,1.04335 -3.51734,-5.91636 h 4.22083 l -3.51734,-2.4374 1.40692,-3.13177 -1.75954,-1.0451 -3.16471,-1.73945 3.86816,-1.39232 h -4.92428 c 0,0 -0.46301,-0.0624 -1.05788,-0.11799 -1.32476,-0.12381 -3.516,-0.17905 -4.21725,0.81424 -1.23808,1.75375 4.71621,6.03968 1.40696,6.26528 -3.62341,0.24693 -32.821878,-0.81833 -36.582068,-5.22196 -3.76016,-4.40362 -4.57163,-5.56917 -4.57163,-5.56917 z"
       sodipodi:nodetypes="cccccccccccccccccccccccsscscc" />
  </g>
</svg>
