<?xml version="1.0" encoding="UTF-8" standalone="no"?>
<!-- Created with Inkscape (http://www.inkscape.org/) -->

<svg
   width="141.90121mm"
   height="136.02403mm"
   viewBox="0 0 141.90121 136.02403"
   version="1.1"
   id="svg1"
   inkscape:version="1.3.2 (091e20e, 2023-11-25)"
   sodipodi:docname="bevy-dwarf.svg"
   xmlns:inkscape="http://www.inkscape.org/namespaces/inkscape"
   xmlns:sodipodi="http://sodipodi.sourceforge.net/DTD/sodipodi-0.dtd"
   xmlns="http://www.w3.org/2000/svg"
   xmlns:svg="http://www.w3.org/2000/svg">
  <sodipodi:namedview
     id="namedview1"
     pagecolor="#ffffff"
     bordercolor="#666666"
     borderopacity="1.0"
     inkscape:showpageshadow="2"
     inkscape:pageopacity="0.0"
     inkscape:pagecheckerboard="0"
     inkscape:deskcolor="#d1d1d1"
     inkscape:document-units="mm"
     inkscape:zoom="0.2102413"
     inkscape:cx="268.73882"
     inkscape:cy="256.84772"
     inkscape:window-width="1312"
     inkscape:window-height="449"
     inkscape:window-x="0"
     inkscape:window-y="44"
     inkscape:window-maximized="0"
     inkscape:current-layer="layer1" />
  <defs
     id="defs1" />
  <g
     inkscape:label="Layer 1"
     inkscape:groupmode="layer"
     id="layer1"
     transform="translate(-34.131238,-80.433331)">
    <g
       id="g1491"
       transform="matrix(1.1656229,0,0,1.1656229,-350.08532,-69.115509)">
      <rect
         style="fill:#413027;fill-opacity:1;stroke:#000000;stroke-width:2.74705;stroke-linecap:round;stroke-miterlimit:4;stroke-dasharray:none;paint-order:stroke fill markers;stop-color:#000000"
         id="rect22818"
         width="5.0889969"
         height="67.443367"
         x="-172.3806"
         y="-397.86179"
         ry="2.5344977"
         transform="rotate(143.10812)" />
      <path
         style="fill:#69523d;fill-opacity:1;stroke:#000000;stroke-width:1.56424;stroke-linecap:butt;stroke-linejoin:miter;stroke-miterlimit:4;stroke-dasharray:none;stroke-opacity:1"
         d="m 433.15503,152.01071 7.88341,0.34575 c 0.35733,-0.67899 5.94922,5.44517 5.11722,6.56946 -0.27647,0.069 -1.93627,0.41492 -1.93627,0.41492 1.33817,0.96675 2.39609,2.2604 3.18103,3.87254 -1.32507,0.26551 -3.06703,0.11407 -3.45763,1.31392 2.80029,1.27429 3.80283,3.79316 5.53222,5.8088 l -13.48476,3.04272 z"
         id="path8190"
         sodipodi:nodetypes="ccccccccc" />
      <path
         style="fill:#69523d;fill-opacity:1;stroke:#000000;stroke-width:1.56424;stroke-linecap:butt;stroke-linejoin:miter;stroke-miterlimit:4;stroke-dasharray:none;stroke-opacity:1"
         d="m 438.23947,152.14456 c 1.24748,0.0545 1.99026,0.13798 3.03628,1.40195 1.04534,1.26434 1.5592,4.1005 1.57342,6.30534 0.0152,2.2049 -1.72307,4.75967 -1.54536,6.55098 0.17782,1.79128 1.48425,3.64771 1.6946,3.70018 0.2104,0.0523 2.3069,1.07138 3.66464,0.31536 1.35782,-0.756 1.17297,-4.99184 2.55152,-5.03673 1.37862,-0.0451 1.42458,2.02581 1.33847,2.26349 -0.0865,0.23782 -0.62043,4.33581 -2.38522,5.51601 -1.76481,1.18009 -4.83302,1.04225 -6.72767,0.10905 -1.89456,-0.93335 -2.6835,-2.75279 -3.54525,-4.77044 -0.86179,-2.01754 -0.44335,-5.16261 -1.20871,-7.11801 -0.76535,-1.95546 -2.64673,-3.07511 -2.93868,-4.50559 -0.29232,-1.43042 -0.21985,-2.36918 0.58887,-3.32845 0.8087,-0.95921 2.65567,-1.45764 3.90309,-1.40305 z"
         id="path3237-9"
         sodipodi:nodetypes="zzzzzzzzzzzzzzz" />
      <path
         id="path3031-2-8-5"
         style="color:#000000;font-style:normal;font-variant:normal;font-weight:normal;font-stretch:normal;font-size:medium;line-height:normal;font-family:sans-serif;font-variant-ligatures:normal;font-variant-position:normal;font-variant-caps:normal;font-variant-numeric:normal;font-variant-alternates:normal;font-variant-east-asian:normal;font-feature-settings:normal;font-variation-settings:normal;text-indent:0;text-align:start;text-decoration:none;text-decoration-line:none;text-decoration-style:solid;text-decoration-color:#000000;letter-spacing:normal;word-spacing:normal;text-transform:none;writing-mode:lr-tb;direction:ltr;text-orientation:mixed;dominant-baseline:auto;baseline-shift:baseline;text-anchor:start;white-space:normal;shape-padding:0;shape-margin:0;inline-size:0;clip-rule:nonzero;display:inline;overflow:visible;visibility:visible;isolation:auto;mix-blend-mode:normal;color-interpolation:sRGB;color-interpolation-filters:linearRGB;solid-color:#000000;solid-opacity:1;fill:#f6ddc7;fill-opacity:1;fill-rule:nonzero;stroke:#000000;stroke-width:1.56424;stroke-linecap:butt;stroke-linejoin:miter;stroke-miterlimit:4;stroke-dasharray:none;stroke-dashoffset:0;stroke-opacity:1;color-rendering:auto;image-rendering:auto;shape-rendering:auto;text-rendering:auto;enable-background:accumulate;stop-color:#000000"
         d="m 415.41022,135.91818 c -4.67305,-0.0275 -9.46508,1.83701 -13.58295,5.83569 -5.40848,5.25185 -7.08847,9.97957 -6.13982,15.87814 l 0.25973,1.61825 -1.61671,-0.26277 c -11.88242,-1.92531 -26.58862,-0.95267 -43.32075,5.81583 4.91861,2.10841 13.94649,5.6273 23.96475,10.43823 l 3.17684,1.52658 -3.45338,0.69982 c -13.22891,2.68149 -28.92657,10.42703 -43.26425,27.33108 6.41394,-0.49858 19.52253,-2.04116 33.19427,-2.0201 7.59978,0.0126 15.08949,0.53749 21.19122,2.11943 6.10176,1.58196 10.97338,4.2524 12.80519,8.82913 l 0.12549,0.31326 -0.0594,0.33159 c -0.30084,1.70796 -0.59557,3.24627 -0.87406,4.50627 -0.63864,2.89028 -3.13718,5.22759 -6.41176,7.30877 -3.27459,2.08118 -7.42947,3.90001 -11.74627,5.44602 -8.63363,3.09198 -17.82224,5.06763 -21.87883,5.44447 -0.86228,0.0801 -1.2065,0.38988 -1.5388,0.99333 -0.33224,0.60335 -0.51557,1.55096 -0.54248,2.5427 -0.0363,1.32425 0.14155,2.42886 0.28743,3.17836 26.40465,2.16445 46.04061,-4.42139 60.2105,-10.04399 15.92187,-7.30037 25.98521,-21.71682 28.16993,-34.69633 1.36903,-8.13276 1.07544,-12.11845 -0.24452,-15.51295 -1.32007,-3.39448 -3.85104,-6.40871 -7.0612,-12.16493 -2.06296,-3.69911 -3.21372,-7.32843 -3.92717,-10.70873 l -0.15105,-0.71207 0.56843,-0.45535 c 5.8993,-4.72913 10.70351,-9.89261 12.44766,-13.65174 -3.57875,-3.80598 -9.76299,-4.61048 -16.68195,-3.87053 l -0.56839,0.0593 -0.40042,-0.40798 c -3.68693,-3.75584 -8.26302,-5.68114 -12.93658,-5.70891 z m 2.07202,8.78792 a 4.4037342,4.3221833 76.402924 0 1 4.3046,3.38163 4.4037342,4.3221833 76.402924 0 1 -3.16619,5.29624 4.4037342,4.3221833 76.402924 0 1 -5.23672,-3.26395 4.4037342,4.3221833 76.402924 0 1 3.16623,-5.29628 4.4037342,4.3221833 76.402924 0 1 0.93208,-0.11783 z" />
      <path
         style="fill:#c9b5a2;fill-opacity:1;stroke:#000000;stroke-width:1.56424;stroke-linecap:butt;stroke-linejoin:miter;stroke-miterlimit:4;stroke-dasharray:none;stroke-opacity:1"
         d="m 376.35118,162.92692 c 4.24317,10.64613 -1.59282,11.37562 -1.62912,11.38015 l 15.49147,4.26665 -20.42835,0.59218 c 6.7388,7.64779 7.45428,15.88609 0.89552,24.83758 9.62196,0.93186 18.23861,-0.85076 25.72472,10.23457 0.42281,6.31494 -1.74548,7.89286 -3.59592,9.68134 3.68435,5.73449 9.31866,10.16902 16.31998,13.69217 21.08903,-5.82476 26.75153,-18.61639 37.34232,-29.18233 0,0 -8.85149,-46.19383 -9.81963,-45.77893 -0.96817,0.41491 -49.78978,-4.42579 -49.78978,-4.42579 z"
         id="path11209"
         sodipodi:nodetypes="cccccccccscc" />
      <path
         style="fill:#413027;fill-opacity:1;stroke:#000000;stroke-width:1.56424;stroke-linecap:butt;stroke-linejoin:miter;stroke-miterlimit:4;stroke-dasharray:none;stroke-opacity:1"
         d="m 414.67742,201.31093 c -8.75722,4.45452 -12.20637,5.46541 -21.76915,8.61992 l 2.64459,2.74236 c 7.87619,-2.44168 10.84147,-3.24622 18.39847,-6.83279 z"
         id="path17558"
         sodipodi:nodetypes="ccccc" />
      <path
         style="fill:#bbbbbb;fill-opacity:1;stroke:#000000;stroke-width:1.56424;stroke-linecap:butt;stroke-linejoin:miter;stroke-miterlimit:4;stroke-dasharray:none;stroke-opacity:1"
         d="m 360.65717,179.10351 6.84574,7.04136 19.47218,-0.19548 5.15358,-5.67191 -13.28835,-6.76922 z"
         id="path1697"
         sodipodi:nodetypes="cccccc" />
      <path
         style="fill:#bbbbbb;fill-opacity:1;stroke:#000000;stroke-width:1.56424;stroke-linecap:butt;stroke-linejoin:miter;stroke-miterlimit:4;stroke-dasharray:none;stroke-opacity:1"
         d="m 368.96972,174.36443 c 4.80318,0.62314 9.95795,8.9898 9.95795,8.9898 l 21.09154,-0.35757 8.43658,-7.04175 -10.1732,-7.08304 -16.99594,1.28829 z"
         id="path977"
         sodipodi:nodetypes="ccccccc" />
      <path
         style="fill:#bbbbbb;fill-opacity:1;stroke:#000000;stroke-width:1.56424;stroke-linecap:butt;stroke-linejoin:miter;stroke-miterlimit:4;stroke-dasharray:none;stroke-opacity:1"
         d="m 369.80097,157.6606 2.6847,5.21759 c 31.12859,-3.81409 21.99775,-0.75461 23.118,0.55466 l -6.93925,-8.24313 z"
         id="path1697-1"
         sodipodi:nodetypes="ccccc" />
      <path
         style="fill:#bbbbbb;fill-opacity:1;stroke:#000000;stroke-width:1.56424;stroke-linecap:butt;stroke-linejoin:miter;stroke-miterlimit:4;stroke-dasharray:none;stroke-opacity:1"
         d="m 376.51293,154.6063 c 4.63091,1.41877 8.28344,8.63193 8.28344,8.63193 13.74215,-1.60234 17.56869,1.6191 21.94993,4.57072 l 1.35122,-4.69876 -3.81911,-6.38873 -17.26883,-3.20771 z"
         id="path977-5"
         sodipodi:nodetypes="ccccccc" />
      <path
         style="fill:#bbbbbb;fill-opacity:1;stroke:#000000;stroke-width:1.56424;stroke-linecap:butt;stroke-linejoin:miter;stroke-miterlimit:4;stroke-dasharray:none;stroke-opacity:1"
         d="m 407.16267,168.60983 15.06061,1.56477 -0.39116,-11.53996 -14.27827,-2.7383 -1.56477,-11.93118 14.27831,-3.32507 8.48008,1.39488 1.52133,-0.10378 -0.2567,-1.6963 -5.94464,-9.57006 -9.77964,-1.56474 -13.69148,4.10744 -7.82372,9.58404 0.97795,20.42549 z"
         id="path1662"
         sodipodi:nodetypes="ccccccccccccccc" />
      <path
         style="fill:#bbbbbb;fill-opacity:1;stroke:#000000;stroke-width:1.56424;stroke-linecap:butt;stroke-linejoin:miter;stroke-miterlimit:4;stroke-dasharray:none;stroke-opacity:1"
         d="m 421.22855,187.69036 -8.48192,6.20021 2.9681,6.9363 -5.50246,13.51536 23.17,12.1771 4.68797,-11.23807 c 0,0 -6.23807,-30.30272 -6.67844,-29.90134 -0.44024,0.40124 4.59845,-12.0011 -10.16325,2.31044 z"
         id="path2028-6"
         sodipodi:nodetypes="ccccccsc" />
      <path
         style="fill:#bbbbbb;fill-opacity:1;stroke:#000000;stroke-width:1.56424;stroke-linecap:butt;stroke-linejoin:miter;stroke-miterlimit:4;stroke-dasharray:none;stroke-opacity:1"
         d="m 423.95569,180.69467 -5.15673,6.13733 3.67466,10.69891 -4.87741,13.73045 19.74981,10.875 6.02067,-11.19445 c 0,0 -3.3776,-32.11783 -3.87615,-31.74599 -0.49852,0.37191 -15.53485,1.49875 -15.53485,1.49875 z"
         id="path2028"
         sodipodi:nodetypes="ccccccsc" />
      <path
         style="fill:#bbbbbb;fill-opacity:1;stroke:#000000;stroke-width:1.56424;stroke-linecap:butt;stroke-linejoin:miter;stroke-miterlimit:4;stroke-dasharray:none;stroke-opacity:1"
         d="m 416.04819,181.58007 -2.19019,-9.5854 28.57812,-1.32049 6.11661,11.25693 1.78708,22.67781 -6.11504,12.87998 -15.72019,-5.86081 2.98454,-12.42369 -5.24626,-13.48695 z"
         id="path1880"
         sodipodi:nodetypes="cccccccccc" />
      <path
         style="fill:#69523d;fill-opacity:1;stroke:#000000;stroke-width:1.56424;stroke-linecap:butt;stroke-linejoin:miter;stroke-miterlimit:4;stroke-dasharray:none;stroke-opacity:1"
         d="m 423.56451,154.68088 c -1.24884,-0.69948 -2.78647,0.0451 -4.30305,0.68456 0,0 -1.77359,1.052 -1.95591,1.85811 -0.18239,0.80615 -0.82623,3.28912 -1.46694,5.08541 -0.52957,2.5101 0.94667,5.02023 1.66251,7.53037 0.17813,1.50349 0.31137,3.00326 1.56476,4.59639 l 2.15153,-2.05373 c 0.55624,3.07536 1.00224,6.15654 3.25696,9.14253 2.25718,-1.35832 4.67359,-1.60219 7.20725,-1.02529 2.70342,-0.0451 4.26279,2.77341 6.25892,4.49865 l 2.24934,-4.98761 c 2.57344,0.89313 4.72384,2.27992 6.74794,3.81406 l -0.29323,-8.41049 c -0.2844,-2.10308 -1.45409,-3.72326 -2.73831,-5.28099 l 1.85815,-0.0976 -3.61845,-3.61836 -2.44494,-5.77007 -1.44815,-5.36418 -5.54979,1.1261 -3.27067,4.62915 z"
         id="path5993"
         sodipodi:nodetypes="cczcccccccccccccccccc" />
      <path
         style="fill:#69523d;fill-opacity:1;stroke:#000000;stroke-width:1.56424;stroke-linecap:butt;stroke-linejoin:miter;stroke-miterlimit:4;stroke-dasharray:none;stroke-opacity:1"
         d="m 424.90571,153.99628 c -1.05289,0.93588 -1.64351,1.53783 -1.65925,3.38858 -0.0152,1.8507 1.5546,4.69878 3.11183,6.63859 1.55731,1.93984 4.89657,2.93898 6.01629,4.63322 1.11975,1.69429 1.29788,4.24913 1.15116,4.4448 -0.14677,0.1958 -1.25627,2.58002 -2.98279,2.88503 -1.72653,0.305 -4.58037,-3.53377 -5.81884,-2.59162 -1.2385,0.94216 0.19548,2.7872 0.44006,2.93391 0.2445,0.14676 3.62977,3.35299 6.01448,3.12946 2.38469,-0.2235 4.97192,-2.52854 5.96558,-4.6942 0.99366,-2.16571 0.38884,-4.31977 -0.29322,-6.69905 -0.6822,-2.37928 -3.28738,-4.83399 -4.00967,-7.09027 -0.72226,-2.25626 0.12723,-4.5756 -0.63569,-6.03543 -0.76273,-1.45981 -1.49434,-2.22996 -2.88499,-2.49381 -1.39066,-0.26368 -3.36195,0.61486 -4.41486,1.55079 z"
         id="path3237"
         sodipodi:nodetypes="zzzzzzzzzzzzzzz" />
      <path
         style="fill:#bbbbbb;fill-opacity:1;stroke:#000000;stroke-width:1.56424;stroke-linecap:butt;stroke-linejoin:miter;stroke-miterlimit:4;stroke-dasharray:none;stroke-opacity:1"
         d="m 378.87693,169.25046 c 5.23388,0.67901 11.02736,11.49563 11.02736,11.49563 l 17.76392,-0.26551 4.05818,-9.49691 -6.9363,-4.88297 -10.62459,0.15927 z"
         id="path977-1"
         sodipodi:nodetypes="ccccccc" />
      <path
         id="rect22922-1"
         style="fill:#bfbfbf;fill-opacity:1;stroke:#000000;stroke-width:2.74705;stroke-linecap:round;stroke-miterlimit:4;stroke-dasharray:none;paint-order:stroke fill markers;stop-color:#000000"
         d="m 366.12493,226.76287 c 7.43939,-2.80699 8.74138,-3.47814 12.5686,-7.75729 1.20137,-1.3432 1.22777,-2.21838 0.29262,-3.75897 -0.9352,-1.54047 -2.18639,-2.82815 -3.66816,-1.80266 -4.95713,3.43059 -5.21739,4.16159 -12.56862,7.75725 -7.35141,3.59553 -19.26203,8.21667 -19.26203,8.21667 3.55078,3.48224 15.19813,0.15195 22.63755,-2.65506 z"
         sodipodi:nodetypes="zssszcz" />
      <path
         id="rect22922"
         style="fill:#bfbfbf;fill-opacity:1;stroke:#000000;stroke-width:2.74705;stroke-linecap:round;stroke-miterlimit:4;stroke-dasharray:none;paint-order:stroke fill markers;stop-color:#000000"
         d="m 387.32501,210.85009 c -4.77286,6.3595 -5.27247,7.04062 -10.45017,9.5206 -1.62533,0.77852 -2.47301,0.55942 -3.69118,-0.76864 -1.21802,-1.32814 -2.10505,-2.88915 -0.7065,-4.02566 4.67848,-3.80183 4.94464,-3.46599 10.45021,-9.52064 5.50546,-6.05477 13.26891,-16.20104 13.26891,-16.20104 2.35217,4.38203 -4.09839,14.63595 -8.87142,20.9954 z"
         sodipodi:nodetypes="zssszcz" />
      <rect
         style="fill:#bfbfbf;fill-opacity:1;stroke:#000000;stroke-width:2.74705;stroke-linecap:round;stroke-miterlimit:4;stroke-dasharray:none;paint-order:stroke fill markers;stop-color:#000000"
         id="rect26011"
         width="8.0216827"
         height="14.522018"
         x="-173.88594"
         y="-406.87515"
         ry="2.3511808"
         transform="rotate(143.10812)" />
      <rect
         style="fill:#bfbfbf;fill-opacity:1;stroke:#000000;stroke-width:2.74705;stroke-linecap:round;stroke-miterlimit:4;stroke-dasharray:none;paint-order:stroke fill markers;stop-color:#000000"
         id="rect26011-7"
         height="10.008714"
         x="-172.30415"
         y="-404.61841"
         ry="1.7392081"
         transform="rotate(143.10812)"
         width="4.8583388" />
    </g>
  </g>
</svg>
