<?xml version="1.0" encoding="UTF-8" standalone="no"?>
<!-- Created with Inkscape (http://www.inkscape.org/) -->

<svg
   width="136.92714mm"
   height="128.05585mm"
   viewBox="0 0 136.92714 128.05585"
   version="1.1"
   id="svg1"
   inkscape:version="1.3.2 (091e20e, 2023-11-25)"
   sodipodi:docname="bevy-dog.svg"
   xmlns:inkscape="http://www.inkscape.org/namespaces/inkscape"
   xmlns:sodipodi="http://sodipodi.sourceforge.net/DTD/sodipodi-0.dtd"
   xmlns="http://www.w3.org/2000/svg"
   xmlns:svg="http://www.w3.org/2000/svg">
  <sodipodi:namedview
     id="namedview1"
     pagecolor="#ffffff"
     bordercolor="#666666"
     borderopacity="1.0"
     inkscape:showpageshadow="2"
     inkscape:pageopacity="0.0"
     inkscape:pagecheckerboard="0"
     inkscape:deskcolor="#d1d1d1"
     inkscape:document-units="mm"
     inkscape:zoom="0.2102413"
     inkscape:cx="259.22594"
     inkscape:cy="242.57841"
     inkscape:window-width="1312"
     inkscape:window-height="449"
     inkscape:window-x="0"
     inkscape:window-y="44"
     inkscape:window-maximized="0"
     inkscape:current-layer="layer1" />
  <defs
     id="defs1" />
  <g
     inkscape:label="Layer 1"
     inkscape:groupmode="layer"
     id="layer1"
     transform="translate(-36.512493,-84.402082)">
    <g
       id="g1468"
       transform="matrix(1.1656229,0,0,1.1656229,-510.36704,-73.114939)">
      <path
         id="path3031-2-8-7-1"
         style="color:#000000;font-style:normal;font-variant:normal;font-weight:normal;font-stretch:normal;font-size:medium;line-height:normal;font-family:sans-serif;font-variant-ligatures:normal;font-variant-position:normal;font-variant-caps:normal;font-variant-numeric:normal;font-variant-alternates:normal;font-variant-east-asian:normal;font-feature-settings:normal;font-variation-settings:normal;text-indent:0;text-align:start;text-decoration:none;text-decoration-line:none;text-decoration-style:solid;text-decoration-color:#000000;letter-spacing:normal;word-spacing:normal;text-transform:none;writing-mode:lr-tb;direction:ltr;text-orientation:mixed;dominant-baseline:auto;baseline-shift:baseline;text-anchor:start;white-space:normal;shape-padding:0;shape-margin:0;inline-size:0;clip-rule:nonzero;display:inline;overflow:visible;visibility:visible;isolation:auto;mix-blend-mode:normal;color-interpolation:sRGB;color-interpolation-filters:linearRGB;solid-color:#000000;solid-opacity:1;fill:#f9f9f9;fill-opacity:1;fill-rule:nonzero;stroke:#000000;stroke-width:1.56424;stroke-linecap:butt;stroke-linejoin:miter;stroke-miterlimit:4;stroke-dasharray:none;stroke-dashoffset:0;stroke-opacity:1;color-rendering:auto;image-rendering:auto;shape-rendering:auto;text-rendering:auto;enable-background:accumulate;stop-color:#000000"
         d="m 554.9605,135.91818 c -4.67301,-0.0275 -9.46504,1.83701 -13.58295,5.83569 -5.40847,5.25185 -7.08844,9.97957 -6.13983,15.87814 l 0.25975,1.61825 -1.61669,-0.26277 c -11.88241,-1.92531 -26.58864,-0.95267 -43.32073,5.81583 4.91863,2.10841 13.94645,5.6273 23.96474,10.43823 l 3.17681,1.52658 -3.4534,0.69982 c -13.22886,2.68149 -28.92653,10.42703 -43.26426,27.33108 6.41399,-0.49858 19.5226,-2.04116 33.1943,-2.0201 7.59977,0.0126 15.08952,0.53749 21.19122,2.11943 6.10178,1.58196 10.97337,4.2524 12.80521,8.82913 l 0.12549,0.31326 -0.0594,0.33159 c -0.30085,1.70796 -0.59562,3.24627 -0.87408,4.50627 -0.63864,2.89028 -3.13715,5.22759 -6.41176,7.30877 -3.27462,2.08118 -7.42947,3.90001 -11.74628,5.44602 -8.63366,3.09198 -17.82225,5.06763 -21.87887,5.44447 -0.86223,0.0801 -1.20649,0.38988 -1.53876,0.99333 -0.33226,0.60335 -0.51557,1.55096 -0.54248,2.5427 -0.036,1.32425 0.14155,2.42886 0.28743,3.17836 26.40463,2.16445 46.04058,-4.42139 60.21051,-10.04399 15.92189,-7.30037 25.98525,-21.71682 28.16988,-34.69633 1.36908,-8.13276 1.07549,-12.11845 -0.24449,-15.51295 -1.32008,-3.39448 -3.85107,-6.40871 -7.06119,-12.16493 -2.06295,-3.69911 -3.21376,-7.32843 -3.92719,-10.70873 l -0.15102,-0.71207 0.56843,-0.45535 c 11.22992,-3.85684 13.40546,-9.25948 12.44766,-13.65174 -0.95781,-4.39224 -9.12085,-5.85197 -16.68196,-3.87053 l -0.56839,0.0593 -0.40041,-0.40798 c -3.68693,-3.75584 -8.26302,-5.68114 -12.93661,-5.70891 z m 2.07209,8.78792 c 2.02862,-0.0319 3.81856,1.37425 4.30456,3.38163 0.57163,2.36403 -0.84591,4.73525 -3.16619,5.29624 -2.3202,0.56146 -4.66484,-0.89989 -5.23668,-3.26395 -0.57165,-2.36403 0.84588,-4.73528 3.16616,-5.29628 0.30529,-0.0737 0.61788,-0.11294 0.93215,-0.11783 z"
         sodipodi:nodetypes="cscccccccccssccsssssccccssccczccsccsccccss" />
      <path
         style="fill:#dbb594;fill-opacity:1;stroke:none;stroke-width:0.782369px;stroke-linecap:butt;stroke-linejoin:miter;stroke-opacity:1"
         d="m 483.82531,193.06219 c -0.62512,0.95022 -2.02424,0.89917 -1.63099,1.93462 0.13738,0.36168 -0.84896,2.10357 -0.84896,2.10357 1.79758,0.45759 2.42846,-0.28287 3.47492,-0.34082 0.86619,-0.0477 0.92608,0.50936 1.10836,0.50936 0.12663,0 2.58904,-1.05275 3.96671,-1.14924 1.57598,-0.11019 2.3025,0.99611 2.3025,0.99611 0.76724,-0.46788 3.17992,-2.30213 4.5176,-2.4104 1.45179,-0.11721 1.80242,1.51183 1.80242,1.51183 2.68564,-0.95479 2.59468,-2.48404 3.95422,-2.47215 2.16639,0.0182 3.01634,1.66308 3.01634,1.66308 2.95581,-0.97596 3.9841,-2.22559 6.05173,-2.62433 2.00902,-0.38744 2.30238,3.38837 2.30238,3.38837 5.4528,-1.28051 5.79823,-4.04504 7.44989,-3.50678 2.58784,0.84334 2.96912,3.29763 2.96912,3.29763 2.0301,-0.60497 3.87773,-2.07223 5.30242,-1.19411 1.49089,0.91894 1.12265,2.38413 1.12265,2.38413 2.42215,0.39523 3.55599,-1.02283 5.12527,0.0182 0.89579,0.59443 -1.0862,1.84505 -0.48466,6.86265 0,0 1.67301,-0.8743 2.12753,1.23343 0.61465,2.85047 -1.82654,4.07168 -1.44376,4.69004 10.41065,16.81775 18.79134,-21.97421 18.21504,-25.18521 -0.57632,-3.21101 -2.20519,-4.37851 -7.05248,-6.45146 -4.84726,-2.07296 -17.10659,-1.29663 -22.02341,-1.48473 -4.91677,-0.18819 -4.08385,-0.47376 -7.44868,-0.0682 -3.36483,0.40543 -12.35751,3.13147 -12.48882,3.17526 -0.13126,0.0438 -6.95978,2.6468 -10.1049,4.37442 -3.1451,1.72761 -6.89851,4.33723 -8.70509,5.90545 -1.80655,1.5682 -1.95225,1.88889 -2.57735,2.8391 z"
         id="path7569"
         sodipodi:nodetypes="zssssssssssssssssscsszzzzzzzz" />
      <path
         style="fill:#dbb594;fill-opacity:1;stroke:none;stroke-width:0.48022px;stroke-linecap:butt;stroke-linejoin:miter;stroke-opacity:1"
         d="m 504.82811,161.92076 c -0.5419,0.44015 -1.35116,0.15105 -1.31298,0.82976 0.0125,0.23719 -0.88663,1.07354 -0.88663,1.07354 0.96704,0.60099 1.47343,0.28471 2.09657,0.44448 0.51579,0.13245 0.44746,0.46971 0.55416,0.50351 0.0739,0.0243 1.71011,-0.13619 2.53415,0.0627 0.94258,0.22775 1.16268,1.00965 1.16268,1.00965 0.5356,-0.13157 2.28737,-0.75772 3.09021,-0.57314 0.8713,0.20005 0.77446,1.21875 0.77446,1.21875 1.74845,-0.0609 1.97867,-0.97268 2.77201,-0.7137 1.26407,0.41276 1.45675,1.53217 1.45675,1.53217 1.9105,-0.0243 2.74384,-0.56382 4.02761,-0.41398 1.24735,0.14588 0.71918,2.40946 0.71918,2.40946 3.42807,0.26125 4.14258,-1.29227 5.0093,-0.67118 1.35797,0.9731 1.12616,2.4799 1.12616,2.4799 1.30005,0.0243 2.65312,-0.49383 3.32401,0.2841 0.70212,0.81402 0.21497,1.60315 0.21497,1.60315 1.34413,0.68009 2.27037,0.0605 2.99549,0.96122 0.41402,0.51387 -0.97755,0.87833 -1.55556,3.92585 0,0 1.14103,-0.20127 1.01631,1.11605 -0.16869,1.78191 -1.82346,2.04402 -1.7141,2.47679 2.97472,11.77045 15.06853,-9.3753 15.3265,-11.36106 0.2579,-1.98572 -0.47885,-2.97076 -2.93101,-5.08222 -2.45214,-2.11142 -9.76962,-3.92933 -12.6118,-4.95071 -2.84224,-1.02123 -2.30191,-1.03403 -4.34591,-1.42057 -2.04413,-0.38632 -7.8114,-0.45805 -7.89632,-0.45677 -0.085,0.001 -4.56312,0.25882 -6.72368,0.68681 -2.16054,0.42795 -4.7892,0.91701 -6.13696,1.49982 -1.34778,0.58279 -1.54381,1.08575 -2.0857,1.52587 z"
         id="path7569-9"
         sodipodi:nodetypes="zssssssssssssssssscsszzzzzzzzz" />
      <path
         style="fill:#dbb594;fill-opacity:1;stroke:none;stroke-width:0.782369px;stroke-linecap:butt;stroke-linejoin:miter;stroke-opacity:1"
         d="m 555.10979,144.43743 c -0.0831,-0.001 -1.20137,0.54599 -1.85828,0.74193 -0.47767,0.14245 0.11608,-1.51121 0.11608,-1.51121 -0.24572,-0.34608 -1.13871,0.54063 -1.20798,0.30648 -0.0889,-0.30116 0.1967,-0.78264 0.48193,-1.1928 0.37775,-0.54281 -1.31444,-0.3075 -0.89864,-0.57568 2.65278,-1.71079 4.00651,-1.4232 5.34679,-1.35681 1.34032,0.0664 3.52148,0.83239 4.57792,1.36103 1.05645,0.52859 1.2789,0.92096 1.85592,1.37865 0.57703,0.45768 1.22976,0.39596 1.60847,1.36096 0.37869,0.96503 4.83795,0.24939 4.75436,1.63337 -0.0837,1.38407 -1.01186,4.76386 -0.79515,6.09959 0.21678,1.33572 -0.51941,3.11269 6e-5,4.1449 0.51944,1.03218 0.12047,2.64695 -1.0007,3.68738 0,0 -0.91734,0.009 -1.34355,0.44183 -0.53615,0.54373 0.28166,0.80649 -1.21934,2.69876 0,0 0.24511,-2.71826 -1.3116,2.34686 0,0 -2.91152,0.18359 -2.80677,0.72256 0.22075,1.13679 1.82769,2.69057 1.82769,2.69057 0,0 -1.91657,0.15742 -1.73244,0.95842 0.0651,0.2844 1.4006,2.30505 1.13177,2.40172 -0.12828,0.0463 -1.6461,-0.15986 -2.35845,0.30845 -1.18558,0.7796 -1.28624,1.53843 -1.84068,1.35476 -2.37195,-0.78601 -3.13839,-5.34286 -3.66078,-5.25032 -1.46138,0.25881 -3.26426,-1.03161 -3.62688,-2.37463 -0.36268,-1.34304 1.50976,-2.23537 1.79405,-3.5881 0.28409,-1.35268 -1.1622,-3.15159 -0.21101,-4.27661 0.59898,-0.70855 1.86816,-0.4339 2.98592,-0.5755 0.65685,-0.0831 0.98224,-0.73459 0.98224,-0.73459 -0.045,-0.66324 0.87139,-1.45758 1.39835,-1.62821 0.6308,-0.2031 1.70536,0.36018 1.47942,0.30388 -0.57152,-0.14275 0.70966,-1.57082 0.98102,-2.04602 0.24816,-0.43433 1.79837,-0.40805 1.6913,-0.77436 -0.15011,-0.51551 -0.71138,-0.69702 -0.71138,-0.69702 0.23721,-0.56369 0.71614,-1.96411 0.62108,-2.51052 -0.28197,-1.6217 -0.59325,-3.40287 -1.59344,-4.38171 -1.00023,-0.97882 -2.61583,-0.98183 -3.53626,-1.20019 -0.92042,-0.21861 -1.73722,-0.26856 -1.92278,-0.26856 z"
         id="path38357"
         sodipodi:nodetypes="sssssszzzzzzzssscscssssszzssssssssszzzs" />
      <path
         style="fill:#d4d3d4;fill-opacity:1;stroke:none;stroke-width:0.782369px;stroke-linecap:butt;stroke-linejoin:miter;stroke-opacity:1"
         d="m 491.79574,187.48605 c -1.50709,0.9189 -3.66702,1.257 -4.54941,2.27469 -0.27769,0.3203 -2.73619,1.65565 -3.66115,2.88136 -0.46557,0.61697 0.74851,0.49168 0.22564,1.62194 -0.18818,0.40666 1.08438,-0.8936 1.59749,-0.87231 0.68174,0.0304 0.64946,0.71152 0.64946,0.71152 1.63059,-0.20767 1.37594,-2.13607 2.35047,-2.05996 1.02631,0.0801 1.3793,1.27991 1.3793,1.27991 1.05447,-0.51318 2.40629,-2.60633 3.07569,-2.58358 1.36584,0.0463 1.1154,1.28765 1.1154,1.28765 1.57898,-0.7753 0.90124,-1.63121 2.35642,-2.15365 1.04751,-0.37611 1.95576,1.26553 1.95576,1.26553 1.68488,-0.21101 2.65455,-2.01585 3.70256,-2.26239 1.71496,-0.40349 2.32393,1.75547 2.32393,1.75547 1.86237,-0.87939 3.02882,-3.39958 3.31863,-3.43167 0.98219,-0.10868 1.93335,1.73172 1.93335,1.73172 2.59595,-0.72348 3.18139,-2.61689 4.85941,-2.54728 2.25669,0.0939 1.9644,2.54501 1.9644,2.54501 3.12237,-1.02921 4.00537,-3.52989 5.68464,-3.45922 2.44355,0.10291 2.4867,2.45321 2.4867,2.45321 2.50703,-1.44023 2.53079,-2.15623 4.00694,-2.47677 2.18116,-0.47362 2.39498,1.38172 1.76937,3.51336 0,0 1.81762,-0.34466 3.5556,-0.87714 2.04361,-0.24876 2.11356,2.31989 2.66985,4.22483 l 0.6729,-0.84378 c 0.58641,-0.73538 -0.99698,3.2642 -0.6905,5.07672 0,0 2.30403,-0.56578 2.67944,2.18795 0.14156,1.03936 -1.12861,3.11838 -1.516,4.97471 0,0 1.08151,0.32085 1.07882,1.95335 -10e-4,1.33898 -0.99061,3.46573 -1.20499,3.97581 -0.30236,0.71965 0.63469,0.77315 0.50458,1.48691 -0.25426,1.39529 0.37967,2.41458 -0.16534,3.49897 -0.81174,1.61535 -0.45812,6.57694 -2.57083,8.5312 -4.22775,3.91057 -13.58088,7.61297 -19.60637,9.65068 -6.02544,2.0377 -12.2211,2.76569 -15.50211,3.65432 -3.28099,0.88864 -3.46225,0.53676 -4.2421,1.43171 -0.77977,0.89493 -1.04398,0.45131 -0.23233,1.50465 0.81155,1.05336 6.69153,0.033 10.96326,-0.0664 1.29971,-0.0304 1.62278,0.94757 1.62278,0.94757 3.2095,-1.32208 6.78855,-1.88157 9.24771,-2.20598 3.32409,-0.43854 3.39157,0.43865 3.39157,0.43865 2.15555,-0.83228 3.7323,-1.75327 5.45058,-2.02647 3.05941,-0.48645 3.01846,0.28836 3.01846,0.28836 3.78917,-0.98668 5.53479,-3.09261 8.44023,-3.69546 3.9593,-0.82153 4.92319,0.93802 4.92319,0.93802 4.25773,-2.29966 2.95453,-3.37986 5.75868,-4.66025 1.00232,-0.45765 3.22112,1.40138 3.22112,1.40138 2.29603,-1.10346 2.65104,-4.75651 3.96956,-5.35721 2.16353,-0.9857 3.67555,0.38577 3.67555,0.38577 1.86895,-2.07686 2.51149,-3.03605 3.11335,-5.47356 0.81549,-3.30281 3.67613,-1.8585 3.67613,-1.8585 -2.59139,-6.26545 2.21041,-6.24314 2.21041,-6.24314 1.13557,-2.97864 -1.70219,-4.44125 -1.29754,-5.91266 0.69521,-2.52796 3.68461,-2.08526 3.68461,-2.08526 0.58215,-1.9627 -2.74269,-5.16977 -2.87727,-5.81761 -0.47404,-2.28226 2.60327,-3.0987 2.60327,-3.0987 -1.00685,-2.52365 -4.29874,-4.82709 -4.59066,-7.12811 -0.37869,-2.98509 2.73389,-4.66047 2.73389,-4.66047 -6.28084,-3.34667 -3.02007,-5.91214 -2.61757,-5.77335 0.7752,0.26734 -2.09068,-0.7241 -3.23584,-2.42073 -0.76998,-1.14072 0.40362,-1.68322 0.40362,-1.68322 -1.28388,-0.33879 -3.53964,-1.98743 -3.66911,-2.37402 -0.54986,-1.6414 0.31124,-3.04036 -0.13857,-3.12916 -1.88269,-0.37145 -1.54528,-2.6874 -1.54528,-2.6874 -0.52848,-0.0737 -1.88771,0.0415 -2.39038,-0.5645 -1.49109,-1.79791 0.85371,-1.80699 0.56866,-2.27551 -0.33803,-0.55554 -2.27682,-1.03372 -2.2075,-2.07687 0.0646,-0.97453 2.4672,-0.53474 2.06755,-1.07087 -0.66801,-0.89599 -1.58283,-2.10481 -2.39448,-2.94634 -0.0877,-0.0907 -0.39125,-0.56661 -0.38236,-1.12197 0.009,-0.56697 0.76733,-1.21268 0.76733,-1.21268 -2.02527,-4.16574 -8.53384,-4.54751 -8.32246,-6.87349 0.28135,-3.09716 2.84002,-0.001 3.86568,-0.38911 0.17934,-0.0675 3.50058,2.76946 2.99402,2.59295 -0.57845,-0.20157 0.11909,-2.42843 0.22897,-1.98493 0.2031,0.8196 1.90611,-2.03639 1.73977,-2.5438 -0.32712,-0.99795 -0.19274,-1.90029 -0.19274,-1.90029 0.6757,-0.74377 -0.95164,-1.09658 -0.30818,-1.30118 0.49635,-0.15802 1.71843,-0.063 1.71843,-0.063 0.49639,-0.58059 -0.97642,-1.53165 -0.4368,-1.79649 0.37399,-0.18362 1.40168,-0.34048 1.40168,-0.34048 0.21376,-0.94957 -2.40741,-1.36417 -2.11929,-1.53648 0.74179,-0.44369 1.38461,-0.35835 1.38461,-0.35835 0.2573,-0.471 -1.04767,-0.32537 -0.68042,-0.56989 0.80257,-0.53439 1.36814,-0.2366 1.36814,-0.2366 0.10227,-0.56729 -1.21558,-0.42007 -1.61706,-0.94567 -1.10045,-1.44057 -4.43248,1.03637 -6.37239,1.74953 -1.9399,0.71313 -3.47888,1.2096 -5.24932,2.44966 -1.77038,1.24002 -3.67374,3.06569 -5.0743,5.07433 -1.40055,2.00856 -2.70845,4.61335 -3.14957,6.82407 -0.44116,2.21069 0.52646,4.68896 0.23112,6.00544 -0.29537,1.31647 0.32142,1.25254 -0.96233,1.84976 -1.28377,0.59727 -3.25744,-1.07981 -6.25544,-1.39981 -2.998,-0.31997 -8.70149,-0.18575 -11.67967,0.0877 -2.9782,0.27312 -5.9929,0.87481 -6.16795,1.09359 -0.0871,0.10867 -1.23671,0.29384 -2.12096,0.74968 -0.89189,0.45958 -1.51798,1.19086 -1.48666,1.5611 0.0213,0.23994 0.92043,-0.17266 1.38573,-0.0365 0.6552,0.19182 0.936,0.88242 0.936,0.88242 0.84769,-0.95919 2.18701,-0.90441 2.68921,-0.72767 0.36365,0.12783 0.64302,1.42255 0.64302,1.42255 1.58785,-0.41664 2.22135,-1.37231 2.91008,-1.27615 0.83719,0.11658 1.40333,1.63375 1.40333,1.63375 0.72986,-0.32102 1.7408,-1.42588 2.51365,-1.34466 0.91824,0.0965 0.39076,1.54624 0.39076,1.54624 1.2268,0.3157 3.03766,-1.31136 3.52035,-1.17346 0.48266,0.13798 -0.12604,1.64256 -0.12604,1.64256 1.47379,0.20005 2.70421,-0.98482 3.15094,-0.64273 0.52281,0.40039 -0.0182,1.4727 -0.0182,1.4727 1.18671,0.20401 2.25989,-0.3084 2.55614,-0.39515 1.17972,-0.34553 0.50481,1.984 0.50481,1.984 1.55971,-0.27314 2.50711,-1.14904 2.96102,-0.90794 1.36009,0.72235 0.87265,2.2396 0.87265,2.2396 1.50727,-0.43814 2.37197,-0.55055 2.91482,-0.31813 1.03587,0.44352 -0.21648,2.38923 -0.21648,2.38923 2.16955,-0.39437 3.54662,-0.21952 3.04902,0.71499 0,0 1.15478,-0.4391 1.21773,0.34244 0.0752,0.93221 -0.65232,2.31282 -0.48028,2.63828 0.63831,1.20759 1.47642,0.20097 1.95555,1.08337 0.71662,1.31961 1.5748,-1.62979 -0.73591,-1.31782 -0.89363,0.12048 -2.84348,-0.7264 -4.57034,-0.0725 0,0 1.15791,1.47554 -0.53683,1.50478 -0.2637,0.006 -3.50678,-1.32415 -4.23356,-0.796 0,0 0.52345,0.90906 -1.15194,1.25633 -1.23904,0.25701 -3.36125,-2.17777 -5.16309,-1.61331 0,0 1.41887,1.82743 -1.91847,1.61231 -0.9804,-0.0634 -3.19365,-0.92894 -3.95001,-0.14737 0,0 0.42641,0.91804 -0.17814,1.10315 -1.40636,0.43086 -3.99334,0.38075 -4.18334,0.44408 -0.39369,0.13126 -11.37348,3.5433 -11.46096,3.58701 -0.0877,0.0438 -5.17582,2.37822 -7.08655,3.5433 -1.91078,1.16505 -2.93612,2.33048 -4.44319,3.2494 z"
         id="path39188"
         sodipodi:nodetypes="zsssscssssssssssssssssccssssssssszzzzssssssssssssssssssssssssssssssssssssssssssssssssszzzzzzzzssssssssssszssssssssssssssssssssssszzzz" />
      <path
         style="fill:#363636;fill-opacity:1;stroke:none;stroke-width:0.782369px;stroke-linecap:butt;stroke-linejoin:miter;stroke-opacity:1"
         d="m 548.91018,148.01605 c 0.3058,-0.65033 -1.60554,-2.126 -1.1024,-3.17909 1.13826,-2.02002 0.0828,-9.5651 -3.28597,-5.88737 -1.13295,0.67964 -1.40487,0.98313 -2.35245,1.80337 -0.94757,0.82025 -2.54061,2.35594 -3.26102,3.18086 -0.72042,0.82494 -0.83162,1.01184 -1.20046,1.61947 -0.36881,0.60764 -1.03029,1.20803 -0.98476,2.02192 0.0213,0.39177 -0.7579,1.35125 -0.53296,1.63112 0,0 -0.96527,2.44258 -0.90319,2.65254 0.071,0.24023 -0.0651,2.02566 -0.006,2.35293 0.20705,1.13708 1.93779,-2.88754 1.81277,-1.29689 -0.12512,1.5906 -0.79759,2.49961 -0.39866,4.07625 0.39885,1.57664 2.08627,5.21427 2.76059,6.32929 0.67435,1.11499 0.76297,1.87988 1.99501,2.67958 1.23208,0.7998 3.75543,1.22704 5.33974,1.19801 1.58426,-0.0304 1.65055,0.80617 2.64341,0.13484 0.99289,-0.67123 0.89298,-3.92264 1.30174,-4.8565 0.40879,-0.93382 1.8152,-4.72495 1.75786,-6.3947 -0.0572,-1.66976 1.58563,-2.72453 0.89622,-4.48365 -0.68944,-1.75915 -0.88682,-2.41729 -0.9211,-2.51999 -0.0344,-0.10266 -1.17372,-0.60366 -1.02306,-1.10684 0.15072,-0.50321 -2.25969,-1.49561 -1.95388,-2.14592 z"
         id="path74066"
         sodipodi:nodetypes="zcczzzsssszzzzzzzzzzzzz" />
      <path
         style="fill:#363636;fill-opacity:1;stroke:none;stroke-width:0.782369px;stroke-linecap:butt;stroke-linejoin:miter;stroke-opacity:1"
         d="m 504.52314,182.28315 c -0.3577,0.56804 -0.87325,0.67164 -0.81664,2.45831 0.8043,-0.88799 1.57761,-1.89379 2.66497,-1.70526 -0.20248,0.88283 0.11056,1.71406 0.54767,2.5329 0.66817,-1.08403 1.31619,-2.19152 2.7383,-2.39596 0.41963,0.9287 0.43142,0.84682 1.43477,1.91751 0.98559,-1.26948 0.96033,-1.72306 2.80818,-2.41192 1.6974,-0.6444 1.79735,-0.0865 3.49477,0.56012 -0.53457,-1.29952 -1.09627,-2.73464 -1.50807,-3.42015 0.31049,-0.30083 0.80491,-0.0493 1.23219,0 -0.65075,-0.51478 -0.60918,-1.19443 -2.48796,-1.41683 l -4.70005,0.18453 c -1.27784,-0.16017 -2.6314,0.58888 -3.9705,1.16377 0.33976,0.0275 0.66645,0.0681 0.753,0.41073 -2.05505,0.11382 -2.69462,0.76671 -3.4376,1.38026 0.68794,0.0304 1.24574,0.16414 1.24697,0.74191 z"
         id="path82017"
         sodipodi:nodetypes="cccccccccccccccc" />
      <path
         style="fill:#363636;fill-opacity:1;stroke:none;stroke-width:0.468516px;stroke-linecap:butt;stroke-linejoin:miter;stroke-opacity:1"
         d="m 533.31645,162.92204 c -0.3349,0.22228 -0.64194,0.15193 -1.05041,1.14148 0.65753,-0.28712 1.32712,-0.6461 1.87447,-0.27587 -0.32759,0.43227 -0.36106,0.96315 -0.32373,1.51773 0.63138,-0.42762 1.2575,-0.87301 2.08432,-0.635 7.9e-4,0.61032 0.0275,0.56852 0.31196,1.39983 0.8503,-0.45087 0.948,-0.70471 2.12638,-0.62653 1.08526,0.0651 1.00269,0.39473 1.77056,1.16514 0.0275,-0.84102 0.0737,-1.76274 0.0182,-2.23831 0.24359,-0.0877 0.45164,0.17112 0.67281,0.30296 -0.22897,-0.4411 -0.0389,-0.80201 -1.01013,-1.3854 l -2.6118,-1.05483 c -0.65834,-0.40154 -1.58161,-0.32544 -2.45419,-0.34079 0.17935,0.0971 0.34716,0.20097 0.31019,0.4095 -1.15007,-0.44329 -1.65985,-0.24391 -2.21647,-0.0916 0.36838,0.18542 0.63992,0.3958 0.49849,0.71169 z"
         id="path82017-9"
         sodipodi:nodetypes="cccccccccccccccc" />
      <path
         style="fill:#363636;fill-opacity:1;stroke:none;stroke-width:0.500064px;stroke-linecap:butt;stroke-linejoin:miter;stroke-opacity:1"
         d="m 523.26022,232.30301 c -0.0716,0.42305 -0.35047,0.61073 0.1216,1.65122 0.2567,-0.7215 0.46613,-1.50488 1.1541,-1.66053 0.0971,0.57071 0.48603,0.98436 0.94497,1.36028 0.12782,-0.8037 0.23872,-1.61643 1.02785,-2.08614 0.47561,0.44502 0.4625,0.39386 1.31738,0.77938 0.27009,-0.99112 0.14409,-1.25259 1.06518,-2.11272 0.84352,-0.79699 1.03952,-0.4922 2.19992,-0.52736 -0.6345,-0.63569 -1.31826,-1.34474 -1.72955,-1.64817 0.1093,-0.25363 0.46287,-0.22684 0.72718,-0.30266 -0.51045,-0.14409 -0.65272,-0.55534 -1.81609,-0.22532 l -2.72843,1.26266 c -0.79344,0.21925 -1.40834,0.99351 -2.05744,1.66151 0.20705,-0.0675 0.41004,-0.12336 0.54518,0.0572 -1.18484,0.57168 -1.40198,1.11398 -1.68984,1.65845 0.41337,-0.15104 0.77546,-0.20919 0.91802,0.13157 z"
         id="path82017-0"
         sodipodi:nodetypes="cccccccccccccccc" />
      <path
         style="fill:#363636;fill-opacity:1;stroke:none;stroke-width:0.782369px;stroke-linecap:butt;stroke-linejoin:miter;stroke-opacity:1"
         d="m 551.0444,138.46829 c 0.63883,0.20614 1.10067,-0.0451 2.20379,1.36139 -1.18664,-0.16534 -2.42519,-0.43999 -3.13819,0.4023 0.72183,0.54705 1.01509,1.38556 1.20531,2.29402 -1.20804,-0.40279 -2.41579,-0.83623 -3.63762,-0.0804 0.27403,0.9816 0.21131,0.9267 0.13006,2.39139 -1.57066,-0.34035 -1.84212,-0.70524 -3.70145,-0.0477 -1.71534,0.59479 -1.4339,1.08713 -2.32092,2.67217 -0.424,-1.33971 -0.91421,-2.80081 -1.03798,-3.5909 -0.43113,-0.0316 -0.64903,0.47867 -0.94503,0.7907 0.1693,-0.81226 -0.30054,-1.30665 0.99898,-2.68319 l 3.72317,-2.87438 c 0.87719,-0.94297 2.39609,-1.23691 3.79202,-1.65532 -0.2433,0.23842 -0.15348,-0.31814 0,0 1.64924,-1.23139 2.2448,-0.34287 3.20833,-0.34902 -0.50823,0.46457 -0.85009,0.92526 -0.48013,1.36919 z"
         id="path82017-91-7"
         sodipodi:nodetypes="ccccccccccccccccc"
         inkscape:transform-center-x="-0.44679419"
         inkscape:transform-center-y="0.92650598" />
      <path
         style="fill:#363636;fill-opacity:1;stroke:none;stroke-width:0.782369px;stroke-linecap:butt;stroke-linejoin:miter;stroke-opacity:1"
         d="m 549.84458,146.25228 c 0.63889,0.20613 1.10068,-0.0451 2.20381,1.36136 -1.18665,-0.16535 -2.42518,-0.43999 -3.13821,0.4023 0.72186,0.54708 1.01513,1.38556 1.20533,2.29401 -1.20804,-0.4028 -2.41575,-0.83623 -3.63762,-0.0804 0.27405,0.9816 0.2113,0.92669 0.13006,2.39137 -1.57071,-0.34033 -1.84216,-0.70524 -3.70149,-0.0477 -1.71535,0.59481 -1.4339,1.08714 -2.32086,2.67217 -0.42403,-1.33967 -0.91427,-2.80078 -1.03798,-3.59085 -0.43117,-0.0316 -0.64909,0.47863 -0.94507,0.79071 0.16931,-0.81229 -0.30052,-1.30671 0.999,-2.68324 l 3.72312,-2.87439 c 0.87719,-0.94295 2.39611,-1.23692 3.79203,-1.6553 -0.24329,0.23843 -0.15347,-0.31817 0,0 1.64923,-1.23136 2.24476,-0.34285 3.20832,-0.34901 -0.5082,0.46457 -0.85005,0.92528 -0.48013,1.36916 z"
         id="path82017-91-7-7"
         sodipodi:nodetypes="ccccccccccccccccc"
         inkscape:transform-center-x="-0.4467839"
         inkscape:transform-center-y="0.92649812" />
      <path
         style="fill:#363636;fill-opacity:1;stroke:none;stroke-width:0.782369px;stroke-linecap:butt;stroke-linejoin:miter;stroke-opacity:1"
         d="m 559.88849,156.28413 c 0.32092,0.54066 0.25182,0.98339 0.0182,1.77661 -0.86623,-0.82772 -1.0517,-0.49097 -1.63483,-0.68637 -0.0423,1.07115 -1.13186,0.89609 -1.50949,1.74438 -0.7448,-1.03292 -0.54717,-0.58447 -1.98037,-0.68539 -0.35136,0.9567 -1.29429,-0.63054 -2.21639,0.51034 -1.07549,-1.19423 -1.08248,-1.64896 -2.97537,-2.20236 -1.73944,-0.51999 -1.79882,0.0438 -3.44497,0.81161 0.43893,-1.33486 0.89521,-2.80692 1.25662,-3.52031 -0.33136,-0.27769 -0.80643,0.009 -1.22901,0.0892 0.61229,-0.56007 0.5199,-1.23595 2.37892,-1.59324 l 4.70107,-0.1562 c 1.26288,-0.25243 2.66711,0.39685 4.04434,0.87331 -0.33678,0.0512 0.0615,-0.34783 0,0 0.18116,-0.001 3.09106,0.0126 3.33527,-1.41994 0.3894,-2.2832 -0.42175,-5.93754 0.30686,-6.07655 0.25365,-0.0484 2.02549,0.35709 2.61728,1.44908 0,0 -0.95602,0.18484 -0.74384,0.46756 0.65341,0.87026 1.34418,2.27442 1.34418,1.93244 0,-0.29445 -1.9081,0.088 -0.7877,1.28951 0,0 -1.46074,-0.29781 -0.94924,1.28666 0,0 -0.81064,0.65055 -0.56451,0.73606 0.67765,0.23537 0.83953,0.97067 0.59355,1.68765 -1.22186,-0.12918 -1.38402,0.94823 -1.03582,1.69458 z"
         id="path82017-91-7-1"
         sodipodi:nodetypes="ccccccccccccccssssssssccc"
         inkscape:transform-center-x="0.16196984"
         inkscape:transform-center-y="0.73400849" />
      <path
         style="fill:#363636;fill-opacity:1;stroke:none;stroke-width:0.782369px;stroke-linecap:butt;stroke-linejoin:miter;stroke-opacity:1"
         d="m 538.30326,172.98541 -4.9019,1.10985 6.95565,3.54532 c -2.06484,1.04276 -1.89691,3.47141 -2.19069,5.61347 1.72105,-0.45797 3.61617,-1.49612 4.79203,-0.13678 -2.19578,1.50885 -2.27273,4.20959 -2.46444,6.84571 1.49257,-0.32569 2.90995,-1.70453 4.5182,-0.4107 -2.02762,2.91804 -1.08277,4.77447 -1.50609,7.11953 1.47658,-1.2241 1.05637,-1.1948 2.90947,-1.16375 0.75298,1.25415 0.26187,2.48532 0.14557,4.11237 -0.10466,1.46072 0.70548,0.11407 1.09268,1.24557 0.12273,0.35871 -0.39919,1.82453 -0.50609,2.54955 -0.0707,0.47928 0.93315,-0.45683 1.06523,0.0182 0.23843,0.85556 -0.27617,2.51087 -0.2713,2.89261 0.26917,-0.28227 1.11452,-2.20669 1.86756,-2.88273 0.56349,-0.50588 1.03003,0.27465 1.41084,-0.23599 0.50957,-0.68336 -0.14648,-1.17339 0.49454,-1.65541 1.04072,-0.7828 2.65797,-0.51168 2.65797,-0.51168 0.51134,-1.55336 -0.8304,-2.15553 -0.51355,-2.99498 0.58425,-1.54793 2.61694,-2.02973 2.72355,-1.96041 1.05646,0.68737 -0.0728,-2.29942 -0.85641,-4.06714 0.5506,-1.00941 2.78071,1.8895 2.96818,1.46598 0.12361,-0.27923 -0.70578,-3.83622 -1.77586,-6.36409 -0.37212,-0.879 2.0438,0.1078 2.0438,0.1078 0.31709,-2.09797 -1.91756,-3.45457 -2.24044,-3.277 1.46456,-1.90391 1.54874,-1.15323 3.64583,-1.033 -2.33633,-3.5034 -3.98066,-8.04482 -8.24431,-8.65726 0.87863,-0.57384 2.21188,-0.51121 3.73329,-0.18514 -1.30744,-1.517 -3.91104,-3.51661 -5.21769,-4.85726 -1.14176,-1.17154 -1.07416,-1.69907 -3.56505,-1.79731 -2.4909,-0.0983 -4.48342,0.30572 -6.56573,1.98329 0.36079,0.14738 0.78115,0.24999 0.64446,0.77024 z"
         id="path95966"
         sodipodi:nodetypes="cccccccccsssscsssssscsssccccszccc" />
      <path
         style="fill:none;stroke:#000000;stroke-width:1.56424;stroke-linecap:round;stroke-linejoin:miter;stroke-miterlimit:4;stroke-dasharray:none;stroke-opacity:1"
         d="m 537.36289,150.04885 c 0,0 -1.08547,4.57966 -1.0552,6.14801 0.035,1.82532 2.65971,7.28656 4.5499,9.43369 1.67022,1.89721 7.98708,1.66335 8.46484,1.49033 0.4777,-0.17294 0.80331,-4.32494 2.74718,-10.23797 1.94389,-5.91301 -4.79445,-8.67033 -4.08299,-8.86622 0.71142,-0.19578 0.45747,-0.24663 0.92356,-6.4e-4"
         id="path1421"
         sodipodi:nodetypes="csszzzc" />
      <path
         style="fill:#363636;fill-opacity:1;stroke:none;stroke-width:1.25377px;stroke-linecap:butt;stroke-linejoin:miter;stroke-opacity:1"
         d="m 550.9444,210.94155 c -2.33726,5.57245 -3.44543,5.2178 -3.44543,5.2178 2.465,-0.0405 3.59692,-1.81481 4.91532,-3.34648 l 0.37938,2.98843 c 1.6012,-1.87502 3.42783,-3.73629 2.43298,-5.76989 l 2.07578,1.25075 c -0.25944,-3.854 -2.04432,-7.44549 -4.84946,-5.46146 -2.80509,1.98392 -2.74109,3.96326 -4.08473,5.9767 z"
         id="path99451"
         sodipodi:nodetypes="cccccczcc"
         inkscape:transform-center-x="-3.0980403"
         inkscape:transform-center-y="6.7769553" />
      <path
         style="fill:#363636;fill-opacity:1;stroke:none;stroke-width:0.954743px;stroke-linecap:butt;stroke-linejoin:miter;stroke-opacity:1"
         d="m 540.71816,223.0448 c -1.77982,4.2434 -2.62369,3.97336 -2.62369,3.97336 1.87708,-0.0307 2.73907,-1.38202 3.74301,-2.54835 l 0.28897,2.27569 c 1.21929,-1.42782 2.61028,-2.84517 1.85268,-4.39375 l 1.58071,0.95243 c -0.19762,-2.93487 -1.55676,-5.66972 -3.69286,-4.15893 -2.13608,1.51074 -2.08732,3.01802 -3.11048,4.55124 z"
         id="path99451-9"
         sodipodi:nodetypes="cccccczcc"
         inkscape:transform-center-x="-2.3591861"
         inkscape:transform-center-y="5.1606457" />
      <path
         style="fill:#363636;fill-opacity:1;stroke:none;stroke-width:0.907086px;stroke-linecap:butt;stroke-linejoin:miter;stroke-opacity:1"
         d="m 527.34264,180.18468 c -4.30479,0.76337 -4.23067,1.6019 -4.23067,1.6019 0.42077,-1.7333 1.85288,-2.25007 3.14365,-2.93692 l -2.0489,-0.74292 c 1.57802,-0.83193 3.1822,-1.82509 4.45927,-0.79953 l -0.55261,-1.66393 c 2.67892,0.7957 4.92981,2.62702 3.08338,4.29129 -1.84635,1.66428 -3.23321,1.30429 -4.86798,1.9324 z"
         id="path99451-1"
         sodipodi:nodetypes="cccccczcc"
         inkscape:transform-center-x="4.5364681"
         inkscape:transform-center-y="-3.7029465" />
      <path
         style="fill:#363636;fill-opacity:1;stroke:none;stroke-width:0.652662px;stroke-linecap:butt;stroke-linejoin:miter;stroke-opacity:1"
         d="m 520.00265,160.63013 c -3.11639,-0.42811 -3.25089,0.1623 -3.25089,0.1623 0.67104,-1.09397 1.76585,-1.13152 2.80143,-1.31674 l -1.23896,-0.96126 c 1.26439,-0.22106 2.58227,-0.54688 3.23021,0.43745 l -0.0126,-1.26148 c 1.6587,1.13666 2.79549,2.88786 1.1635,3.61965 -1.63194,0.73181 -2.50212,0.17874 -3.76029,0.24816 z"
         id="path99451-1-5"
         sodipodi:nodetypes="cccccczcc"
         inkscape:transform-center-x="2.5888461"
         inkscape:transform-center-y="-3.5297725" />
      <path
         id="path3031-2-8-7"
         style="color:#000000;font-style:normal;font-variant:normal;font-weight:normal;font-stretch:normal;font-size:medium;line-height:normal;font-family:sans-serif;font-variant-ligatures:normal;font-variant-position:normal;font-variant-caps:normal;font-variant-numeric:normal;font-variant-alternates:normal;font-variant-east-asian:normal;font-feature-settings:normal;font-variation-settings:normal;text-indent:0;text-align:start;text-decoration:none;text-decoration-line:none;text-decoration-style:solid;text-decoration-color:#000000;letter-spacing:normal;word-spacing:normal;text-transform:none;writing-mode:lr-tb;direction:ltr;text-orientation:mixed;dominant-baseline:auto;baseline-shift:baseline;text-anchor:start;white-space:normal;shape-padding:0;shape-margin:0;inline-size:0;clip-rule:nonzero;display:inline;overflow:visible;visibility:visible;isolation:auto;mix-blend-mode:normal;color-interpolation:sRGB;color-interpolation-filters:linearRGB;solid-color:#000000;solid-opacity:1;fill:none;fill-opacity:1;fill-rule:nonzero;stroke:#000000;stroke-width:1.56424;stroke-linecap:butt;stroke-linejoin:miter;stroke-miterlimit:4;stroke-dasharray:none;stroke-dashoffset:0;stroke-opacity:1;color-rendering:auto;image-rendering:auto;shape-rendering:auto;text-rendering:auto;enable-background:accumulate;stop-color:#000000"
         d="m 554.9605,135.91818 c -4.67301,-0.0275 -9.46504,1.83701 -13.58295,5.83569 -5.40847,5.25185 -7.08844,9.97957 -6.13983,15.87814 l 0.25975,1.61825 -1.61669,-0.26277 c -11.88241,-1.92531 -26.58864,-0.95267 -43.32073,5.81583 4.91863,2.10841 13.94645,5.6273 23.96474,10.43823 l 3.17681,1.52658 -3.4534,0.69982 c -13.22886,2.68149 -28.92653,10.42703 -43.26426,27.33108 6.41399,-0.49858 19.5226,-2.04116 33.1943,-2.0201 7.59977,0.0126 15.08952,0.53749 21.19122,2.11943 6.10178,1.58196 10.97337,4.2524 12.80521,8.82913 l 0.12549,0.31326 -0.0594,0.33159 c -0.30085,1.70796 -0.59562,3.24627 -0.87408,4.50627 -0.63864,2.89028 -3.13715,5.22759 -6.41176,7.30877 -3.27462,2.08118 -7.42947,3.90001 -11.74628,5.44602 -8.63366,3.09198 -17.82225,5.06763 -21.87887,5.44447 -0.86223,0.0801 -1.20649,0.38988 -1.53876,0.99333 -0.33226,0.60335 -0.51557,1.55096 -0.54248,2.5427 -0.036,1.32425 0.14155,2.42886 0.28743,3.17836 26.40463,2.16445 46.04058,-4.42139 60.21051,-10.04399 15.92189,-7.30037 25.98525,-21.71682 28.16988,-34.69633 1.36908,-8.13276 1.07549,-12.11845 -0.24449,-15.51295 -1.32008,-3.39448 -3.85107,-6.40871 -7.06119,-12.16493 -2.06295,-3.69911 -3.21376,-7.32843 -3.92719,-10.70873 l -0.15102,-0.71207 0.56843,-0.45535 c 11.22992,-3.85684 13.40546,-9.25948 12.44766,-13.65174 -0.95781,-4.39224 -9.12085,-5.85197 -16.68196,-3.87053 l -0.56839,0.0593 -0.40041,-0.40798 c -3.68693,-3.75584 -8.26302,-5.68114 -12.93661,-5.70891 z m 2.07209,8.78792 c 2.02862,-0.0319 3.81856,1.37425 4.30456,3.38163 0.57163,2.36403 -0.84591,4.73525 -3.16619,5.29624 -2.3202,0.56146 -4.66484,-0.89989 -5.23668,-3.26395 -0.57165,-2.36403 0.84588,-4.73528 3.16616,-5.29628 0.30529,-0.0737 0.61788,-0.11294 0.93215,-0.11783 z"
         sodipodi:nodetypes="cscccccccccssccsssssccccssccczccsccsccccss" />
      <path
         style="fill:#2d2d2d;fill-opacity:1;stroke:#000000;stroke-width:1.56424;stroke-linecap:butt;stroke-linejoin:miter;stroke-miterlimit:4;stroke-dasharray:none;stroke-opacity:1"
         d="m 585.8022,144.54114 c -0.0339,-0.8377 -5e-5,-1.97494 -0.5186,-2.4977 -0.5186,-0.52267 -0.95888,-0.50405 -1.8247,-0.39428 -0.86582,0.1093 -1.95716,0.63148 -2.52789,1.31702 -0.57084,0.68553 -0.71162,1.82504 -0.55291,1.90418 0.15864,0.0792 2.18828,2.3113 3.25503,2.53397 1.06687,0.22258 1.31479,0.20858 1.85486,-0.40412 0.54002,-0.61116 0.34692,-1.62138 0.31428,-2.45907 z"
         id="path2653"
         sodipodi:nodetypes="zzzzzzzzz" />
    </g>
  </g>
</svg>
