<?xml version="1.0" encoding="UTF-8" standalone="no"?>
<svg
   sodipodi:docname="Bevy community logo.svg"
   inkscape:version="1.4 (e7c3feb1, 2024-10-09)"
   id="svg2321"
   version="1.1"
   viewBox="0 0 156.27629 43.322273"
   height="43.322273mm"
   width="156.27629mm"
   inkscape:export-filename="bevy_community_sticker.png"
   inkscape:export-xdpi="600"
   inkscape:export-ydpi="600"
   xml:space="preserve"
   xmlns:inkscape="http://www.inkscape.org/namespaces/inkscape"
   xmlns:sodipodi="http://sodipodi.sourceforge.net/DTD/sodipodi-0.dtd"
   xmlns:xlink="http://www.w3.org/1999/xlink"
   xmlns="http://www.w3.org/2000/svg"
   xmlns:svg="http://www.w3.org/2000/svg"
   xmlns:rdf="http://www.w3.org/1999/02/22-rdf-syntax-ns#"
   xmlns:cc="http://creativecommons.org/ns#"><defs
     id="defs2315"><inkscape:path-effect
       effect="fillet_chamfer"
       id="path-effect1"
       is_visible="true"
       lpeversion="1"
       nodesatellites_param="F,0,0,1,0,3.8655214,0,1 @ F,0,0,1,0,5.4631121,0,1 @ F,0,0,1,0,5.4631121,0,1 @ F,0,0,1,0,5.4631121,0,1"
       radius="5.4631117"
       unit="mm"
       method="auto"
       mode="F"
       chamfer_steps="1"
       flexible="false"
       use_knot_distance="true"
       apply_no_radius="true"
       apply_with_radius="true"
       only_selected="false"
       hide_knots="false" /><linearGradient
       id="linearGradient13"
       inkscape:collect="always"><stop
         style="stop-color:#dadada;stop-opacity:1;"
         offset="0"
         id="stop13" /><stop
         style="stop-color:#dadada;stop-opacity:0;"
         offset="1"
         id="stop14" /></linearGradient><linearGradient
       inkscape:collect="always"
       xlink:href="#linearGradient13"
       id="linearGradient14"
       x1="56.688713"
       y1="198.92563"
       x2="136.58455"
       y2="198.92563"
       gradientUnits="userSpaceOnUse" /></defs><sodipodi:namedview
     fit-margin-bottom="0"
     fit-margin-right="0"
     fit-margin-left="0"
     fit-margin-top="0"
     inkscape:window-maximized="1"
     inkscape:window-y="38"
     inkscape:window-x="0"
     inkscape:window-height="916"
     inkscape:window-width="1512"
     showgrid="true"
     inkscape:document-rotation="0"
     inkscape:current-layer="layer3"
     inkscape:document-units="mm"
     inkscape:cy="47.915489"
     inkscape:cx="50.658127"
     inkscape:zoom="3.0992066"
     inkscape:pageshadow="2"
     inkscape:pageopacity="0.0"
     borderopacity="1.0"
     bordercolor="#666666"
     pagecolor="#ffffff"
     id="base"
     inkscape:pagecheckerboard="true"
     inkscape:showpageshadow="2"
     inkscape:deskcolor="#d1d1d1"
     inkscape:lockguides="false"
     showguides="true"
     labelstyle="below"
     inkscape:clip-to-page="false"
     inkscape:antialias-rendering="true" /><metadata
     id="metadata2318"><rdf:RDF><cc:Work
         rdf:about="" /></rdf:RDF></metadata><g
     inkscape:groupmode="layer"
     id="layer3"
     inkscape:label="contour"
     style="display:inline"
     transform="translate(-43.696028,20.526188)"><path
       id="path819-1-94-5-3-1-9-6-4-90-0-8-9-5-8-6-1-6-2-4-4"
       style="display:none;fill:#000000;fill-opacity:1;stroke:#ffffff;stroke-width:6.7;stroke-linecap:round;stroke-linejoin:round;stroke-miterlimit:4;stroke-dasharray:none;stroke-opacity:1;paint-order:markers fill stroke"
       d="m 75.444887,-17.176094 c -1.580329,-0.0093 -3.200394,0.621236 -4.593002,1.973522 -1.829038,1.776068 -2.397682,3.374899 -2.076875,5.3696986 l 0.08785,0.5472534 -0.546736,-0.088883 c -4.018412,-0.651113 -8.991784,-0.3222112 -14.650269,1.966805 1.663382,0.7129992 4.716426,1.9030413 8.104415,3.5300171 l 1.074353,0.5162476 -1.167887,0.236678 c -4.47376,0.9068333 -9.782394,3.52623324 -14.631148,9.2428463 2.169081,-0.168592 6.602156,-0.690279 11.225671,-0.683162 0.02862,4.4e-5 0.05666,0.0015 0.08527,0.0016 -0.09199,0.565301 -0.156734,1.124199 -0.179317,1.656746 -0.153832,3.627525 1.20405,7.73509 5.465299,7.915796 0.05862,0.0025 0.116662,-0.0034 0.175183,-0.0026 -0.157936,0.05934 -0.303458,0.129409 -0.46302,0.186552 -2.91973,1.04566 -6.027168,1.713781 -7.399032,1.841231 -0.291598,0.02709 -0.408013,0.131824 -0.520382,0.335897 -0.112368,0.204046 -0.174349,0.52451 -0.183451,0.859896 -0.01217,0.447833 0.057,0.681591 0.183451,0.858862 0.126444,0.177271 0.324126,0.248215 0.527617,0.262 8.620707,0.583459 15.066663,-1.585071 19.748148,-3.442684 5.384482,-2.468853 8.787729,-7.344213 9.526551,-11.73365 0.462994,-2.750344 0.363673,-4.09824406 -0.08268,-5.2461921 -0.446431,-1.1479979 -1.302356,-2.1673652 -2.387968,-4.1140106 -0.697653,-1.2509764 -1.08681,-2.4783521 -1.328084,-3.6214844 l -0.05116,-0.2408121 0.192237,-0.1539958 c 1.995038,-1.599301 3.619726,-3.345503 4.209562,-4.616773 -1.210257,-1.287145 -3.301647,-1.559181 -5.641516,-1.308964 l -0.192237,0.02015 -0.135392,-0.137976 c -1.246849,-1.270159 -2.794412,-1.921238 -4.374927,-1.930631 z m 0.700732,2.971911 c 0.686065,-0.01085 1.291366,0.464759 1.455725,1.1436 0.193331,0.799465 -0.286061,1.601399 -1.070736,1.791105 -0.784648,0.189865 -1.577567,-0.304318 -1.770951,-1.103809 -0.193331,-0.799465 0.286062,-1.601399 1.070736,-1.791105 0.103241,-0.02487 0.208943,-0.03823 0.315226,-0.03979 z m 36.757441,1.043864 c -1.5154,0 -2.98866,0.08839 -4.41988,0.266134 -1.43122,0.148136 -2.62394,0.40003 -3.57808,0.755509 -0.56126,0.207378 -1.00993,0.488902 -1.34669,0.844393 -0.30869,0.32587 -0.46302,0.800015 -0.46302,1.4221355 V 10.879557 c 0,1.492146 0.73983,2.543994 2.18798,3.174484 -0.006,0.845972 0.9609,1.22885 1.69241,1.259871 0.32778,0.0139 0.68028,-0.03674 0.9927,-0.176733 0.1742,-0.07806 0.29483,-0.177402 0.39739,-0.286288 0.30575,0.05256 0.61152,0.120887 0.91726,0.161231 0.70157,0.08887 1.37509,0.14818 2.02055,0.177767 0.64544,0.02971 1.20654,0.04444 1.68362,0.04444 2.09318,0 3.91064,-0.210336 5.47098,-0.617016 0.006,0.02172 0.01,0.04606 0.0155,0.0677 0.26516,0.974486 0.57438,1.42532 1.75442,1.475362 1.07077,0.04541 1.79046,-0.405692 1.83865,-1.542025 0.0301,-0.709818 -0.20896,-0.957721 -0.39946,-1.350305 0.0656,-0.04202 0.13824,-0.07858 0.20205,-0.121956 2.07667,-1.421975 3.11506,-3.599621 3.11506,-6.532418 0,-1.658972 -0.47729,-3.036472 -1.43144,-4.132564 -0.92608,-1.096104 -2.09069,-1.85178606 -3.49384,-2.26652906 1.23477,-0.444363 2.21695,-1.140265 2.94659,-2.08824394 0.72964,-0.9776 1.0945,-2.1328369 1.0945,-3.4659387 0,-2.6662036 -0.96786,-4.6363964 -2.90421,-5.9102333 -1.93635,-1.27385 -4.70096,-1.910478 -8.29304,-1.910478 z m 61.66704,0.621668 c -0.92608,0 -1.71203,0.222251 -2.35748,0.666626 -0.61739,0.444351 -1.10847,0.933317 -1.47329,1.466577 0.42096,1.1257118 0.96825,2.3698664 1.64176,3.7325884 0.67351,1.3331019 1.40324,2.6957924 2.18901,4.0881226 0.78575,1.392354 1.5855,2.75502094 2.39934,4.088123 0.24217,0.396689 0.44426,0.708476 0.67644,1.084171 -0.30798,0.185261 -0.53475,0.472277 -0.55294,0.901237 -0.0483,1.139371 1.18106,3.640855 2.14923,5.420341 v 2.237073 c 0,1.452319 0.31483,2.413509 0.93534,2.897497 -0.0457,0.735385 -0.0915,1.470753 -0.12247,2.201933 -0.0593,1.398564 0.0506,2.936016 1.79885,3.010152 0.65558,0.0278 1.62877,-0.215533 1.66398,-1.045931 0.0158,-0.371493 0.0784,-0.806752 0.0305,-1.224731 -0.0307,-0.307789 -0.0171,-0.635609 -0.004,-0.941545 0.0189,-0.446951 0.0524,-0.889706 0.0811,-1.333768 0.45656,-0.01749 0.91226,-0.03273 1.3839,-0.09767 0.64544,-0.08887 1.12275,-0.177778 1.43143,-0.26665 v -6.33398 c 0.41379,-0.500249 0.82783,-1.001672 1.27176,-1.46761 0.45744,-0.462223 1.4639,-0.966618 1.49448,-1.687753 0.0352,-0.830397 -0.93214,-1.243653 -1.63142,-1.273307 -0.0486,-0.0021 -0.0951,0.0073 -0.14315,0.0083 1.10345,-1.899491 2.21043,-3.80423606 2.92282,-5.109249 0.98221,-1.7478446 1.72625,-3.1253327 2.23139,-4.1325641 0.50512,-1.0368396 0.82758,-1.8073544 0.9679,-2.31097 0.14032,-0.5036158 0.21032,-0.9328029 0.21032,-1.2882935 0,-1.0960914 -0.35055,-1.9110474 -1.05213,-2.4442954 -0.6735,-0.562868 -1.50135,-0.844392 -2.48357,-0.844392 -0.56125,0 -1.15045,0.07408 -1.76785,0.222208 -0.61739,0.148126 -1.179,0.355566 -1.68413,0.622184 -0.39288,1.066484 -0.74345,2.0147973 -1.05214,2.844271 -0.3087,0.7998659 -0.60355,1.5846734 -0.88418,2.354895 -0.28063,0.7406135 -0.57497,1.4962947 -0.88367,2.2665283 -0.28063,0.7406014 -0.6174,1.5698617 -1.01027,2.4882207 h -0.2527 l -3.49384,-7.4207661 c -0.61739,-1.3034689 -1.27713,-2.1925199 -1.97869,-2.6665039 -0.67352,-0.473995 -1.55707,-0.711067 -2.65152,-0.711067 z m -25.51575,5.16e-4 c -0.8419,0 -1.64163,0.177294 -2.39934,0.532784 -0.72965,0.325871 -1.29126,0.6963 -1.68414,1.111044 0.3087,1.3034686 0.67356,2.6957908 1.09451,4.1770057 0.42094,1.4812148 0.87012,2.9920725 1.3472,4.5325393 0.47708,1.54046794 0.96817,3.06614697 1.4733,4.576982 0.33098,0.919477 0.63122,1.758117 0.94051,2.620512 -0.004,0.412563 0.0211,0.826189 0.004,1.238167 -0.0417,0.983365 -0.019,2.516662 -0.17002,3.495394 -0.002,0.0437 -0.009,0.218681 -0.0966,0.214974 -0.51149,-0.328176 -1.55613,-6.151672 -5.48959,-6.318477 -2.18526,-0.09267 -3.3485,0.492682 -3.45043,2.896464 -0.02,0.470732 -0.065,1.305797 -0.10129,1.985408 h -4.01526 c 10e-4,-0.0046 0.003,-0.0099 0.005,-0.01447 0.37876,-1.18799 0.81885,-2.789448 0.87075,-4.013191 0.0103,-0.243363 -0.0268,-0.453458 -0.0961,-0.638204 h 3.38377 c 0.75772,0 1.36122,-0.237085 1.81023,-0.711068 0.44902,-0.473984 0.67334,-1.273613 0.67334,-2.39933706 0,-0.592488 -0.0843,-1.140728 -0.25269,-1.644344 C 142.76117,-1.429188 142.59306,-1.858892 142.39662,-2.184762 h -9.47126 v -4.1325634 h 8.88163 c 0.75771,0 1.36122,-0.2370721 1.81022,-0.7110677 0.47708,-0.4739834 0.71572,-1.2736244 0.71572,-2.3993367 0,-0.5925002 -0.0843,-1.1555382 -0.2527,-1.6887862 -0.14032,-0.533224 -0.30843,-0.962435 -0.50487,-1.288293 h -13.89115 c -1.20671,0 -2.1613,0.369937 -2.86287,1.110526 -0.70158,0.740613 -1.05213,1.7481889 -1.05213,3.0220382 V 6.709269 c -0.068,0.635317 -0.13628,1.270841 -0.1633,1.907894 -0.13344,3.146769 0.52186,6.786562 4.41162,6.951514 1.12199,0.04758 2.07311,-0.311836 2.88251,-0.912089 h 7.41712 c 0.001,0.04665 -0.002,0.12269 -5.2e-4,0.166915 0.0242,0.460757 -0.0856,0.981454 0.18087,1.408699 0.32832,0.517436 1.04207,0.722631 1.61024,0.746725 0.78669,0.03336 1.74143,-0.276287 1.78128,-1.215947 0.0295,-0.696316 0.0275,-1.346655 0.0176,-1.985408 0.38941,-0.509302 0.5948,-1.2588 0.5948,-2.27583 0,-0.592488 -0.0843,-1.155538 -0.2527,-1.688786 -0.10023,-0.380926 -0.21986,-0.689805 -0.34882,-0.964799 0.0172,-0.71569 0.0628,-1.948157 0.45166,-1.931665 0.10926,0.0046 0.19498,0.05192 0.25683,0.14211 1.37794,2.094377 1.90242,4.699636 3.54035,7.374227 0.38925,0.629479 1.02435,2.167324 1.76733,2.198832 0.39335,0.01668 1.1409,-0.06151 1.47795,-0.266134 0.65041,-0.366471 0.92411,-1.142704 1.04025,-1.816426 0.1357,-0.831303 0.20455,-1.45476 0.31161,-2.185913 0.0662,0.149101 0.16298,0.382095 0.22375,0.516247 0.3087,0.651742 0.8841,1.169833 1.726,1.554944 0.52482,0.221618 1.1385,0.349572 1.7942,0.433049 0.0593,1.042409 0.70144,1.390233 1.73995,1.372009 0.83225,-0.0085 1.52728,-0.394775 1.7601,-1.238684 -0.002,-0.115724 0.0206,-0.226533 0.0269,-0.338998 0.13208,-0.03532 0.27567,-0.05214 0.40359,-0.09405 0.84189,-0.266618 1.4592,-0.577269 1.85209,-0.932759 0.30869,-0.444364 0.71598,-1.229688 1.22111,-2.355412 0.50513,-1.155333 1.03811,-2.47357 1.59939,-3.954797 0.25407,-0.651392 0.49525,-1.384691 0.74414,-2.069125 0.26272,0.0055 0.52548,0.01081 0.78238,0.0217 0.26223,0.01112 0.49419,0.218212 0.48214,0.502295 l -0.41031,9.680546 c -0.0167,0.393346 -0.0991,0.783843 -0.11576,1.177189 -0.0482,1.136334 0.5385,1.752219 1.67484,1.800407 0.43705,0.01853 0.92288,-0.07041 1.28364,-0.31781 0.51836,-0.350179 0.51644,-0.831748 0.54053,-1.399914 l 0.47181,-11.122836 c 0.0185,-0.437051 0.20783,-0.254154 0.5147,-0.263033 l 1.53272,-5.16e-4 c 0.70021,0.0078 1.576,0.0012 2.06086,-0.591179 0.13853,-0.16926 0.21128,-0.341278 0.21962,-0.537952 0.0417,-0.983365 -1.126,-1.317353 -1.89084,-1.349788 -0.4589,-0.01946 -0.92045,0.02655 -1.38028,0.02894 -1.62957,-0.0039 -3.25737,-0.05937 -4.88652,-0.07338 0.0334,-0.09955 0.069,-0.184563 0.10232,-0.284737 0.58933,-1.68858006 1.10853,-3.30316506 1.55753,-4.843632 0.47706,-1.5700876 0.85573,-2.9772307 1.13636,-4.2214478 0.3087,-1.2442171 0.46302,-2.1920012 0.46302,-2.8437541 0,-1.1257241 -0.36486,-1.9258701 -1.0945,-2.3998531 -0.72965,-0.503615 -1.61319,-0.754993 -2.65152,-0.754993 -0.72964,0 -1.38936,0.08839 -1.97869,0.266134 -0.56125,0.177745 -1.09424,0.400008 -1.59939,0.666626 -0.72963,3.2586796 -1.50179,6.5322765 -2.31562,9.820589 -0.26647,1.11511094 -0.52174,2.03201094 -0.78496,3.089217 -0.28357,-0.107195 -0.58678,-0.1765 -0.87799,-0.173116 -0.8104,0.0094 -1.76809,0.406725 -1.76423,1.348238 0.004,0.941513 0.9713,1.354406 1.78077,1.366842 0.0734,-7.5e-4 0.14806,-0.02274 0.22272,-0.02997 -0.13069,0.506585 -0.26389,1.057241 -0.39377,1.549259 -0.59834,0.02052 -0.97541,0.158988 -1.20716,0.412895 -0.67579,-2.299937 -1.34561,-4.575645 -1.98438,-6.71897006 -0.75771,-2.66619154 -1.51554,-5.45082264 -2.27324,-8.35401194 -0.30869,-1.244217 -0.7998,-2.088815 -1.4733,-2.533179 -0.64545,-0.473994 -1.48709,-0.71055 -2.52542,-0.71055 z m -63.092793,1.815393 c -0.505566,-0.01032 -1.034974,0.04286 -1.581815,0.167432 -0.03688,0.0085 -0.06863,0.01877 -0.104903,0.02739 -0.601662,0.5948089 -1.27336,1.1918673 -1.992127,1.7771521 0.231405,1.0212123 0.575073,2.0856979 1.182874,3.1755167 1.054946,1.8916385 1.924121,2.9013362 2.434476,4.2136962 0.510354,1.31235994 0.598993,2.856052 0.125574,5.668388 -0.586925,3.486679 -2.709434,7.178779 -6.074564,9.904305 2.611887,-0.761788 4.838826,-2.167348 6.312793,-3.870048 0.258795,-0.298958 0.448477,-0.547512 0.654223,-0.807703 -0.04326,0.460497 -0.07103,0.919655 -0.09819,1.379244 -1.945048,2.219032 -5.000927,3.934621 -8.529712,4.517037 -0.661855,0.422566 -1.36052,0.809859 -2.095479,1.154452 2.768018,1.042062 5.662763,1.098851 7.957653,0.345715 3.314497,-1.087696 3.746267,-1.981072 4.776453,-3.77703 0.01754,-0.0016 0.03878,-8.84e-4 0.05581,-0.0026 1.013558,-0.154045 1.301113,-0.733368 1.363741,-1.693954 0.0086,-0.150266 0.02147,-0.307028 0.02997,-0.458886 0.39021,-0.456697 0.793461,-0.871019 1.206645,-1.213363 0.208564,0.09095 0.411603,0.162731 0.618567,0.24598 0.432559,0.916498 1.028215,1.680029 1.941483,1.718758 0.109263,0.0046 0.218473,0.0095 0.328662,-0.0078 0.645576,-0.05919 1.076303,-0.355416 1.437122,-0.749309 0.195032,0.0076 0.40542,0.03032 0.573092,0.01137 0.158196,-0.36676 0.233271,-0.748731 0.242362,-1.139982 0.299825,-0.493145 1.927662,-3.22112 1.99161,-3.218408 0.126482,0.114823 0.05857,0.681458 0.05116,0.856278 -0.07321,1.726353 -0.278297,3.469048 -0.352433,5.217253 -0.04541,1.070775 0.67685,1.583112 1.682066,1.62574 1.90117,0.08062 1.88198,-1.014797 1.94406,-2.478918 0.0482,-1.136333 0.14106,-2.292767 0.19017,-3.450952 0.0695,-1.638942 0.0957,-3.280066 -0.0315,-4.927348 -0.0857,-1.076336 -0.11165,-2.018394 -1.36891,-2.31252 -0.13019,-0.02741 -0.28229,-0.05593 -0.41341,-0.0615 -1.983673,-0.08412 -3.633578,2.293522 -4.783165,4.133597 0.262709,-2.316798 -1.059742,-4.46344506 -3.594096,-5.29270006 -0.761339,-0.249105 -1.445484,-0.366286 -2.075325,-0.353983 v 0.001 c -0.0042,7.9e-5 -0.0082,0 -0.0124,0 -0.181391,0.567537 -0.309976,1.188774 -0.398426,1.84278106 -0.390166,0.132794 -0.674358,0.382552 -0.888318,0.70435 0.06037,-1.20264603 0.316827,-2.26282406 0.645439,-3.1956701 l 0.08165,-0.2315109 0.243913,-0.03204 c 2.177098,-0.28239 4.144304,-0.837945 5.161442,-1.494482 -0.326734,-1.46902 -1.714178,-2.6088623 -3.552238,-3.4752404 l -0.175183,-0.082682 -0.04393,-0.188619 C 90.44546,-9.0558441 88.490455,-10.670284 85.961568,-10.722804 Z m 1.265556,3.0918013 a 1.2760617,1.3001385 17.729059 0 1 0.383439,0.059428 1.2760617,1.3001385 17.729059 0 1 0.819589,1.6267741 1.2760617,1.3001385 17.729059 0 1 -1.611788,0.8500773 1.2760617,1.3001385 17.729059 0 1 -0.819072,-1.6267741 1.2760617,1.3001385 17.729059 0 1 1.227832,-0.9095053 z m 25.760187,0.3358969 c 1.26284,0 2.20311,0.2370842 2.8205,0.7110677 0.64545,0.4740074 0.96841,1.1111405 0.96841,1.9109944 0,0.9183468 -0.28106,1.6142497 -0.84232,2.0882447 -0.5332,0.473983 -1.40295,0.711068 -2.60966,0.711068 h -3.07268 v -5.2430912 c 0.30869,-0.059289 0.72925,-0.1037412 1.26245,-0.1333252 0.56126,-0.029704 1.05235,-0.044958 1.4733,-0.044958 z m -0.339,10.8427488 h 1.05471 c 0.56577,0 1.05669,0.048 1.49294,0.131258 -0.45191,0.778719 -0.8805,1.598818 -1.11363,2.019515 -0.14224,0.256671 -0.31641,0.227442 -0.41548,-0.01757 -0.34217,-0.71574 -0.66181,-1.436068 -1.01854,-2.133203 z m 20.27628,0.311092 h 1.03301 c -0.10373,0.323306 -0.097,0.684306 -0.13952,1.056267 -0.11351,0.911934 -0.43439,2.262668 -0.89194,3.609598 h -0.002 z M 61.902561,5.58479 c 1.263701,0.110859 2.464012,0.289174 3.535185,0.566891 2.063512,0.534987 3.939121,1.759536 4.203361,2.656685 0.264239,0.897149 0.114596,1.36941 -0.145728,2.071191 -0.167388,0.451246 -0.576017,1.04884 -1.128097,1.608171 -0.225135,-0.567137 -0.975071,-0.888309 -1.535823,-0.912089 -1.02707,-0.04355 -2.079865,1.028098 -3.085083,0.985469 -0.284083,-0.01205 -0.499029,-0.108549 -0.711068,-0.270784 -1.271305,-0.995262 -1.380248,-3.582967 -1.317232,-5.068941 0.02287,-0.539346 0.0918,-1.088585 0.184485,-1.636593 z m 48.348989,0.406694 c 0.0506,0.02411 0.10519,0.05198 0.13539,0.119372 0.46276,0.960974 0.83649,1.961994 1.30018,2.901115 0.0361,0.07445 0.0697,0.149137 0.10438,0.224276 -0.009,-4.11e-4 -0.0161,-10e-5 -0.0248,-5.17e-4 -0.61739,-0.05929 -1.12227,-0.148194 -1.51515,-0.26665 z m 6.58306,1.076936 c 0.0567,0.01882 0.10781,0.09768 0.13642,0.197404 0.0376,0.15312 0.0681,0.324476 0.10387,0.482142 -0.18643,0.321348 -0.4316,0.60138 -0.76223,0.821138 -0.087,0.05652 -0.18595,0.09853 -0.27853,0.148311 0.19166,-0.502215 0.38031,-0.993868 0.632,-1.486731 0.0497,-0.140188 0.1118,-0.181086 0.16847,-0.162264 z"
       inkscape:label="contour_light" /><path
       id="path819-1-94-5-3-1-9-6-4-90-0-8-9-5-8-6-1-6-2-4"
       style="display:inline;fill:#232326;fill-opacity:1;stroke:#232326;stroke-width:6.4;stroke-linecap:round;stroke-linejoin:round;stroke-miterlimit:4;stroke-dasharray:none;stroke-opacity:1;paint-order:markers fill stroke"
       d="m 75.445005,-17.175697 c -1.580329,-0.0093 -3.200394,0.621236 -4.593002,1.973522 -1.829038,1.776068 -2.397682,3.374899 -2.076875,5.3696986 l 0.08785,0.5472534 -0.546736,-0.088883 c -4.018412,-0.651113 -8.991784,-0.3222112 -14.650269,1.966805 1.663382,0.7129992 4.716426,1.9030413 8.104415,3.5300171 l 1.074353,0.5162476 -1.167887,0.236678 c -4.47376,0.9068329 -9.782394,3.52623285 -14.631148,9.2428467 2.169081,-0.1685925 6.602156,-0.6902796 11.225671,-0.6831624 0.02862,4.42e-5 0.05666,0.00146 0.08527,0.00155 -0.09199,0.5653006 -0.156734,1.1241992 -0.179317,1.6567464 -0.153832,3.6275246 1.20405,7.7350896 5.465299,7.9157956 0.05862,0.0025 0.116662,-0.0034 0.175183,-0.0026 -0.157936,0.05934 -0.303458,0.129409 -0.46302,0.186552 -2.91973,1.04566 -6.027168,1.713781 -7.399032,1.841231 -0.291598,0.02709 -0.408013,0.131824 -0.520382,0.335897 -0.112368,0.204046 -0.174349,0.52451 -0.183451,0.859896 -0.01217,0.447833 0.057,0.681591 0.183451,0.858862 0.126444,0.177271 0.324126,0.248215 0.527617,0.262 8.620707,0.583459 15.066663,-1.585071 19.748148,-3.442684 3.858361,-1.769107 14.354616,-8.0062489 7.055903,-21.0938027 -0.697653,-1.2509764 -1.08681,-2.4783521 -1.328084,-3.6214844 l -0.05116,-0.2408121 0.192237,-0.1539958 c 1.995038,-1.599301 0.907915,-6.175954 -1.431954,-5.925737 l -0.192237,0.02015 -0.135392,-0.137976 c -1.246849,-1.270159 -2.794412,-1.921238 -4.374927,-1.930631 z m 0.700732,2.971911 c 0.686065,-0.01085 1.291366,0.464759 1.455725,1.1436 0.193331,0.799465 -0.286061,1.601399 -1.070736,1.791105 -0.784648,0.189865 -1.577567,-0.304318 -1.770951,-1.103809 -0.193331,-0.799465 0.286062,-1.601399 1.070736,-1.791105 0.103241,-0.02487 0.208943,-0.03823 0.315226,-0.03979 z m 6.137093,5.4534151 c 3.667215,8.73259541 6.604872,15.1883232 -2.33164,22.9619059 20.3809,-5.9443328 2.747872,0.490877 -1.660886,1.21853 -0.661855,0.422566 -1.36052,0.809859 -2.095479,1.154452 2.768018,1.042062 6.806772,-25.9201727 6.088005,-25.3348879 z M 61.902679,5.5851871 c 1.263701,0.1108591 2.464012,0.289174 3.535185,0.5668905 2.063512,0.5349875 3.939121,1.7595362 4.203361,2.6566854 0.264239,0.8971491 0.114596,1.36941 -0.145728,2.071191 -0.167388,0.451246 -0.576017,1.04884 -1.128097,1.608171 -0.225135,-0.567137 -0.975071,-0.888309 -1.535823,-0.912089 -1.02707,-0.04355 -2.079865,1.028098 -3.085083,0.985469 -0.284083,-0.01205 -0.499029,-0.108549 -0.711068,-0.270784 -1.271305,-0.995262 -1.380248,-3.5829672 -1.317232,-5.0689413 0.02287,-0.5393459 0.0918,-1.0885847 0.184485,-1.6365926 z"
       inkscape:label="contour_black"
       sodipodi:nodetypes="ccccccccccscscccsccsccsccccccccccccccccccccssscsscsc" /><rect
       style="display:none;fill:#ffffff;fill-opacity:1;stroke:none;stroke-width:3.04917;stroke-dasharray:none;stroke-dashoffset:0;stroke-opacity:1"
       id="rect20"
       width="125.97763"
       height="43.031086"
       x="71.222694"
       y="-20.380188"
       ry="9.3530169" /><path
       style="display:inline;fill:#232326;fill-opacity:1;stroke:none;stroke-width:2.683;stroke-dasharray:none;stroke-dashoffset:0;stroke-opacity:1"
       id="rect20-7"
       width="128.74962"
       height="43.031086"
       x="71.222694"
       y="-20.380188"
       ry="0"
       inkscape:label="rect20-black"
       inkscape:path-effect="#path-effect1"
       sodipodi:type="rect"
       rx="0"
       d="m 75.088216,-20.380188 119.420984,0 a 5.4631121,5.4631121 45 0 1 5.46311,5.463112 v 32.104862 a 5.4631121,5.4631121 135 0 1 -5.46311,5.463112 H 76.685806 a 5.4631121,5.4631121 45 0 1 -5.463112,-5.463112 v -33.702453 a 3.8655214,3.8655214 135 0 1 3.865522,-3.865521 z" /></g><g
     transform="translate(-30.02964,-120.51583)"
     id="layer1"
     inkscape:groupmode="layer"
     inkscape:label="Layer 1"
     style="display:none"><g
       id="g1911-8-3-9-3-2-8"
       transform="translate(-517.96199,-278.01119)"
       inkscape:export-filename="/home/carter/code/bevy/assets/bevy_logo_dark.png"
       inkscape:export-xdpi="81.422768"
       inkscape:export-ydpi="81.422768"
       style="opacity:1;fill:#c3c3c3;fill-opacity:1;stroke:#dadada;stroke-width:1.1;stroke-miterlimit:4;stroke-dasharray:none;stroke-opacity:1;paint-order:markers stroke fill"><g
         transform="matrix(-0.40426719,-0.17438247,-0.17438247,0.40426719,678.77611,389.84765)"
         style="fill:#c3c3c3;fill-opacity:1;stroke:#dadada;stroke-width:2.49844;stroke-miterlimit:4;stroke-dasharray:none;stroke-opacity:1;paint-order:markers stroke fill"
         id="g1121-3-8-8-2-8-7-1-2-8-3-9-6-0-1"
         inkscape:export-filename="/home/carter/code/bevy/assets/temp_bevy_logo.png"
         inkscape:export-xdpi="81.422768"
         inkscape:export-ydpi="81.422768"><path
           inkscape:connector-curvature="0"
           id="path819-1-94-5-3-1-9-6-4-90-0-8-9-5-8-6-1-6-2"
           style="fill:#c3c3c3;fill-opacity:1;stroke:#dadada;stroke-width:4.15748;stroke-linecap:butt;stroke-linejoin:miter;stroke-miterlimit:4;stroke-dasharray:none;stroke-opacity:1;paint-order:markers stroke fill"
           d="m 2246.0312,2340.1914 v 0 c -0.016,3e-4 -0.031,0 -0.047,0 -0.9804,3.0675 -1.7386,6.3997 -1.8828,10.1953 -0.2712,7.1263 0.453,11.4639 -0.3672,16.0801 -0.8202,4.6163 -3.2453,9.161 -9.4141,16.2871 -7.3424,8.482 -18.9789,15.0453 -32.4199,17.2637 -2.5015,1.5971 -5.1421,3.0609 -7.9199,4.3633 10.4618,3.9385 21.4025,4.1531 30.0761,1.3066 15.2793,-5.0141 14.0962,-8.6155 20.9434,-19.1074 2.1569,-3.3051 4.6474,-5.8282 7.1484,-7.9004 7.1248,3.1068 14.1431,5.1015 18.5157,4.6074 2.351,-5.4505 -0.057,-11.7712 -4.0586,-17.7461 3.2821,-10.196 -1.6986,-20.4059 -12.7305,-24.0156 -2.8775,-0.9415 -5.4633,-1.3844 -7.8438,-1.3379 z m 8.2754,14.9707 a 4.1668789,4.2454995 48.679502 0 1 3.1973,1.3965 4.1668789,4.2454995 48.679502 0 1 -0.4375,5.9336 4.1668789,4.2454995 48.679502 0 1 -5.9394,-0.3262 4.1668789,4.2454995 48.679502 0 1 0.4375,-5.9336 4.1668789,4.2454995 48.679502 0 1 2.7421,-1.0703 z m -68.375,45.3789 c 0.1273,0.075 0.2572,0.1408 0.3848,0.2149 0.131,-0.049 0.2642,-0.1009 0.3945,-0.1504 -0.2598,-0.023 -0.5188,-0.039 -0.7793,-0.064 z"
           transform="matrix(-0.55180403,-0.23802315,-0.23802315,0.55180403,1946.7322,-620.612)" /></g></g><g
       id="g1051-1-2-0-8-6-0-8-1-5-6-9-6-8-9"
       transform="matrix(-0.45399624,0.36689705,0.36689705,0.45399624,73.527335,10.816805)"
       style="opacity:1;fill:#ececec;fill-opacity:1;stroke:#dadada;stroke-width:1.88447;stroke-miterlimit:4;stroke-dasharray:none;stroke-opacity:1;paint-order:markers stroke fill"
       inkscape:export-filename="/home/carter/code/bevy/assets/bevy_logo_dark.png"
       inkscape:export-xdpi="81.422768"
       inkscape:export-ydpi="81.422768"><g
         id="g3029-3-9-3"
         transform="matrix(-0.35254083,0.28490586,0.28490586,0.35254083,477.11004,-1021.7666)"
         style="opacity:1;fill:#282828;fill-opacity:1;stroke:#dadada;stroke-width:4.15748;stroke-miterlimit:4;stroke-dasharray:none;stroke-opacity:1;paint-order:markers stroke fill"><path
           inkscape:connector-curvature="0"
           id="path3031-2-2-9"
           style="color:#000000;font-style:normal;font-variant:normal;font-weight:normal;font-stretch:normal;font-size:medium;line-height:normal;font-family:sans-serif;font-variant-ligatures:normal;font-variant-position:normal;font-variant-caps:normal;font-variant-numeric:normal;font-variant-alternates:normal;font-variant-east-asian:normal;font-feature-settings:normal;font-variation-settings:normal;text-indent:0;text-align:start;text-decoration:none;text-decoration-line:none;text-decoration-style:solid;text-decoration-color:#000000;letter-spacing:normal;word-spacing:normal;text-transform:none;writing-mode:lr-tb;direction:ltr;text-orientation:mixed;dominant-baseline:auto;baseline-shift:baseline;text-anchor:start;white-space:normal;shape-padding:0;shape-margin:0;inline-size:0;clip-rule:nonzero;display:inline;overflow:visible;visibility:visible;isolation:auto;mix-blend-mode:normal;color-interpolation:sRGB;color-interpolation-filters:linearRGB;solid-color:#000000;solid-opacity:1;fill:#282828;fill-opacity:1;fill-rule:nonzero;stroke:#dadada;stroke-width:4.15748;stroke-linecap:butt;stroke-linejoin:miter;stroke-miterlimit:4;stroke-dasharray:none;stroke-dashoffset:0;stroke-opacity:1;paint-order:markers stroke fill;color-rendering:auto;image-rendering:auto;shape-rendering:auto;text-rendering:auto;enable-background:accumulate;stop-color:#000000;stop-opacity:1"
           d="m 2191.1465,2276.7832 c -5.9729,-0.035 -12.0979,2.348 -17.3613,7.459 -6.9129,6.7127 -9.0602,12.7555 -7.8477,20.2949 l 0.332,2.0684 -2.0664,-0.336 c -15.1877,-2.4609 -33.9847,-1.2178 -55.3711,7.4336 6.2868,2.6948 17.8259,7.1926 30.6309,13.3418 l 4.0605,1.9512 -4.414,0.8945 c -16.9087,3.4274 -36.9729,13.3275 -55.2989,34.9336 8.1981,-0.6372 24.9531,-2.6089 42.4278,-2.582 9.7138,0.015 19.2869,0.687 27.0859,2.709 7.7991,2.022 14.8874,6.6498 15.8861,10.0406 0.9987,3.3908 0.432,5.1761 -0.5519,7.8285 -0.9839,2.6524 -4.0098,6.6817 -8.1953,9.3418 -4.1855,2.6601 -9.4961,4.9849 -15.0137,6.9609 -11.0352,3.9521 -22.7798,6.4773 -27.9648,6.959 -1.1021,0.1024 -1.5421,0.4983 -1.9668,1.2696 -0.4247,0.7712 -0.659,1.9824 -0.6934,3.25 -0.046,1.6926 0.217,2.576 0.6949,3.246 0.4779,0.67 1.2243,0.9381 1.9934,0.9902 32.5822,2.2052 56.9441,-5.9907 74.6379,-13.0116 20.3508,-9.3311 33.2134,-27.7577 36.0058,-44.3477 1.7499,-10.395 1.3746,-15.4894 -0.3124,-19.8281 -1.6873,-4.3387 -4.9223,-8.1914 -9.0254,-15.5488 -2.6368,-4.7281 -4.1077,-9.367 -5.0196,-13.6875 l -0.1933,-0.9102 0.7265,-0.582 c 7.5403,-6.0446 13.6809,-12.6444 15.9102,-17.4492 -4.5742,-4.8648 -12.4787,-5.893 -21.3223,-4.9473 l -0.7265,0.076 -0.5118,-0.5215 c -4.7125,-4.8006 -10.5615,-7.2614 -16.5351,-7.2969 z m 2.6484,11.2324 c 2.593,-0.041 4.8808,1.7566 5.502,4.3223 0.7307,3.0216 -1.0812,6.0525 -4.0469,6.7695 -2.9656,0.7176 -5.9625,-1.1502 -6.6934,-4.1719 -0.7307,-3.0216 1.0812,-6.0525 4.0469,-6.7695 0.3902,-0.094 0.7897,-0.1445 1.1914,-0.1504 z"
           transform="translate(5.0092774e-5,-757.87625)"
           sodipodi:nodetypes="cccccccccccczzzcscczscccsccccccccccccccc" /></g></g><g
       style="opacity:1;fill:#757575;fill-opacity:1;stroke:#dadada;stroke-width:2.1586;stroke-linecap:square;stroke-linejoin:round;stroke-miterlimit:4;stroke-dasharray:none;stroke-opacity:1;paint-order:markers stroke fill"
       id="g1051-1-1-8-8-4-9-4-0-4-6-4-7-6-6-0"
       transform="matrix(-0.50509374,0.06754889,0.06754889,0.50509374,156.75523,55.243465)"
       inkscape:export-filename="/home/carter/code/bevy/assets/bevy_logo_dark.png"
       inkscape:export-xdpi="81.422768"
       inkscape:export-ydpi="81.422768"><g
         style="fill:#757575;fill-opacity:1;stroke:#dadada;stroke-width:2.1586;stroke-linecap:square;stroke-linejoin:round;stroke-miterlimit:4;stroke-dasharray:none;stroke-opacity:1;paint-order:markers stroke fill"
         id="g1129-5-9-8-0-7-2-7-3-8-61-1-6-8"
         transform="translate(-20.244579,-6.1209206)"><g
           style="fill:#757575;fill-opacity:1;stroke:#dadada;stroke-width:2.1586;stroke-linecap:square;stroke-linejoin:round;stroke-miterlimit:4;stroke-dasharray:none;stroke-opacity:1;paint-order:markers stroke fill"
           id="g1344-1-3-9-3-8-8-8-3-5-4-8"
           transform="translate(61.54776,-5.6726683)"><g
             id="g1121-7-7-2-3-3-7-4-5-8-2-5-9-5"
             style="fill:#757575;fill-opacity:1;stroke:#dadada;stroke-width:2.1586;stroke-linecap:square;stroke-linejoin:round;stroke-miterlimit:4;stroke-dasharray:none;stroke-opacity:1;paint-order:markers stroke fill"><g
               id="g3006-4-5-0"
               transform="matrix(-0.514626,0.06882369,0.06882369,0.514626,1184.3644,-811.9091)"
               style="opacity:1;fill:#757575;fill-opacity:1;stroke:#dadada;stroke-width:4.15748;stroke-linecap:square;stroke-linejoin:round;stroke-miterlimit:4;stroke-dasharray:none;stroke-opacity:1;paint-order:markers stroke fill"><path
                 inkscape:connector-curvature="0"
                 id="path3008-7-0-9"
                 style="color:#000000;font-style:normal;font-variant:normal;font-weight:normal;font-stretch:normal;font-size:medium;line-height:normal;font-family:sans-serif;font-variant-ligatures:normal;font-variant-position:normal;font-variant-caps:normal;font-variant-numeric:normal;font-variant-alternates:normal;font-variant-east-asian:normal;font-feature-settings:normal;font-variation-settings:normal;text-indent:0;text-align:start;text-decoration:none;text-decoration-line:none;text-decoration-style:solid;text-decoration-color:#000000;letter-spacing:normal;word-spacing:normal;text-transform:none;writing-mode:lr-tb;direction:ltr;text-orientation:mixed;dominant-baseline:auto;baseline-shift:baseline;text-anchor:start;white-space:normal;shape-padding:0;shape-margin:0;inline-size:0;clip-rule:nonzero;display:inline;overflow:visible;visibility:visible;isolation:auto;mix-blend-mode:normal;color-interpolation:sRGB;color-interpolation-filters:linearRGB;solid-color:#000000;solid-opacity:1;fill:#757575;fill-opacity:1;fill-rule:nonzero;stroke:#dadada;stroke-width:4.15748;stroke-linecap:square;stroke-linejoin:round;stroke-miterlimit:4;stroke-dasharray:none;stroke-dashoffset:0;stroke-opacity:1;paint-order:markers stroke fill;color-rendering:auto;image-rendering:auto;shape-rendering:auto;text-rendering:auto;enable-background:accumulate;stop-color:#000000;stop-opacity:1"
                 d="m 2230.8945,2301.1738 c -1.9108,-0.039 -3.9117,0.162 -5.9785,0.6328 -0.1394,0.032 -0.2613,0.071 -0.3984,0.1036 -2.274,2.2481 -4.8127,4.5047 -7.5293,6.7168 0.8746,3.8597 2.1735,7.8829 4.4707,12.0019 3.9872,7.1495 7.2742,10.9657 9.2031,15.9258 1.9289,4.9601 2.2639,10.7945 0.4746,21.4238 -2.2183,13.178 -10.2404,27.1324 -22.959,37.4336 9.8717,-2.8792 18.2866,-8.1915 23.8575,-14.6269 6.0132,-6.9464 8.0191,-10.8762 8.7226,-14.836 0.7036,-3.9598 0.044,-8.2997 0.3242,-15.664 0.1805,-4.7447 1.1911,-8.8958 2.4766,-12.545 l 0.3086,-0.875 0.9219,-0.1211 c 8.2284,-1.0673 15.6654,-3.167 19.5097,-5.6484 -1.2349,-5.5522 -6.4807,-9.8603 -13.4277,-13.1348 l -0.6621,-0.3125 -0.166,-0.7129 c -2.2034,-9.4614 -9.5905,-15.5632 -19.1485,-15.7617 z m 4.7832,11.6856 a 4.8229105,4.9139092 17.729059 0 1 1.4473,0.2246 4.8229105,4.9139092 17.729059 0 1 3.0977,6.1484 4.8229105,4.9139092 17.729059 0 1 -6.0899,3.2129 4.8229105,4.9139092 17.729059 0 1 -3.0976,-6.1484 4.8229105,4.9139092 17.729059 0 1 4.6425,-3.4375 z"
                 transform="translate(1.2499985e-4,-757.87627)" /></g></g></g></g></g><g
       aria-label="BEVY"
       transform="matrix(1.7088406,0,0,1.8039104,-52.767175,-214.85137)"
       style="font-style:normal;font-weight:normal;font-size:10.3007px;line-height:1.25;font-family:sans-serif;letter-spacing:0px;word-spacing:0px;opacity:1;fill:#282828;fill-opacity:1;stroke:#dadada;stroke-width:0.626519;stroke-miterlimit:4;stroke-dasharray:none;stroke-opacity:1;paint-order:markers stroke fill"
       id="text1778-3-6-3-9-3-6-4-0-9-5-4-6"
       inkscape:export-filename="/home/carter/code/bevy/assets/bevy_logo_dark.png"
       inkscape:export-xdpi="81.422768"
       inkscape:export-ydpi="81.422768"><path
         d="m 87.399725,202.26207 q 0.344867,0.0985 0.886803,0.1478 0.541936,0.0247 1.034604,0.0247 0.985338,0 1.625808,-0.39414 0.665102,-0.41877 0.665102,-1.28094 0,-0.8129 -0.541936,-1.15776 -0.541936,-0.34488 -1.650441,-0.34488 h -2.01994 z m 0,-6.01056 h 1.79824 q 1.059239,0 1.527274,-0.39413 0.492668,-0.39414 0.492668,-1.15777 0,-0.6651 -0.56657,-1.05925 -0.541934,-0.39413 -1.650439,-0.39413 -0.369502,0 -0.86217,0.0247 -0.468036,0.0246 -0.739003,0.0739 z m 1.601173,9.48388 q -0.418769,0 -0.985337,-0.0247 -0.56657,-0.0246 -1.182405,-0.0985 -0.591203,-0.0739 -1.182406,-0.19708 -0.591202,-0.0985 -1.083871,-0.29559 -1.354839,-0.5173 -1.354839,-1.79824 v -11.50381 q 0,-0.51731 0.270969,-0.78828 0.2956,-0.2956 0.788269,-0.46804 0.837536,-0.29559 2.093842,-0.41877 1.256306,-0.1478 2.586512,-0.1478 3.153079,0 4.852786,1.05924 1.699706,1.05923 1.699706,3.27625 0,1.10851 -0.640469,1.92141 -0.640469,0.78827 -1.72434,1.15777 1.231672,0.34487 2.044575,1.25631 0.837537,0.91143 0.837537,2.29091 0,2.4387 -1.822875,3.62111 -1.79824,1.15778 -5.197654,1.15778 z"
         style="font-style:normal;font-variant:normal;font-weight:normal;font-stretch:normal;font-size:21.9748px;font-family:'Baloo Bhaijaan';-inkscape-font-specification:'Baloo Bhaijaan, Normal';font-variant-ligatures:normal;font-variant-caps:normal;font-variant-numeric:normal;font-feature-settings:normal;text-align:start;writing-mode:lr-tb;text-anchor:start;fill:#282828;fill-opacity:1;stroke:#dadada;stroke-width:0.626519;stroke-miterlimit:4;stroke-dasharray:none;stroke-opacity:1;paint-order:markers stroke fill"
         id="path1940-83-0-6-3-1-1-8-3-1-6-8-3"
         inkscape:connector-curvature="0" /><path
         d="m 96.48021,192.7043 q 0,-1.05924 0.615839,-1.67508 0.615835,-0.61582 1.675075,-0.61582 h 8.129006 q 0.17244,0.27096 0.29561,0.71435 0.1478,0.44341 0.1478,0.93609 0,0.93606 -0.41877,1.33019 -0.39413,0.39414 -1.05924,0.39414 h -5.19763 v 2.29091 h 5.5425 q 0.17243,0.27097 0.29561,0.71437 0.1478,0.41877 0.1478,0.91144 0,0.93607 -0.39414,1.3302 -0.39414,0.39413 -1.05925,0.39413 h -4.53252 v 2.58653 h 6.33077 q 0.17244,0.27095 0.2956,0.71435 0.1478,0.44341 0.1478,0.93608 0,0.93607 -0.41876,1.35484 -0.39415,0.39413 -1.05924,0.39413 h -7.192946 q -1.05924,0 -1.675075,-0.61583 -0.615839,-0.61584 -0.615839,-1.67508 z"
         style="font-style:normal;font-variant:normal;font-weight:normal;font-stretch:normal;font-size:21.9748px;font-family:'Baloo Bhaijaan';-inkscape-font-specification:'Baloo Bhaijaan, Normal';font-variant-ligatures:normal;font-variant-caps:normal;font-variant-numeric:normal;font-feature-settings:normal;text-align:start;writing-mode:lr-tb;text-anchor:start;fill:#282828;fill-opacity:1;stroke:#dadada;stroke-width:0.626519;stroke-miterlimit:4;stroke-dasharray:none;stroke-opacity:1;paint-order:markers stroke fill"
         id="path1942-3-4-06-1-4-5-1-0-0-9-7-8"
         inkscape:connector-curvature="0" /><path
         d="m 117.84176,204.84858 q -0.34487,0.2956 -1.08387,0.5173 -0.71437,0.22171 -1.57654,0.22171 -1.03461,0 -1.77361,-0.29561 -0.739,-0.32023 -1.00997,-0.86217 -0.27097,-0.56657 -0.66509,-1.45337 -0.39414,-0.91144 -0.83755,-2.01994 -0.41877,-1.10851 -0.8868,-2.34018 -0.4434,-1.2563 -0.86217,-2.53724 -0.41877,-1.28094 -0.78827,-2.51261 -0.3695,-1.23167 -0.64047,-2.31554 0.34487,-0.34487 0.98534,-0.61584 0.66511,-0.2956 1.40411,-0.2956 0.91144,0 1.47801,0.39414 0.59119,0.3695 0.86215,1.4041 0.66511,2.41408 1.33022,4.63109 0.68973,2.19237 1.42873,4.58182 h 0.1478 q 0.66511,-2.31555 1.35485,-5.04985 0.71437,-2.73432 1.35483,-5.444 0.44341,-0.2217 0.93607,-0.3695 0.51731,-0.1478 1.15777,-0.1478 0.91144,0 1.55191,0.41877 0.64047,0.39413 0.64047,1.3302 0,0.54195 -0.27097,1.57655 -0.24634,1.0346 -0.6651,2.34017 -0.39413,1.28094 -0.91143,2.68504 -0.49268,1.4041 -1.00997,2.66042 -0.49268,1.23168 -0.93608,2.19237 -0.4434,0.93607 -0.71437,1.30557 z"
         style="font-style:normal;font-variant:normal;font-weight:normal;font-stretch:normal;font-size:21.9748px;font-family:'Baloo Bhaijaan';-inkscape-font-specification:'Baloo Bhaijaan, Normal';font-variant-ligatures:normal;font-variant-caps:normal;font-variant-numeric:normal;font-feature-settings:normal;text-align:start;writing-mode:lr-tb;text-anchor:start;fill:#282828;fill-opacity:1;stroke:#dadada;stroke-width:0.626519;stroke-miterlimit:4;stroke-dasharray:none;stroke-opacity:1;paint-order:markers stroke fill"
         id="path1944-3-1-2-9-9-5-0-9-7-3-1-5"
         inkscape:connector-curvature="0" /><path
         d="m 131.98507,205.24272 q -0.27096,0.0739 -0.83753,0.1478 -0.56657,0.0739 -1.10851,0.0739 -1.13314,0 -1.69971,-0.36951 -0.56657,-0.39412 -0.56657,-1.6258 v -3.32552 q -0.61583,-0.91143 -1.3302,-2.01993 -0.71437,-1.10851 -1.4041,-2.26629 -0.68974,-1.15776 -1.28094,-2.26627 -0.5912,-1.13314 -0.96071,-2.0692 0.32024,-0.44342 0.86218,-0.81291 0.56657,-0.36951 1.37947,-0.36951 0.9607,0 1.5519,0.39414 0.61583,0.39413 1.15777,1.478 l 2.04458,4.11379 h 0.1478 q 0.34486,-0.76364 0.5912,-1.37947 0.27097,-0.64047 0.51731,-1.25631 0.24633,-0.64046 0.5173,-1.30557 0.27096,-0.68973 0.61583,-1.57654 0.4434,-0.2217 0.98534,-0.34487 0.54194,-0.12317 1.0346,-0.12317 0.86218,0 1.45337,0.46804 0.61584,0.44341 0.61584,1.35484 0,0.2956 -0.12317,0.71437 -0.12317,0.41877 -0.56656,1.28093 -0.44341,0.83754 -1.30558,2.29092 -0.83753,1.45337 -2.29091,3.79355 z"
         style="font-style:normal;font-variant:normal;font-weight:normal;font-stretch:normal;font-size:21.9748px;font-family:'Baloo Bhaijaan';-inkscape-font-specification:'Baloo Bhaijaan, Normal';font-variant-ligatures:normal;font-variant-caps:normal;font-variant-numeric:normal;font-feature-settings:normal;text-align:start;writing-mode:lr-tb;text-anchor:start;fill:#282828;fill-opacity:1;stroke:#dadada;stroke-width:0.626519;stroke-miterlimit:4;stroke-dasharray:none;stroke-opacity:1;paint-order:markers stroke fill"
         id="path1946-80-0-6-4-2-4-3-2-5-7-7-6"
         inkscape:connector-curvature="0" /><text
         xml:space="preserve"
         style="font-style:normal;font-weight:normal;font-size:13.0604px;line-height:1.25;font-family:sans-serif;text-align:start;letter-spacing:0px;word-spacing:0px;writing-mode:lr-tb;direction:ltr;text-anchor:start;display:none;fill:#3cb4db;fill-opacity:1;stroke:#dadada;stroke-width:0.0944145;stroke-miterlimit:4;stroke-dasharray:none;stroke-opacity:1;paint-order:markers stroke fill"
         x="63.826496"
         y="208.61646"
         id="text1-7"
         transform="matrix(1.026518,0.04123719,-0.04353139,0.9724183,0,0)"><tspan
           sodipodi:role="line"
           id="tspan1-7"
           style="font-style:normal;font-variant:normal;font-weight:normal;font-stretch:normal;font-size:13.0604px;font-family:'Bakso Sapi';-inkscape-font-specification:'Bakso Sapi';fill:#3cb4db;fill-opacity:1;stroke:#dadada;stroke-width:0.0944145;stroke-opacity:1"
           x="0"
           y="0">Unofficial</tspan></text></g></g><g
     id="layer1-0"
     inkscape:label="bevy_dark"
     transform="translate(-30.02964,-120.51583)"
     style="display:inline"><g
       id="g1911-8-3-9-3-2-8-6"
       transform="translate(-517.96199,-278.01119)"
       inkscape:export-filename="/home/carter/code/bevy/assets/bevy_logo_dark.png"
       inkscape:export-xdpi="81.422768"
       inkscape:export-ydpi="81.422768"
       style="opacity:1;fill:#787878;fill-opacity:1;stroke-width:0.755906;stroke-miterlimit:4;stroke-dasharray:none"><g
         transform="matrix(-0.40426719,-0.17438247,-0.17438247,0.40426719,678.77611,389.84765)"
         style="fill:#787878;fill-opacity:1"
         id="g1121-3-8-8-2-8-7-1-2-8-3-9-6-0-1-5"
         inkscape:export-filename="/home/carter/code/bevy/assets/temp_bevy_logo.png"
         inkscape:export-xdpi="81.422768"
         inkscape:export-ydpi="81.422768"><path
           inkscape:connector-curvature="0"
           id="path819-1-94-5-3-1-9-6-4-90-0-8-9-5-8-6-1-6-2-7"
           style="fill:#787878;fill-opacity:1;stroke:none;stroke-width:0.559814px;stroke-linecap:butt;stroke-linejoin:miter;stroke-opacity:1"
           d="m 2246.0312,2340.1914 v 0 c -0.016,3e-4 -0.031,0 -0.047,0 -0.9804,3.0675 -1.7386,6.3997 -1.8828,10.1953 -0.2712,7.1263 0.453,11.4639 -0.3672,16.0801 -0.8202,4.6163 -3.2453,9.161 -9.4141,16.2871 -7.3424,8.482 -18.9789,15.0453 -32.4199,17.2637 -2.5015,1.5971 -5.1421,3.0609 -7.9199,4.3633 10.4618,3.9385 21.4025,4.1531 30.0761,1.3066 15.2793,-5.0141 14.0962,-8.6155 20.9434,-19.1074 2.1569,-3.3051 4.6474,-5.8282 7.1484,-7.9004 7.1248,3.1068 14.1431,5.1015 18.5157,4.6074 2.351,-5.4505 -0.057,-11.7712 -4.0586,-17.7461 3.2821,-10.196 -1.6986,-20.4059 -12.7305,-24.0156 -2.8775,-0.9415 -5.4633,-1.3844 -7.8438,-1.3379 z m 8.2754,14.9707 a 4.1668789,4.2454995 48.679502 0 1 3.1973,1.3965 4.1668789,4.2454995 48.679502 0 1 -0.4375,5.9336 4.1668789,4.2454995 48.679502 0 1 -5.9394,-0.3262 4.1668789,4.2454995 48.679502 0 1 0.4375,-5.9336 4.1668789,4.2454995 48.679502 0 1 2.7421,-1.0703 z m -68.375,45.3789 c 0.1273,0.075 0.2572,0.1408 0.3848,0.2149 0.131,-0.049 0.2642,-0.1009 0.3945,-0.1504 -0.2598,-0.023 -0.5188,-0.039 -0.7793,-0.064 z"
           transform="matrix(-0.55180403,-0.23802315,-0.23802315,0.55180403,1946.7322,-620.612)" /></g></g><g
       id="g1051-1-2-0-8-6-0-8-1-5-6-9-6-8-9-3"
       transform="matrix(-0.45399624,0.36689705,0.36689705,0.45399624,73.527335,10.816805)"
       style="opacity:1;fill:#ececec;fill-opacity:1;stroke:none;stroke-width:0.755906;stroke-miterlimit:4;stroke-dasharray:none;stroke-opacity:1"
       inkscape:export-filename="/home/carter/code/bevy/assets/bevy_logo_dark.png"
       inkscape:export-xdpi="81.422768"
       inkscape:export-ydpi="81.422768"><g
         id="g3029-3-9-3-4"
         transform="matrix(-0.35254083,0.28490586,0.28490586,0.35254083,477.11004,-1021.7666)"
         style="opacity:1;fill:#ececec;fill-opacity:1"><path
           inkscape:connector-curvature="0"
           id="path3031-2-2-9-3"
           style="color:#000000;font-style:normal;font-variant:normal;font-weight:normal;font-stretch:normal;font-size:medium;line-height:normal;font-family:sans-serif;font-variant-ligatures:normal;font-variant-position:normal;font-variant-caps:normal;font-variant-numeric:normal;font-variant-alternates:normal;font-variant-east-asian:normal;font-feature-settings:normal;font-variation-settings:normal;text-indent:0;text-align:start;text-decoration:none;text-decoration-line:none;text-decoration-style:solid;text-decoration-color:#000000;letter-spacing:normal;word-spacing:normal;text-transform:none;writing-mode:lr-tb;direction:ltr;text-orientation:mixed;dominant-baseline:auto;baseline-shift:baseline;text-anchor:start;white-space:normal;shape-padding:0;shape-margin:0;inline-size:0;clip-rule:nonzero;display:inline;overflow:visible;visibility:visible;isolation:auto;mix-blend-mode:normal;color-interpolation:sRGB;color-interpolation-filters:linearRGB;solid-color:#000000;solid-opacity:1;vector-effect:none;fill:#ececec;fill-opacity:1;fill-rule:nonzero;stroke:none;stroke-width:3.02362;stroke-linecap:butt;stroke-linejoin:miter;stroke-miterlimit:4;stroke-dasharray:none;stroke-dashoffset:0;stroke-opacity:1;color-rendering:auto;image-rendering:auto;shape-rendering:auto;text-rendering:auto;enable-background:accumulate;stop-color:#000000;stop-opacity:1"
           d="m 2191.1465,2276.7832 c -5.9729,-0.035 -12.0979,2.348 -17.3613,7.459 -6.9129,6.7127 -9.0602,12.7555 -7.8477,20.2949 l 0.332,2.0684 -2.0664,-0.336 c -15.1877,-2.4609 -33.9847,-1.2178 -55.3711,7.4336 6.2868,2.6948 17.8259,7.1926 30.6309,13.3418 l 4.0605,1.9512 -4.414,0.8945 c -16.9087,3.4274 -36.9729,13.3275 -55.2989,34.9336 8.1981,-0.6372 24.9531,-2.6089 42.4278,-2.582 9.7138,0.015 19.2869,0.687 27.0859,2.709 7.7991,2.022 14.8874,6.6498 15.8861,10.0406 0.9987,3.3908 0.432,5.1761 -0.5519,7.8285 -0.9839,2.6524 -4.0098,6.6817 -8.1953,9.3418 -4.1855,2.6601 -9.4961,4.9849 -15.0137,6.9609 -11.0352,3.9521 -22.7798,6.4773 -27.9648,6.959 -1.1021,0.1024 -1.5421,0.4983 -1.9668,1.2696 -0.4247,0.7712 -0.659,1.9824 -0.6934,3.25 -0.046,1.6926 0.217,2.576 0.6949,3.246 0.4779,0.67 1.2243,0.9381 1.9934,0.9902 32.5822,2.2052 56.9441,-5.9907 74.6379,-13.0116 20.3508,-9.3311 33.2134,-27.7577 36.0058,-44.3477 1.7499,-10.395 1.3746,-15.4894 -0.3124,-19.8281 -1.6873,-4.3387 -4.9223,-8.1914 -9.0254,-15.5488 -2.6368,-4.7281 -4.1077,-9.367 -5.0196,-13.6875 l -0.1933,-0.9102 0.7265,-0.582 c 7.5403,-6.0446 13.6809,-12.6444 15.9102,-17.4492 -4.5742,-4.8648 -12.4787,-5.893 -21.3223,-4.9473 l -0.7265,0.076 -0.5118,-0.5215 c -4.7125,-4.8006 -10.5615,-7.2614 -16.5351,-7.2969 z m 2.6484,11.2324 c 2.593,-0.041 4.8808,1.7566 5.502,4.3223 0.7307,3.0216 -1.0812,6.0525 -4.0469,6.7695 -2.9656,0.7176 -5.9625,-1.1502 -6.6934,-4.1719 -0.7307,-3.0216 1.0812,-6.0525 4.0469,-6.7695 0.3902,-0.094 0.7897,-0.1445 1.1914,-0.1504 z"
           transform="translate(5.0092774e-5,-757.87625)"
           sodipodi:nodetypes="cccccccccccczzzcscczscccsccccccccccccccc" /></g></g><g
       style="opacity:1;fill:#b2b2b2;fill-opacity:1;stroke-width:0.755906;stroke-miterlimit:4;stroke-dasharray:none"
       id="g1051-1-1-8-8-4-9-4-0-4-6-4-7-6-6-0-0"
       transform="matrix(-0.50509374,0.06754889,0.06754889,0.50509374,156.75523,55.243465)"
       inkscape:export-filename="/home/carter/code/bevy/assets/bevy_logo_dark.png"
       inkscape:export-xdpi="81.422768"
       inkscape:export-ydpi="81.422768"><g
         style="fill:#b2b2b2;fill-opacity:1"
         id="g1129-5-9-8-0-7-2-7-3-8-61-1-6-8-4"
         transform="translate(-20.244579,-6.1209206)"><g
           style="fill:#b2b2b2;fill-opacity:1"
           id="g1344-1-3-9-3-8-8-8-3-5-4-8-8"
           transform="translate(61.54776,-5.6726683)"><g
             id="g1121-7-7-2-3-3-7-4-5-8-2-5-9-5-7"
             style="fill:#b2b2b2;fill-opacity:1"><g
               id="g3006-4-5-0-5"
               transform="matrix(-0.514626,0.06882369,0.06882369,0.514626,1184.3644,-811.9091)"
               style="opacity:1;fill:#b2b2b2;fill-opacity:1"><path
                 inkscape:connector-curvature="0"
                 id="path3008-7-0-9-9"
                 style="color:#000000;font-style:normal;font-variant:normal;font-weight:normal;font-stretch:normal;font-size:medium;line-height:normal;font-family:sans-serif;font-variant-ligatures:normal;font-variant-position:normal;font-variant-caps:normal;font-variant-numeric:normal;font-variant-alternates:normal;font-variant-east-asian:normal;font-feature-settings:normal;font-variation-settings:normal;text-indent:0;text-align:start;text-decoration:none;text-decoration-line:none;text-decoration-style:solid;text-decoration-color:#000000;letter-spacing:normal;word-spacing:normal;text-transform:none;writing-mode:lr-tb;direction:ltr;text-orientation:mixed;dominant-baseline:auto;baseline-shift:baseline;text-anchor:start;white-space:normal;shape-padding:0;shape-margin:0;inline-size:0;clip-rule:nonzero;display:inline;overflow:visible;visibility:visible;isolation:auto;mix-blend-mode:normal;color-interpolation:sRGB;color-interpolation-filters:linearRGB;solid-color:#000000;solid-opacity:1;vector-effect:none;fill:#b2b2b2;fill-opacity:1;fill-rule:nonzero;stroke:none;stroke-width:3.02362;stroke-linecap:butt;stroke-linejoin:miter;stroke-miterlimit:4;stroke-dasharray:none;stroke-dashoffset:0;stroke-opacity:1;color-rendering:auto;image-rendering:auto;shape-rendering:auto;text-rendering:auto;enable-background:accumulate;stop-color:#000000;stop-opacity:1"
                 d="m 2230.8945,2301.1738 c -1.9108,-0.039 -3.9117,0.162 -5.9785,0.6328 -0.1394,0.032 -0.2613,0.071 -0.3984,0.1036 -2.274,2.2481 -4.8127,4.5047 -7.5293,6.7168 0.8746,3.8597 2.1735,7.8829 4.4707,12.0019 3.9872,7.1495 7.2742,10.9657 9.2031,15.9258 1.9289,4.9601 2.2639,10.7945 0.4746,21.4238 -2.2183,13.178 -10.2404,27.1324 -22.959,37.4336 9.8717,-2.8792 18.2866,-8.1915 23.8575,-14.6269 6.0132,-6.9464 8.0191,-10.8762 8.7226,-14.836 0.7036,-3.9598 0.044,-8.2997 0.3242,-15.664 0.1805,-4.7447 1.1911,-8.8958 2.4766,-12.545 l 0.3086,-0.875 0.9219,-0.1211 c 8.2284,-1.0673 15.6654,-3.167 19.5097,-5.6484 -1.2349,-5.5522 -6.4807,-9.8603 -13.4277,-13.1348 l -0.6621,-0.3125 -0.166,-0.7129 c -2.2034,-9.4614 -9.5905,-15.5632 -19.1485,-15.7617 z m 4.7832,11.6856 a 4.8229105,4.9139092 17.729059 0 1 1.4473,0.2246 4.8229105,4.9139092 17.729059 0 1 3.0977,6.1484 4.8229105,4.9139092 17.729059 0 1 -6.0899,3.2129 4.8229105,4.9139092 17.729059 0 1 -3.0976,-6.1484 4.8229105,4.9139092 17.729059 0 1 4.6425,-3.4375 z"
                 transform="translate(1.2499985e-4,-757.87627)" /></g></g></g></g></g><g
       aria-label="BEVY"
       transform="matrix(1.7088406,0,0,1.8039104,-52.767175,-214.85137)"
       style="font-style:normal;font-weight:normal;font-size:10.3007px;line-height:1.25;font-family:sans-serif;letter-spacing:0px;word-spacing:0px;opacity:1;fill:#ececec;fill-opacity:1;stroke:none;stroke-width:0.257517;stroke-miterlimit:4;stroke-dasharray:none"
       id="text1778-3-6-3-9-3-6-4-0-9-5-4-6-5"
       inkscape:export-filename="/home/carter/code/bevy/assets/bevy_logo_dark.png"
       inkscape:export-xdpi="81.422768"
       inkscape:export-ydpi="81.422768"><path
         d="m 87.399725,202.26207 q 0.344867,0.0985 0.886803,0.1478 0.541936,0.0247 1.034604,0.0247 0.985338,0 1.625808,-0.39414 0.665102,-0.41877 0.665102,-1.28094 0,-0.8129 -0.541936,-1.15776 -0.541936,-0.34488 -1.650441,-0.34488 h -2.01994 z m 0,-6.01056 h 1.79824 q 1.059239,0 1.527274,-0.39413 0.492668,-0.39414 0.492668,-1.15777 0,-0.6651 -0.56657,-1.05925 -0.541934,-0.39413 -1.650439,-0.39413 -0.369502,0 -0.86217,0.0247 -0.468036,0.0246 -0.739003,0.0739 z m 1.601173,9.48388 q -0.418769,0 -0.985337,-0.0247 -0.56657,-0.0246 -1.182405,-0.0985 -0.591203,-0.0739 -1.182406,-0.19708 -0.591202,-0.0985 -1.083871,-0.29559 -1.354839,-0.5173 -1.354839,-1.79824 v -11.50381 q 0,-0.51731 0.270969,-0.78828 0.2956,-0.2956 0.788269,-0.46804 0.837536,-0.29559 2.093842,-0.41877 1.256306,-0.1478 2.586512,-0.1478 3.153079,0 4.852786,1.05924 1.699706,1.05923 1.699706,3.27625 0,1.10851 -0.640469,1.92141 -0.640469,0.78827 -1.72434,1.15777 1.231672,0.34487 2.044575,1.25631 0.837537,0.91143 0.837537,2.29091 0,2.4387 -1.822875,3.62111 -1.79824,1.15778 -5.197654,1.15778 z"
         style="font-style:normal;font-variant:normal;font-weight:normal;font-stretch:normal;font-size:21.9748px;font-family:'Baloo Bhaijaan';-inkscape-font-specification:'Baloo Bhaijaan, Normal';font-variant-ligatures:normal;font-variant-caps:normal;font-variant-numeric:normal;font-feature-settings:normal;text-align:start;writing-mode:lr-tb;text-anchor:start;fill:#ececec;fill-opacity:1;stroke-width:0.288674"
         id="path1940-83-0-6-3-1-1-8-3-1-6-8-3-3"
         inkscape:connector-curvature="0" /><path
         d="m 96.48021,192.7043 q 0,-1.05924 0.615839,-1.67508 0.615835,-0.61582 1.675075,-0.61582 h 8.129006 q 0.17244,0.27096 0.29561,0.71435 0.1478,0.44341 0.1478,0.93609 0,0.93606 -0.41877,1.33019 -0.39413,0.39414 -1.05924,0.39414 h -5.19763 v 2.29091 h 5.5425 q 0.17243,0.27097 0.29561,0.71437 0.1478,0.41877 0.1478,0.91144 0,0.93607 -0.39414,1.3302 -0.39414,0.39413 -1.05925,0.39413 h -4.53252 v 2.58653 h 6.33077 q 0.17244,0.27095 0.2956,0.71435 0.1478,0.44341 0.1478,0.93608 0,0.93607 -0.41876,1.35484 -0.39415,0.39413 -1.05924,0.39413 h -7.192946 q -1.05924,0 -1.675075,-0.61583 -0.615839,-0.61584 -0.615839,-1.67508 z"
         style="font-style:normal;font-variant:normal;font-weight:normal;font-stretch:normal;font-size:21.9748px;font-family:'Baloo Bhaijaan';-inkscape-font-specification:'Baloo Bhaijaan, Normal';font-variant-ligatures:normal;font-variant-caps:normal;font-variant-numeric:normal;font-feature-settings:normal;text-align:start;writing-mode:lr-tb;text-anchor:start;fill:#ececec;fill-opacity:1;stroke-width:0.288674"
         id="path1942-3-4-06-1-4-5-1-0-0-9-7-8-2"
         inkscape:connector-curvature="0" /><path
         d="m 117.84176,204.84858 q -0.34487,0.2956 -1.08387,0.5173 -0.71437,0.22171 -1.57654,0.22171 -1.03461,0 -1.77361,-0.29561 -0.739,-0.32023 -1.00997,-0.86217 -0.27097,-0.56657 -0.66509,-1.45337 -0.39414,-0.91144 -0.83755,-2.01994 -0.41877,-1.10851 -0.8868,-2.34018 -0.4434,-1.2563 -0.86217,-2.53724 -0.41877,-1.28094 -0.78827,-2.51261 -0.3695,-1.23167 -0.64047,-2.31554 0.34487,-0.34487 0.98534,-0.61584 0.66511,-0.2956 1.40411,-0.2956 0.91144,0 1.47801,0.39414 0.59119,0.3695 0.86215,1.4041 0.66511,2.41408 1.33022,4.63109 0.68973,2.19237 1.42873,4.58182 h 0.1478 q 0.66511,-2.31555 1.35485,-5.04985 0.71437,-2.73432 1.35483,-5.444 0.44341,-0.2217 0.93607,-0.3695 0.51731,-0.1478 1.15777,-0.1478 0.91144,0 1.55191,0.41877 0.64047,0.39413 0.64047,1.3302 0,0.54195 -0.27097,1.57655 -0.24634,1.0346 -0.6651,2.34017 -0.39413,1.28094 -0.91143,2.68504 -0.49268,1.4041 -1.00997,2.66042 -0.49268,1.23168 -0.93608,2.19237 -0.4434,0.93607 -0.71437,1.30557 z"
         style="font-style:normal;font-variant:normal;font-weight:normal;font-stretch:normal;font-size:21.9748px;font-family:'Baloo Bhaijaan';-inkscape-font-specification:'Baloo Bhaijaan, Normal';font-variant-ligatures:normal;font-variant-caps:normal;font-variant-numeric:normal;font-feature-settings:normal;text-align:start;writing-mode:lr-tb;text-anchor:start;fill:#ececec;fill-opacity:1;stroke-width:0.288674"
         id="path1944-3-1-2-9-9-5-0-9-7-3-1-5-7"
         inkscape:connector-curvature="0" /><path
         d="m 131.98507,205.24272 q -0.27096,0.0739 -0.83753,0.1478 -0.56657,0.0739 -1.10851,0.0739 -1.13314,0 -1.69971,-0.36951 -0.56657,-0.39412 -0.56657,-1.6258 v -3.32552 q -0.61583,-0.91143 -1.3302,-2.01993 -0.71437,-1.10851 -1.4041,-2.26629 -0.68974,-1.15776 -1.28094,-2.26627 -0.5912,-1.13314 -0.96071,-2.0692 0.32024,-0.44342 0.86218,-0.81291 0.56657,-0.36951 1.37947,-0.36951 0.9607,0 1.5519,0.39414 0.61583,0.39413 1.15777,1.478 l 2.04458,4.11379 h 0.1478 q 0.34486,-0.76364 0.5912,-1.37947 0.27097,-0.64047 0.51731,-1.25631 0.24633,-0.64046 0.5173,-1.30557 0.27096,-0.68973 0.61583,-1.57654 0.4434,-0.2217 0.98534,-0.34487 0.54194,-0.12317 1.0346,-0.12317 0.86218,0 1.45337,0.46804 0.61584,0.44341 0.61584,1.35484 0,0.2956 -0.12317,0.71437 -0.12317,0.41877 -0.56656,1.28093 -0.44341,0.83754 -1.30558,2.29092 -0.83753,1.45337 -2.29091,3.79355 z"
         style="font-style:normal;font-variant:normal;font-weight:normal;font-stretch:normal;font-size:21.9748px;font-family:'Baloo Bhaijaan';-inkscape-font-specification:'Baloo Bhaijaan, Normal';font-variant-ligatures:normal;font-variant-caps:normal;font-variant-numeric:normal;font-feature-settings:normal;text-align:start;writing-mode:lr-tb;text-anchor:start;fill:#ececec;fill-opacity:1;stroke-width:0.288674"
         id="path1946-80-0-6-4-2-4-3-2-5-7-7-6-3"
         inkscape:connector-curvature="0" /></g></g><text
     xml:space="preserve"
     style="font-style:normal;font-weight:normal;font-size:21.8722px;line-height:1.25;font-family:sans-serif;text-align:start;letter-spacing:0px;word-spacing:0px;writing-mode:lr-tb;direction:ltr;text-anchor:start;display:inline;opacity:1;fill:#3cb4db;fill-opacity:1;stroke:#232326;stroke-width:1.466;stroke-miterlimit:4;stroke-dasharray:none;stroke-dashoffset:0;stroke-opacity:1;paint-order:markers stroke fill"
     x="13.997887"
     y="33.411644"
     id="text1-7-7"
     transform="rotate(2.4282782)"
     inkscape:label="community"><tspan
       sodipodi:role="line"
       id="tspan1-7-3"
       style="font-style:normal;font-variant:normal;font-weight:normal;font-stretch:normal;font-size:21.8722px;font-family:'Bakso Sapi';-inkscape-font-specification:'Bakso Sapi';fill:#3cb4db;fill-opacity:1;stroke:#232326;stroke-width:1.466;stroke-dasharray:none;stroke-dashoffset:0;stroke-opacity:1"
       x="13.997887"
       y="33.411644">Community</tspan></text></svg>
