<?xml version="1.0" encoding="UTF-8" standalone="no"?>
<!-- Created with Inkscape (http://www.inkscape.org/) -->

<svg
   width="210mm"
   height="155.91962mm"
   viewBox="0 0 210 155.91962"
   version="1.1"
   id="svg1"
   xml:space="preserve"
   xmlns:xlink="http://www.w3.org/1999/xlink"
   xmlns="http://www.w3.org/2000/svg"
   xmlns:svg="http://www.w3.org/2000/svg"><defs
     id="defs1"><linearGradient
       id="linearGradient117"><stop
         style="stop-color:#302b89;stop-opacity:1;"
         offset="0.31082982"
         id="stop116" /><stop
         style="stop-color:#2a7cff;stop-opacity:1;"
         offset="0.46272856"
         id="stop117" /><stop
         style="stop-color:#c0f3ff;stop-opacity:1;"
         offset="0.61884665"
         id="stop118" /></linearGradient><linearGradient
       id="linearGradient84"><stop
         style="stop-color:#6487b2;stop-opacity:1;"
         offset="0"
         id="stop84" /><stop
         style="stop-color:#c7d5e5;stop-opacity:1;"
         offset="1"
         id="stop85" /></linearGradient><linearGradient
       xlink:href="#linearGradient117"
       id="linearGradient93"
       gradientUnits="userSpaceOnUse"
       x1="-403.97888"
       y1="-293.18665"
       x2="-403.97888"
       y2="-128.17116"
       gradientTransform="translate(2169.5473,766.16113)" /><linearGradient
       xlink:href="#linearGradient84"
       id="linearGradient97"
       gradientUnits="userSpaceOnUse"
       x1="-229.46855"
       y1="-106.55498"
       x2="-162.91013"
       y2="-106.55498"
       gradientTransform="translate(2169.5473,766.16113)" /></defs><g
     id="layer1"><g
       id="g116"
       transform="matrix(0.12414833,0.1800778,-0.1800778,0.12414833,151.3092,-386.64539)"
       style="display:inline"><path
         style="display:inline;fill:#4d4d4d;fill-opacity:1;stroke:none;stroke-width:0;stroke-dasharray:none;stroke-opacity:1"
         d="m 7165.9466,5375.6728 c -44.732,-2.2206 -92.4893,-9.7988 -145.3346,-23.062 -103.4636,-25.9674 -198.5987,-69.8877 -288.968,-133.4056 -90.6733,-63.7315 -177.4282,-155.0534 -230.4964,-242.6301 -34.0399,-56.1748 -89.2908,-127.5806 -137.3721,-177.5384 -31.7291,-32.9675 -58.6659,-68.7825 -66.9981,-89.0803 l -4.2627,-10.384 8.8684,1.7316 c 4.8776,0.9524 27.119,6.6734 49.4255,12.7133 44.4454,12.0345 52.9161,12.1669 65.5738,1.025 l 7.3455,-6.466 -3.0572,-26.885 c -1.6814,-14.7867 -2.3379,-27.6042 -1.4589,-28.4832 4.5771,-4.5771 55.9108,34.4845 73.3486,55.8133 19.9127,24.356 26.8346,38.5402 33.5988,68.8497 2.2508,10.0854 19.0616,18.5652 36.759,18.5421 44.787,-0.059 139.7494,-36.5272 197.2073,-75.734 41.6065,-28.3905 86.237,-71.9111 110.0187,-107.2828 16.1967,-24.09 41.0055,-77.0454 48.7114,-103.9762 3.7815,-13.2159 13.5317,-56.4679 21.6671,-96.1155 15.7763,-76.8849 28.8988,-121.0967 46.0933,-155.2948 41.5755,-82.6895 94.929,-165.0312 186.5789,-205.551 27.6326,-12.2168 75.9757,-25.7668 108.3876,-33.5008 21.0569,-5.0246 37.121,-14.5295 92.1028,-14.5131 73.472,0.022 108.0012,12.2648 171.8299,33.2906 126.2063,41.5737 227.4542,118.3368 292.0464,234.6338 l 24.4305,43.9865 c 0,0 -166.0989,310.3541 21.4445,158.367 21.6141,-6.0102 29.5043,96.0163 37.3122,129.7981 12.5051,54.1044 27.6859,88.6063 27.5954,157.9947 -0.092,70.8075 -16.4155,96.0221 -30.242,151.3612 -36.9804,148.01 -134.973,282.0744 -268.2218,364.4987 -102.4573,63.3775 -256.3275,98.8293 -378.4631,105.0754 -57.2423,2.9274 -67.6422,-5.9003 -105.4707,-7.7782 z M 7051.142,5171.9826 c 86.0957,-20.4303 161.0669,-61.7581 212.208,-116.9795 63.0831,-68.1161 85.7561,-165.3138 57.6564,-247.169 -34.9794,-101.8961 -148.1812,-170.6473 -267.1945,-162.2762 -59.8405,4.209 -93.4457,18.8439 -93.4457,40.695 0,10.6846 9.9865,22.0731 19.3559,22.0731 3.437,0 18.2093,-3.2338 32.8273,-7.1861 23.0811,-6.2405 31.4962,-7.1697 63.9564,-7.062 32.5602,0.108 40.4093,1.0385 60.8931,7.2188 41.4409,12.5034 70.2637,30.0403 98.4085,59.8752 20.075,21.2806 33.6725,43.9782 42.7158,71.3033 8.7953,26.5759 8.7778,69.1457 -0.04,97.4505 -30.4536,97.7535 -122.442,170.7359 -249.6406,198.0615 -38.7736,8.3296 -106.3022,8.304 -145.2331,-0.055 -29.4108,-6.315 -71.7468,-20.745 -106.1297,-36.1737 -25.3634,-11.3814 -33.9348,-12.001 -42.8394,-3.0964 -9.3034,9.3035 -8.9593,23.5061 0.7889,32.5574 9.9203,9.2112 55.2066,30.7703 85.1483,40.5361 48.0417,15.6692 76.8327,19.1108 149.1333,17.8274 45.449,-0.8068 57.5704,-1.9381 81.4312,-7.6002 z"
         id="path115"
         transform="scale(0.26458333)" /><path
         style="display:inline;fill:#2f2c88;fill-opacity:1;stroke:none;stroke-width:0;stroke-dasharray:none;stroke-opacity:1"
         d="m 7793.8645,4471.8088 c -12.8435,-34.3271 -0.3143,-38.2563 10.6328,-80.5505 7.0015,-27.0507 6.6867,-23.8522 28.157,-51.457 5.1361,-6.6035 95.0915,27.579 133.2872,43.7072 37.0398,15.6401 106.8193,56.6185 110.5919,61.1642 2.578,3.1063 -4.9848,29.3732 -20.6879,37.2811 -21.4467,10.8004 -56.3356,30.8088 -97.0683,45.9551 -30.2942,11.2648 -144.9869,45.1112 -151.1812,45.1112 -2.3877,0 -10.492,-92.5527 -13.7315,-101.2113 z"
         id="path116"
         transform="scale(0.26458333)" /><path
         d="m 1928.5769,1434.5401 c 17.9042,-1.7067 41.3751,-6.7128 58.4248,-12.4612 67.2578,-22.6767 111.3515,-74.7747 120.1522,-141.963 2.6279,-20.0634 1.6644,-39.9512 -2.9964,-61.8426 l -2.5304,-11.8853 7.8403,-2.8393 c 8.9226,-3.2312 27.1157,-11.5199 32.8882,-14.9836 4.7752,-2.8654 5.7935,-4.586 5.7935,-9.7888 0,-3.5859 -0.4077,-4.4261 -3.4082,-7.0238 -6.442,-5.5771 -25.5669,-15.2232 -42.8972,-21.6362 l -10.0444,-3.7169 -2.0271,-4.7141 c -3.8824,-9.0286 -12.5938,-23.5616 -19.1262,-31.9078 -19.9839,-25.5325 -47.5083,-43.5469 -79.0054,-51.7079 -34.9522,-9.0562 -65.8257,-6.6003 -96.2067,7.653 -23.7076,11.1225 -42.1508,27.4611 -54.0555,47.8869 -8.4894,14.566 -12.6072,26.7611 -16.877,49.982 -4.4262,24.0717 -7.2891,33.6936 -12.8915,43.327 -10.3685,17.8289 -25.5295,31.1474 -47.1264,41.3992 -7.4789,3.5502 -22.2286,8.3807 -25.5898,8.3807 -0.6636,0 -1.7175,-1.4632 -2.3419,-3.2515 -1.4206,-4.0683 -7.3213,-13.2414 -11.7545,-18.2731 -4.7899,-5.4367 -14.0219,-11.934 -22.645,-15.937 -9.8609,-4.5776 -12.273,-4.9605 -15.6115,-2.4784 -2.602,1.9345 -2.6326,2.0609 -2.0683,8.5521 0.315,3.6237 0.8504,7.5314 1.1898,8.6838 0.5246,1.7814 0.3539,2.0151 -1.1394,1.5604 -9.8186,-2.9898 -21.7464,-5.9338 -24.5221,-6.0526 -4.0521,-0.1733 -8.11,2.314 -9.4118,5.7691 -2.4961,6.625 9.7056,28.5051 24.0787,43.1783 9.1267,9.3171 13.9474,11.443 17.7654,7.8344 3.2286,-3.0516 2.3257,-5.2075 -5.0107,-11.9643 -10.1092,-9.3106 -20.5727,-23.1257 -22.2233,-29.3418 l -0.5536,-2.0847 5.8382,1.268 c 3.211,0.6974 8.9468,2.2373 12.7461,3.422 8.5596,2.6691 10.2913,2.683 13.4583,0.1082 l 2.5164,-2.0459 -0.8826,-7.5921 c -0.4855,-4.1757 -0.6121,-7.7503 -0.2815,-7.9434 1.1913,-0.6959 13.5502,8.2849 18.232,13.2485 5.5082,5.84 10.2179,14.1418 10.2384,18.0474 0.016,3.1282 0.5444,3.9982 3.6431,6.0025 3.3848,2.1894 9.5371,1.8152 20.3487,-1.2375 19.389,-5.4746 36.679,-14.8243 50.4636,-27.2884 9.6267,-8.7045 15.3581,-15.7852 20.6541,-25.5165 7.5844,-13.9361 9.866,-21.6155 15.8223,-53.2551 5.3302,-28.3135 15.6746,-47.7999 34.2385,-64.4971 15.0455,-13.5326 33.491,-23.059 54.9853,-28.3979 8.285,-2.0579 10.9962,-2.3084 25.3867,-2.3457 12.0766,-0.031 18.0709,0.3477 23.9366,1.5132 42.66,8.4765 76.015,31.7832 96.5115,67.4373 l 4.6087,8.0169 h -4.5801 c -3.9774,0 -4.9337,0.3661 -7.2688,2.7824 -7.4009,7.6587 -11.9054,30.5446 -9.1594,46.5362 2.3229,13.5276 7.0848,21.9353 13.2523,23.3983 2.2668,0.5378 14.2199,-1.6568 19.0365,-3.495 1.1884,-0.4535 1.7519,0.6354 2.9958,5.7897 6.3985,26.5136 6.7529,52.8373 1.0462,77.7013 -11.5029,50.1177 -46.0232,89.9023 -96.4656,111.1765 -27.5751,11.6299 -56.1171,17.2733 -87.644,17.329 -18.5182,0.033 -31.4336,-1.5636 -50.4463,-6.2351 -59.723,-14.6743 -113.8297,-55.3932 -142.8151,-107.4777 -2.397,-4.3073 -23.4342,-31.2082 -24.2806,-31.8267 -2.3098,-1.688 -14.7037,-7.1358 -16.822,-4.4424 l -1.8857,2.3977 32.1416,38.0094 c 14.0863,16.6579 25.2652,38.282 43.5134,55.4734 36.747,34.619 79.6688,55.7827 129.7533,63.9782 8.4129,1.3766 42.3249,2.4434 51.0955,1.6074 z m 141.9586,-235.0999 c -3.5614,-8.4127 -4.2777,-19.9837 -1.954,-31.5616 1.7725,-8.8317 4.2868,-13.8589 6.9314,-13.8589 2.4604,0 13.7038,3.6385 24.763,8.0135 12.3205,4.874 34.1358,15.6925 33.7995,16.7616 -0.7469,2.3745 -31.4357,15.1545 -48.0693,20.018 -6.0763,1.7766 -11.462,3.358 -11.9683,3.5143 -1.8642,0.5754 -2.129,0.3571 -3.5023,-2.8869 z m -211.3948,169.9479 c 32.1988,-5.7376 60.1409,-23.4838 72.2969,-45.9161 18.3852,-33.9276 6.0895,-71.368 -28.6386,-87.2046 -11.7289,-5.3486 -18.9872,-6.9303 -31.762,-6.9215 -20.9173,0.014 -33.7019,6.4492 -28.0273,14.1066 1.8168,2.4515 4.935,2.4802 12.0021,0.1104 3.2628,-1.0941 8.752,-1.9972 13.7236,-2.2579 32.0909,-1.6828 59.3811,21.3879 59.3811,50.1998 0,24.3565 -19.9876,48.8044 -49.0535,59.9999 -28.6772,11.0458 -56.242,10.0063 -84.217,-3.1759 -7.4538,-3.5123 -8.8138,-3.8919 -10.8311,-3.0231 -3.1769,1.3682 -4.7161,4.7489 -3.4027,7.4736 2.0089,4.1672 19.4026,12.064 33.9356,15.4067 10.5664,2.4304 34.1344,3.0658 44.5929,1.2021 z m 143.3277,-182.5442 c 14.9324,-5.3647 18.1889,-23.5415 6.0298,-33.6575 -4.5933,-3.8215 -8.1595,-4.8137 -15.0514,-4.1878 -17.6875,1.6064 -22.7605,26.6309 -7.2375,35.7019 4.8338,2.8246 11.8049,3.7436 16.2591,2.1434 z"
         style="display:inline;fill:#000000"
         id="path1-0-2"
         transform="translate(-2.9105684e-6,1.5338849e-5)" /></g><g
       id="g114"
       transform="matrix(0.24088175,0.17284045,-0.17284045,0.24088175,-105.98767,-545.9919)"
       style="display:inline"><path
         style="display:inline;fill:#b3b3b3;fill-opacity:1;stroke:none;stroke-width:0;stroke-dasharray:none;stroke-opacity:1"
         d="m 7025.9528,5380.3482 c -235.8174,-41.5078 -449.0308,-181.2626 -578.8084,-379.3911 -52.8945,-80.7526 -96.2776,-137.5541 -146.2511,-191.4864 -44.7484,-48.2934 -67.4553,-79.9484 -61.5704,-85.8333 2.142,-2.142 23.5444,1.619 47.561,8.3577 59.7804,16.7735 75.817,9.6479 72.7854,-32.3408 l -2.2104,-30.6134 20.9247,14.8997 c 32.7385,23.3119 72.2424,70.2538 77.4465,92.0287 7.186,30.0674 16.3023,37.6469 45.28,37.6469 67.8035,0 178.3099,-52.7735 250.5414,-119.6488 68.0579,-63.0112 99.4023,-127.2071 128.0016,-262.1577 28.2666,-133.3809 31.5698,-212.9349 98.487,-276.043 158.3163,-149.3042 414.763,-180.7935 614.7231,-60.9929 53.9912,32.3474 141.4422,108.2198 174.9806,166.1517 l 32.1717,55.5712 -6.0724,93.0112 c -3.8759,59.3662 -63.2583,33.864 -14.0789,96.3855 14.2657,18.1359 31.5568,-6.0674 40.8308,34.8926 l 13.4577,59.4383 30.2158,36.166 c 47.091,56.3643 8.1531,229.639 -11.2457,298.1173 -31.2038,110.1507 -99.4917,233.2963 -175.6311,301.1783 -159.597,142.2888 -430.748,183.5253 -651.5389,144.6623 z m -17.7488,-196.1357 c 111.2631,-30.8327 196.5798,-94.3752 237.0262,-176.5336 20.8553,-42.3632 23.3659,-53.9968 23.3659,-108.2738 0,-52.0511 -2.8577,-66.6301 -19.8381,-101.2078 -24.6697,-50.2356 -64.3469,-86.6898 -125.5025,-115.308 -41.0799,-19.2236 -55.0538,-22.0934 -107.9291,-22.1654 -69.6444,-0.095 -111.465,11.5103 -118.2244,32.8073 -7.8877,24.8519 11.3206,37.0337 44.0605,27.9431 40.1056,-11.1357 109.2655,-9.5067 147.3522,3.4707 40.9028,13.937 93.5915,59.4264 114.044,98.4611 49.3621,94.2102 -15.1241,225.1915 -139.3293,282.9983 -113.7042,52.9196 -221.0393,55.4131 -326.3077,7.5805 -38.119,-17.3208 -68.255,-19.0329 -73.9465,-4.2011 -7.1412,18.6098 1.9229,28.8183 43.8539,49.3914 84.1751,41.2998 206.1287,51.4313 301.3749,25.0373 z"
         id="path112"
         transform="scale(0.26458333)" /><path
         style="display:inline;fill:#2675fc;fill-opacity:1;stroke:none;stroke-width:0;stroke-dasharray:none;stroke-opacity:1"
         d="m 7752.3631,4565.9278 c -4.8499,-5.8773 -13.1692,-37.8601 -15.8768,-58.9723 -5.4915,-42.8206 7.6943,-118.6393 24.4123,-133.7579 4.4595,-4.0328 18.7425,-8.908 39.1161,-3.0084 59.608,17.2609 212.2396,90.9392 215.7712,101.5339 1.6918,5.0755 -69.5738,42.8267 -135.4756,67.0645 -25.9988,9.562 -101.9138,34.9372 -106.3433,34.9372 -0.9263,0 -20.2493,-6.1554 -21.6039,-7.797 z"
         id="path114"
         transform="scale(0.26458333)" /><path
         d="m 1911.9076,1438.7451 c 17.9042,-1.7067 41.3751,-6.7128 58.4248,-12.4612 67.2578,-22.6767 111.3515,-74.7747 120.1522,-141.963 2.6279,-20.0634 1.6644,-39.9512 -2.9964,-61.8426 l -2.5304,-11.8853 7.8403,-2.8393 c 8.9226,-3.2312 27.1157,-11.5199 32.8882,-14.9836 4.7752,-2.8654 5.7935,-4.586 5.7935,-9.7888 0,-3.5859 -0.4077,-4.4261 -3.4082,-7.0238 -6.442,-5.5771 -25.5669,-15.2232 -42.8972,-21.6362 l -10.0444,-3.7169 -2.0271,-4.7141 c -3.8824,-9.0286 -12.5938,-23.5616 -19.1262,-31.9078 -19.9839,-25.5325 -47.5083,-43.5469 -79.0054,-51.708 -34.9522,-9.0562 -65.8257,-6.6003 -96.2067,7.653 -23.7076,11.1226 -42.1508,27.4612 -54.0555,47.887 -8.4894,14.566 -12.6072,26.7611 -16.877,49.982 -4.4262,24.0717 -7.2891,33.6936 -12.8915,43.327 -10.3685,17.8289 -25.5295,31.1474 -47.1264,41.3992 -7.4789,3.5502 -22.2286,8.3807 -25.5898,8.3807 -0.6636,0 -1.7175,-1.4632 -2.3419,-3.2515 -1.4206,-4.0683 -7.3213,-13.2414 -11.7545,-18.2731 -4.7899,-5.4367 -14.0219,-11.934 -22.645,-15.937 -9.8609,-4.5776 -12.273,-4.9605 -15.6115,-2.4784 -2.602,1.9345 -2.6326,2.0609 -2.0683,8.5521 0.315,3.6237 0.8504,7.5314 1.1898,8.6838 0.5246,1.7814 0.3539,2.0151 -1.1394,1.5604 -9.8186,-2.9898 -21.7464,-5.9338 -24.5221,-6.0526 -4.0521,-0.1733 -8.11,2.314 -9.4118,5.7691 -2.4961,6.625 9.7056,28.5051 24.0787,43.1783 9.1267,9.3171 13.9474,11.443 17.7654,7.8344 3.2286,-3.0516 2.3257,-5.2075 -5.0107,-11.9643 -10.1092,-9.3106 -20.5727,-23.1257 -22.2233,-29.3418 l -0.5536,-2.0847 5.8382,1.268 c 3.211,0.6974 8.9468,2.2373 12.7461,3.422 8.5596,2.6691 10.2913,2.683 13.4583,0.1082 l 2.5164,-2.0459 -0.8826,-7.5921 c -0.4855,-4.1757 -0.6121,-7.7503 -0.2815,-7.9434 1.1913,-0.6959 13.5502,8.2849 18.232,13.2485 5.5082,5.84 10.2179,14.1418 10.2384,18.0474 0.016,3.1282 0.5444,3.9982 3.6431,6.0025 3.3848,2.1894 9.5371,1.8152 20.3487,-1.2375 19.389,-5.4746 36.679,-14.8243 50.4636,-27.2884 9.6267,-8.7045 15.3581,-15.7852 20.6541,-25.5165 7.5844,-13.9361 9.866,-21.6155 15.8223,-53.2551 5.3302,-28.3135 15.6746,-47.7999 34.2385,-64.4971 15.0455,-13.5326 33.491,-23.059 54.9853,-28.3979 8.285,-2.058 10.9962,-2.3085 25.3867,-2.3458 12.0766,-0.031 18.0709,0.3477 23.9366,1.5133 42.66,8.4765 76.015,31.7832 96.5115,67.4373 l 4.6087,8.0169 h -4.5801 c -3.9774,0 -4.9337,0.3661 -7.2688,2.7824 -7.4009,7.6587 -11.9054,30.5446 -9.1594,46.5362 2.3229,13.5276 7.0848,21.9353 13.2523,23.3983 2.2668,0.5378 14.2199,-1.6568 19.0365,-3.495 1.1884,-0.4535 1.7519,0.6354 2.9958,5.7897 6.3985,26.5136 6.7529,52.8373 1.0462,77.7013 -11.5029,50.1177 -46.0232,89.9023 -96.4656,111.1765 -27.5751,11.6299 -56.1171,17.2733 -87.644,17.329 -18.5182,0.033 -31.4336,-1.5636 -50.4463,-6.2351 -59.723,-14.6743 -113.8297,-55.3932 -142.8151,-107.4777 -2.397,-4.3073 -23.4342,-31.2082 -24.2806,-31.8267 -2.3098,-1.688 -14.7037,-7.1358 -16.822,-4.4424 l -1.8857,2.3977 32.1416,38.0094 c 14.0863,16.6579 25.2652,38.282 43.5134,55.4734 36.747,34.619 79.6688,55.7827 129.7533,63.9782 8.4129,1.3766 42.3249,2.4434 51.0955,1.6074 z m 141.9586,-235.0999 c -3.5614,-8.4127 -4.2777,-19.9837 -1.954,-31.5616 1.7725,-8.8317 4.2868,-13.8589 6.9314,-13.8589 2.4604,0 13.7038,3.6385 24.763,8.0135 12.3205,4.874 34.1358,15.6925 33.7995,16.7616 -0.7469,2.3745 -31.4357,15.1545 -48.0693,20.018 -6.0763,1.7766 -11.462,3.358 -11.9683,3.5143 -1.8642,0.5754 -2.129,0.3571 -3.5023,-2.8869 z m -211.3948,169.9479 c 32.1988,-5.7376 60.1409,-23.4838 72.2969,-45.9161 18.3852,-33.9276 6.0895,-71.368 -28.6386,-87.2046 -11.7289,-5.3486 -18.9872,-6.9303 -31.762,-6.9215 -20.9173,0.014 -33.7019,6.4492 -28.0273,14.1066 1.8168,2.4515 4.935,2.4802 12.0021,0.1104 3.2628,-1.0941 8.752,-1.9972 13.7236,-2.2579 32.0909,-1.6828 59.3811,21.3879 59.3811,50.1998 0,24.3565 -19.9876,48.8044 -49.0535,59.9999 -28.6772,11.0458 -56.242,10.0063 -84.217,-3.1759 -7.4538,-3.5123 -8.8138,-3.8919 -10.8311,-3.0231 -3.1769,1.3682 -4.7161,4.7489 -3.4027,7.4736 2.0089,4.1672 19.4026,12.064 33.9356,15.4067 10.5664,2.4304 34.1344,3.0658 44.5929,1.2021 z m 143.3277,-182.5442 c 14.9324,-5.3647 18.1889,-23.5415 6.0298,-33.6575 -4.5933,-3.8215 -8.1595,-4.8137 -15.0514,-4.1878 -17.6875,1.6064 -22.7605,26.6309 -7.2375,35.7019 4.8338,2.8246 11.8049,3.7436 16.2591,2.1434 z"
         style="display:inline;fill:#000000"
         id="path1-0-3"
         transform="translate(4.7776452e-6)" /></g><g
       id="g107"
       transform="matrix(0.34867293,0,0,0.34867293,-531.00622,-171.76484)"><path
         style="display:inline;fill:#ffffff;fill-opacity:1;stroke:none;stroke-width:0;stroke-dasharray:none;stroke-opacity:1"
         d="m 1815.9023,904.04636 c 86.7879,-7.51366 135.0472,-55.70806 152.844,-127.32318 4.0478,-16.28846 5.6825,-51.46163 2.4034,-69.14884 -2.8277,-15.25223 -2.9843,-22.85065 -13.6063,-20.71745 -6.7229,1.35014 -12.4672,5.06908 -15.4328,3.71829 -10.2695,-4.67911 -10.9729,-28.84782 -4.6462,-49.67693 1.9303,-9.67041 6.6738,-12.7523 16.872,-15.47976 l -12.1292,-24.07311 c -15.3922,-30.54922 -48.5201,-51.99527 -83.4163,-52.84121 l -10.2272,-6.80046 -14.4378,8.36661 c -5.9778,3.46408 -16.7913,6.92835 -25.9618,10.41563 -25.4962,9.69542 -37.5388,16.60049 -58.5322,30.88789 -10.6135,7.22319 -21.9095,13.31787 -26.4111,15.48335 l -10.8332,5.21127 -4.888,15.18917 c -2.0981,6.51971 -4.0603,18.00576 -5.4964,25.2947 -7.3858,37.4869 -19.4043,54.58226 -44.6723,72.05497 -11.1732,7.7261 -24.0343,15.35009 -36.6165,18.07251 -11.199,2.42314 -11.3756,2.70702 -15.1228,0.2518 -2.2036,-1.44388 -8.8703,-15.13341 -8.8703,-16.43408 0,-6.84431 -16.5858,-15.60374 -26.4584,-20.88737 -3.0664,-1.64113 -6.3253,6.61019 -5.5776,13.24339 1.3553,12.02394 4.9818,8.36658 -13.0242,3.56867 -5.4715,-1.45796 -18.436,-3.89042 -19.019,-3.30743 -1.6155,1.61548 10.5328,25.92167 21.9899,38.12273 13.5704,14.45148 24.1438,27.59862 32.2903,40.99381 9.5826,15.75627 24.0568,36.43003 37.5306,45.90326 l 65.0858,45.76096 c 9.5397,6.70723 34.4529,12.78046 50.4607,16.09319 14.5819,3.01766 43.564,2.91756 56.7343,1.77735 z"
         id="path53-6" /><path
         style="fill:url(#linearGradient93);fill-opacity:1;stroke:none;stroke-width:0;stroke-dasharray:none;stroke-opacity:1"
         d="m 1717.7852,605.4118 c 3.4641,-1.66332 15.6241,-9.92774 27.0222,-18.36537 24.9911,-18.49994 30.2753,-17.46617 63.5545,-32.04321 14.3118,-6.26888 34.9202,-13.60435 37.528,-15.81465 7.341,-6.22216 -4.3795,-14.49053 -26.5524,-26.39969 -19.2658,-10.34776 -19.7353,-10.4726 -38.6561,-10.27804 -27.7445,0.28532 -38.2232,3.58376 -49.4879,15.57769 -10.3253,10.99366 -35.2614,33.39827 -40.2519,44.30748 -1.7788,3.88822 -5.7441,16.87723 -7.3527,24.487 -2.6434,12.50451 5.3455,14.2156 8.2693,17.78095 3.9188,4.77862 16.761,5.14904 25.927,0.74784 z"
         id="path77-1" /><path
         id="path1-08"
         style="fill:#000000"
         d="m 1853.2001,536.85874 c 3.6602,0.70622 7.3633,1.54509 11.113,2.51665 31.4971,8.16103 59.0211,26.17544 79.005,51.70795 6.5325,8.34623 15.2441,22.87894 19.1265,31.90761 l 2.0267,4.71393 10.0449,3.71708 c 17.3303,6.41301 36.4551,16.0593 42.8971,21.63641 3.0006,2.59767 3.4081,3.43801 3.4081,7.02386 0,5.20283 -1.0182,6.92321 -5.7934,9.78855 -5.7725,3.46373 -23.9659,11.75238 -32.8885,14.98358 l -7.8403,2.83911 2.5306,11.88558 c 4.6607,21.89133 5.6242,41.77933 2.9962,61.84274 -8.8006,67.18832 -52.8941,119.28622 -120.1519,141.96291 -17.0496,5.74848 -40.5206,10.75452 -58.4248,12.46125 -8.7706,0.83606 -42.6827,-0.23103 -51.0956,-1.60765 -50.0845,-8.1955 -93.0063,-29.35903 -129.7533,-63.97802 -18.2482,-17.19143 -33.1981,-36.25096 -43.5131,-55.47362 0,0 -4.5751,-6.87112 -7.1447,-10.09468 -6.9889,-8.7674 -22.4327,-25.06342 -22.4327,-25.06342 -2.2853,-2.55328 3.7096,-13.11476 12.8057,-3.9067 9.9316,10.05385 25.221,30.61978 27.618,34.92707 28.9854,52.08455 83.0921,92.80337 142.8151,107.47769 19.0126,4.67154 31.9283,6.26798 50.4465,6.23528 31.5268,-0.0558 60.0687,-5.6993 87.6438,-17.32918 50.4424,-21.27427 84.963,-61.05896 96.4659,-111.17667 5.7067,-24.86401 5.3521,-51.18755 -1.0464,-77.70121 -1.2439,-5.15429 -1.8073,-6.24336 -2.9957,-5.78983 -4.8167,1.83821 -16.7698,4.03261 -19.0366,3.49488 -6.1675,-1.46306 -10.9295,-9.87044 -13.2524,-23.39806 -2.746,-15.99159 1.7587,-38.87749 9.1596,-46.53617 2.3351,-2.41636 3.2914,-2.78226 7.2688,-2.78226 h 4.5801 l -4.609,-8.01708 c -20.4965,-35.65409 -53.8515,-58.96077 -96.5114,-67.43723 -1.9589,-0.38923 -3.9319,-0.69101 -6.1412,-0.91881 5.0063,-2.78331 8.343,-5.32162 9.759,-7.48274 0.4216,-0.64335 0.7273,-1.47413 0.9204,-2.4288 z m -133.1154,72.32634 c -4.4307,9.42156 -7.6679,20.00353 -9.9699,32.23162 -5.9564,31.63956 -8.2379,39.31897 -15.8223,53.25514 -5.296,9.73126 -11.0274,16.81174 -20.654,25.51628 -13.7847,12.46422 -31.0747,21.81366 -50.4636,27.28825 -10.8116,3.05272 -16.9639,3.427 -20.3487,1.23766 -3.0987,-2.00431 -3.6267,-2.87395 -3.6431,-6.00221 -0.02,-3.90558 -4.7299,-12.2075 -10.2382,-18.04749 -4.6818,-4.96372 -17.0406,-13.9447 -18.2319,-13.2488 -0.3307,0.19315 -0.2044,3.76798 0.2811,7.9437 l 0.8826,7.59178 -2.5161,2.04587 c -3.1671,2.57481 -4.8991,2.56109 -13.4586,-0.108 -3.7994,-1.18473 -9.535,-2.72463 -12.746,-3.42202 l -5.8384,-1.26814 0.5539,2.08515 c 1.6507,6.21604 12.1143,20.03075 22.2235,29.34136 7.3364,6.75685 8.2391,8.9131 5.0105,11.96465 -3.818,3.60867 -8.6386,1.48252 -17.7653,-7.83466 -14.3732,-14.67317 -26.5753,-36.55325 -24.0791,-43.17825 1.3018,-3.4551 5.3596,-5.9425 9.4118,-5.76916 2.7756,0.11874 14.7039,3.06256 24.5225,6.05234 1.4934,0.45473 1.6641,0.22127 1.1395,-1.56011 -0.3394,-1.1524 -0.8751,-5.06001 -1.1901,-8.6837 -0.5643,-6.4912 -0.5339,-6.61793 2.0681,-8.55244 3.3385,-2.48212 5.7511,-2.09922 15.6119,2.47839 8.6231,4.003 17.8547,10.5003 22.6447,15.93701 4.4331,5.03171 10.3343,14.20505 11.7548,18.27331 0.6244,1.78835 1.6784,3.25147 2.342,3.25147 3.3612,0 18.1108,-4.8302 25.5896,-8.38036 21.5969,-10.25189 36.7578,-23.57063 47.1263,-41.39954 5.6024,-9.63343 8.4655,-19.25531 12.8918,-43.32707 2.6424,-14.37064 5.2265,-24.51833 8.8248,-33.61862 2.2512,-0.038 4.8377,-0.29197 7.9535,-0.74776 2.0473,-0.29949 4.059,-0.73074 6.1324,-1.34565 z m 150.6477,20.97236 c 4.1258,0.19415 6.9931,1.46848 10.4381,4.33462 12.159,10.11599 8.9029,28.29273 -6.0296,33.65738 -4.4542,1.60021 -11.4257,0.68161 -16.2595,-2.14302 -15.523,-9.07093 -10.4497,-34.09586 7.2378,-35.70222 1.723,-0.15648 3.2379,-0.21147 4.6132,-0.14676 z m 77.4531,5.16816 c -2.6446,0 -5.1593,5.0269 -6.9319,13.85859 -2.3237,11.57791 -1.6069,23.14924 1.9544,31.56189 1.3733,3.24399 1.638,3.462 3.5022,2.88664 0.5063,-0.15629 5.892,-1.73739 11.9682,-3.51399 16.6337,-4.86344 47.3225,-17.64393 48.0694,-20.01841 0.3363,-1.06913 -21.479,-11.88726 -33.7995,-16.76125 -11.0592,-4.37504 -22.3024,-8.01347 -24.7628,-8.01347 z m -204.4764,75.32615 c 12.7748,-0.009 20.0335,1.57293 31.7624,6.92154 34.7282,15.8367 47.0238,53.27692 28.6386,87.2045 -12.156,22.43232 -40.0982,40.17841 -72.2969,45.91606 -10.4585,1.86366 -34.0267,1.22843 -44.5931,-1.202 -14.533,-3.34276 -31.9266,-11.23955 -33.9354,-15.4068 -1.3135,-2.72472 0.2254,-6.10531 3.4023,-7.47346 2.0174,-0.86876 3.3777,-0.4892 10.8314,3.02309 27.9751,13.18215 55.54,14.22177 84.2171,3.17602 29.0659,-11.19551 49.0533,-35.64346 49.0533,-59.99995 0,-28.81196 -27.2899,-51.88288 -59.3808,-50.20004 -4.9716,0.26071 -10.461,1.16363 -13.7237,2.25774 -7.0671,2.36983 -10.1856,2.34152 -12.0024,-0.11007 -5.6746,-7.65742 7.11,-14.09213 28.0272,-14.10663 z" /><path
         style="display:inline;fill:none;fill-opacity:1;stroke:#000000;stroke-width:12.3731;stroke-dasharray:none;stroke-opacity:1"
         d="m 1709.6154,609.88966 c 10.9368,-1.59989 20.8627,-6.95423 44.5534,-24.03341 15.6157,-11.25773 29.6014,-18.11357 58.0052,-28.43424 19.7147,-7.16343 32.5882,-13.92083 35.769,-18.77533 1.7811,-2.71838 1.4957,-8.79204 -0.6276,-13.35256 -2.2525,-4.83814 -5.7402,-7.14985 -21.6088,-14.32259 -2.2128,-1.00018 -8.1379,-3.80564 -13.1669,-6.23436 -5.0289,-2.42872 -10.6248,-4.7568 -12.4353,-5.17352 -4.3208,-0.99456 -28.6976,-1.00629 -36.5826,-0.0176 -3.403,0.4267 -9.7347,1.76045 -14.0704,2.96388 -4.3358,1.20342 -8.2085,1.98697 -8.6061,1.74121 -0.3977,-0.24576 -0.723,-1.26066 -0.723,-2.25535 0,-2.33744 -2.0788,-3.1793 -3.3975,-1.37589 -0.5453,0.74574 -0.9915,2.30213 -0.9915,3.45865 0,3.04044 -1.0273,4.53526 -4.5551,6.62824 -4.3933,2.60642 -11.4837,10.13823 -20.7838,22.07769 -20.3463,26.12029 -23.825,33.33724 -27.7318,57.53213 -1.0403,6.44293 -1.0375,7.30436 0.032,9.86514 1.6714,4.0002 3.775,6.01387 8.7831,8.40752 4.7339,2.26257 9.3147,2.591 18.1372,1.3004 z"
         id="path83682-9-7" /><path
         style="display:inline;fill:#ffdd55;fill-opacity:1;stroke:none;stroke-width:0;stroke-dasharray:none;stroke-opacity:1"
         d="m 1825.5574,772.60632 c 10.9889,-8.01984 38.6061,-29.03656 46.5825,-35.38737 8.3782,-6.67076 11.0167,-11.76606 11.3223,-17.06151 0.4544,-7.87304 -6.2927,-16.79633 -14.0114,-16.79836 -3.6043,-10e-4 -11.4312,2.41314 -22.4617,8.11939 -24.8749,12.86818 -49.5614,20.96908 -47.0359,26.37438 3.6959,7.91015 5.391,11.62607 9.3896,23.64547 1.5329,4.60788 3.5547,18.4508 4.1121,18.4508 0.285,0 7.8407,-4.23248 12.1025,-7.3428 z"
         id="path76-9" /><path
         style="display:inline;fill:#d4aa00;fill-opacity:1;stroke:none;stroke-width:0;stroke-dasharray:none;stroke-opacity:1"
         d="m 1843.169,742.67599 c 3.4073,-5.73389 13.0767,-20.17047 10.3277,-20.07284 -0.1559,0.006 -2.2971,0.40849 -3.3733,1.42569 -2.9238,2.76378 -5.6511,7.13554 -7.2733,11.79426 -0.7238,2.07847 -2.1505,8.96109 -1.9818,9.12972 0.028,0.0276 2.159,-2.03844 2.3007,-2.27683 z"
         id="path60-2" /><path
         style="display:inline;fill:#d4aa00;fill-opacity:1;stroke:none;stroke-width:0;stroke-dasharray:none;stroke-opacity:1"
         d="m 1808.2847,750.32093 c 0.024,-0.0274 0.9259,-1.29884 2.0052,-2.82552 1.0793,-1.52668 1.9932,-2.81721 2.0308,-2.86784 0.038,-0.0506 0.058,-0.0918 0.046,-0.0915 -0.054,10e-4 -1.5869,1.12519 -2.4239,1.77672 -0.8131,0.63287 -2.4697,2.01019 -2.5245,2.09881 -0.01,0.0159 -2.8389,-0.28048 -2.7142,0.002 0.1252,0.28242 1.4667,4.42358 1.5698,4.66795 0.1031,0.24437 1.9591,-2.72202 1.9623,-2.71803 0,0.004 -0.3242,4.64067 -0.3002,4.61327 z"
         id="path62-0" /><path
         d="m 1868.1862,704.26882 c 5.0181,-0.2306 10.1583,1.16826 13.0312,4.60954 5.1671,6.18937 4.7947,19.11456 -1.5208,24.17785 -22.1141,17.72935 -44.9554,34.72236 -68.3483,51.52503 0.07,-1.0929 0.1044,-2.18685 0.1044,-3.28094 10e-5,-8.33177 -13.6058,-36.22382 -16.2616,-39.11648 21.7688,-13.05641 43.517,-25.11377 64.6111,-35.83037 0,0 -3.0117,1.21709 -5e-4,0.002 4.0075,-1.61715 3.678,-2.26109 8.3845,-2.08618 10e-5,10e-6 0,-4.5e-4 0,-4.5e-4 z"
         style="display:inline;fill:none;stroke:#000000;stroke-width:8;stroke-dasharray:none"
         id="path9-5" /><path
         d="m 1856.745,720.12315 c 0,0 -14.428,25.27113 -16.7566,28.69747 -1.5986,2.35236 -0.7317,-23.29697 16.7566,-28.69747 z"
         style="display:inline;fill:none;stroke:#000000;stroke-width:3;stroke-dasharray:none"
         id="path13-4" /><path
         d="m 1805.4825,756.90024 a 94.258904,69.664894 0 0 0 -3.2391,-5.63325 c 4.3794,-4.59313 9.5376,-8.71813 15.5221,-11.71142 0,0 -5.5708,7.89023 -12.283,17.34467 z"
         style="fill:none;stroke:#000000;stroke-width:3;stroke-dasharray:none"
         id="path14-1" /><path
         style="display:inline;fill:#ffdd55;fill-opacity:1;stroke:none;stroke-width:0;stroke-dasharray:none;stroke-opacity:1"
         d="m 1628.522,914.12631 c 9.2376,-3.79669 23.1677,-13.56105 24.5926,-18.85283 0.8633,-3.20602 53.0794,-30.79498 59.89,-44.82622 l -45.5276,-8.42219 -8.1926,-4.40536 -26.2873,25.81591 -12.6843,11.38961 c -13.1061,11.76837 -16.892,19.75817 -18.2151,24.70496 -1.0318,3.85785 0.6025,11.53393 3.4947,14.60058 1.8912,2.00522 8.0448,3.25706 11.2139,3.24309 2.216,-0.01 9.2453,-2.23217 11.7157,-3.24755 z"
         id="path75-9" /><path
         style="display:inline;fill:#d4aa00;fill-opacity:1;stroke:none;stroke-width:0;stroke-dasharray:none;stroke-opacity:1"
         d="m 1684.614,852.58346 c 0.1122,-0.22867 0.4904,-0.98793 0.8404,-1.68726 0.3499,-0.69932 0.634,-1.27374 0.6312,-1.2765 -0.01,-0.006 -0.9297,-0.2376 -0.9336,-0.2337 -0.01,0.009 -0.1968,0.83682 -0.3127,1.37928 -0.1597,0.74678 -0.4433,2.20352 -0.4333,2.22543 0,0.005 0.096,-0.17858 0.208,-0.40725 z"
         id="path66-9" /><path
         style="display:inline;fill:#d4aa00;fill-opacity:1;stroke:none;stroke-width:0;stroke-dasharray:none;stroke-opacity:1"
         d="m 1651.4421,883.78005 c 6.2573,-10.92783 13.7401,-25.73955 18.1981,-36.14324 0.9843,-2.29715 0.658,-4.93277 0.3705,-5.10054 -0.4595,-0.2681 -2.7623,0.12588 -5.0556,2.97296 -8.5749,10.64538 -13.9909,24.04149 -16.0319,35.98053 -0.2661,1.55603 0.1682,3.47984 0.2044,3.51596 0.036,0.0361 1.7662,-0.26802 2.3145,-1.22567 z"
         id="path73-5" /><path
         d="m 1688.7718,847.7226 c -2.1498,4.09623 -4.4173,8.73906 -6.8911,14.18983 0.2707,-5.40504 1.1017,-10.51739 2.4288,-15.32412 a 94.258904,69.664894 0 0 0 4.4623,1.13429 z"
         style="display:inline;fill:none;stroke:#000000;stroke-width:3;stroke-dasharray:none"
         id="path12-8" /><path
         d="m 1660.5921,837.00645 c 2.6115,1.44945 26.028,10.88022 56.2359,13.95834 -28.8642,20.28481 -58.1723,41.29847 -87.6381,63.92994 -6.5703,5.04651 -19.3668,5.20752 -24.7959,-1.00665 -6.077,-6.95586 -3.827,-20.98119 2.6303,-27.63191 15.966,-16.44472 34.0532,-32.98636 53.5678,-49.24972 z"
         style="display:inline;fill:none;stroke:#000000;stroke-width:8;stroke-dasharray:none"
         id="path10-4" /><path
         d="m 1672.1563,842.49863 c -7.1698,17.60613 -14.8937,31.73829 -24.1944,47.79502 0,-18.37103 8.1054,-35.40831 20.7543,-49.24817 a 94.258904,69.664894 0 0 0 3.4401,1.45315 z"
         style="fill:none;stroke:#000000;stroke-width:3;stroke-dasharray:none"
         id="path11-8" /><path
         style="display:inline;fill:#c0f3ff;fill-opacity:1;stroke:url(#linearGradient97);stroke-width:0;stroke-dasharray:none;stroke-opacity:1"
         d="m 1953.4325,681.55493 c 4.1051,-1.20822 9.5309,-2.8903 12.0571,-3.73795 15.8691,-5.32468 37.4526,-14.47537 40.4457,-17.14761 l 0.7019,-0.62668 -0.4752,-0.40366 c -1.9357,-1.64435 -15.0342,-8.25584 -25.9358,-13.09114 -10.0987,-4.47917 -25.2878,-9.8961 -30.5975,-10.91201 -1.3181,-0.25218 -1.5419,-0.24951 -2.232,0.0266 -2.9058,1.16265 -5.7267,9.11292 -6.9856,19.68733 -0.3925,3.29709 -0.4487,10.07819 -0.1078,13.01411 0.5808,5.00274 1.967,10.28353 3.5418,13.49256 0.7525,1.53334 1.103,1.91935 1.7294,1.9045 0.2167,-0.005 3.7528,-0.99788 7.858,-2.20609 z"
         id="path78-4" /></g></g></svg>
